<svg xmlns="http://www.w3.org/2000/svg" viewBox="0 0 400 300" style="enable-background:new 0 0 400 300" xml:space="preserve"><style>.st43,.st445,.st446{fill-rule:evenodd;clip-rule:evenodd;fill:#201d1e}.st445,.st446{fill:#fff;stroke:#201d1e;stroke-width:5.1024;stroke-linecap:round;stroke-linejoin:round;stroke-miterlimit:10}.st446{fill:none}</style><g id="レイヤー_1"><path d="M63.72 225.17c0 5.27 4.15 9.54 9.26 9.54h213.44c5.12 0 9.26-4.27 9.26-9.54V95.24H63.72v129.93z" style="fill:#fff;stroke:#201d1e;stroke-width:5.1024;stroke-linecap:round;stroke-linejoin:round;stroke-miterlimit:10"/><path d="M286.42 69.24H72.98c-5.12 0-9.26 4.15-9.26 9.26v16.74h231.96V78.5c0-5.11-4.15-9.26-9.26-9.26z" style="fill:#adadae;stroke:#201d1e;stroke-width:5.1024;stroke-linecap:round;stroke-linejoin:round;stroke-miterlimit:10"/><path class="st445" d="M105.57 217.71h-20.1a2.97 2.97 0 0 1-2.97-2.97v-20.1a2.97 2.97 0 0 1 2.97-2.97h20.1a2.97 2.97 0 0 1 2.97 2.97v20.1a2.97 2.97 0 0 1-2.97 2.97z"/><path class="st43" d="M95.67 205.43c4.53-5.61 9.05-11.22 13.58-16.84.85-1.06 2.41-1.22 3.47-.37 1.05.84 1.22 2.41.37 3.45-5.04 6.24-10.07 12.5-15.11 18.74-.45.56-1.08.85-1.74.91-.63.05-1.25-.12-1.78-.54-2.55-2.07-5.07-4.13-7.62-6.2-1.05-.85-1.2-2.41-.35-3.47.85-1.05 2.41-1.2 3.47-.35 1.9 1.57 3.81 3.12 5.71 4.67z"/><path class="st446" d="M124.45 207.96h154.11M124.45 196.77h154.11"/><path class="st445" d="M105.57 178.19h-20.1a2.97 2.97 0 0 1-2.97-2.97v-20.1a2.97 2.97 0 0 1 2.97-2.97h20.1a2.97 2.97 0 0 1 2.97 2.97v20.1a2.97 2.97 0 0 1-2.97 2.97z"/><path class="st43" d="M95.67 165.91c4.53-5.61 9.05-11.22 13.58-16.84.85-1.06 2.41-1.22 3.47-.37 1.05.84 1.22 2.41.37 3.45-5.04 6.24-10.07 12.5-15.11 18.74-.45.56-1.08.85-1.74.91-.63.05-1.25-.12-1.78-.54-2.55-2.07-5.07-4.13-7.62-6.2-1.05-.85-1.2-2.41-.35-3.47.85-1.05 2.41-1.2 3.47-.35 1.9 1.57 3.81 3.12 5.71 4.67z"/><path class="st446" d="M124.45 168.44h154.11M124.45 157.25h154.11"/><path class="st445" d="M105.57 138.63h-20.1a2.97 2.97 0 0 1-2.97-2.97v-20.1a2.97 2.97 0 0 1 2.97-2.97h20.1a2.97 2.97 0 0 1 2.97 2.97v20.1a2.97 2.97 0 0 1-2.97 2.97z"/><path class="st43" d="M95.67 126.36c4.53-5.61 9.05-11.22 13.58-16.84.85-1.06 2.41-1.22 3.47-.37 1.05.84 1.22 2.41.37 3.45-5.04 6.24-10.07 12.5-15.11 18.74-.45.56-1.08.85-1.74.91-.63.05-1.25-.12-1.78-.54-2.55-2.07-5.07-4.13-7.62-6.2-1.05-.85-1.2-2.41-.35-3.47.85-1.05 2.41-1.2 3.47-.35 1.9 1.57 3.81 3.12 5.71 4.67z"/><path class="st446" d="M124.45 128.89h154.11M124.45 117.7h154.11"/><path d="M290.1 199.15c-1.69.34-6.82-3.2-8.47-3.97-6.28-2.94-15.25-6.11-17.04 3.94 0 0-1.94 6.85 7.42 12.26 8.68 5.02 18.26 8.22 26.97 13.19 8.33 4.75 14.58 12.06 18.58 20.77l44.15-17.78s-6.31-11.66-5.29-18.16c1.02-6.49 1.11-12.69-.04-19.23-1.19-6.81-3.49-12.88-6.23-19.15-2.78-6.35-6.39-20.24-13.12-23.44-4.39-2.09-12.55 1.74-10.62 7.86l3.63 11.53s-6.17-15.96-6.18-15.99c-2.82-7.29-15.42-3.15-14.4 4.21l4.84 17.58c-1.02-3.72-3.27-7.97-4.89-11.64-1.53-3.49-3.34-9.13-7.36-9.99-7.02-1.51-11.12 4.72-9.09 10.99l5.22 16.18c-4.13-10.39-8.14-20.83-12.34-31.19-2.47-6.1-6.53-19.8-16.23-13.99-3.76 2.25-3.23 6.6-1.89 10.52l22.38 55.5z" style="fill:#ffdfa6;stroke:#000;stroke-width:5.1024;stroke-linecap:round;stroke-linejoin:round;stroke-miterlimit:10"/></g></svg>