<?xml version="1.0" encoding="utf-8"?>
<!-- Generator: Adobe Illustrator 27.5.0, SVG Export Plug-In . SVG Version: 6.00 Build 0)  -->
<svg version="1.1" xmlns="http://www.w3.org/2000/svg" xmlns:xlink="http://www.w3.org/1999/xlink" x="0px" y="0px"
	 viewBox="0 0 300 300" style="enable-background:new 0 0 300 300;" xml:space="preserve">
<style type="text/css">
	.st0{fill:#FFC934;}
	.st1{fill:#E8FFD6;}
	.st2{fill:#F0F0F0;}
	.st3{fill:#FFFFFF;}
	.st4{fill:#E7E7E8;}
	.st5{fill:#FFE7A9;}
	.st6{fill:#15AB00;}
	.st7{fill:#F0AE2C;}
	.st8{fill:none;stroke:#15AB00;stroke-width:6;stroke-miterlimit:10;}
	.st9{fill:#FFFFFF;stroke:#717071;stroke-miterlimit:10;}
	.st10{fill:#BC0D23;}
	.st11{fill:#EBAC00;}
	.st12{fill:#E8FFD6;stroke:#87CE4B;stroke-width:3.1265;stroke-miterlimit:10;}
	.st13{fill:none;stroke:#15AB00;stroke-miterlimit:10;}
	.st14{fill:url(#SVGID_1_);}
	.st15{fill:none;stroke:#FFFFFF;stroke-width:5;stroke-miterlimit:10;}
	.st16{fill:#EB5D00;}
	.st17{fill:#EB8F00;}
	.st18{fill:#15AB00;stroke:#15AB00;stroke-width:78.8381;stroke-linecap:round;stroke-linejoin:round;stroke-miterlimit:10;}
	.st19{fill:#15AB00;stroke:#15AB00;stroke-width:3;stroke-linecap:round;stroke-linejoin:round;stroke-miterlimit:10;}
	.st20{fill:#FFFFFF;stroke:#FFFFFF;stroke-width:2.2619;stroke-miterlimit:10;}
	.st21{fill:#298D00;}
	.st22{fill:#FFF5BE;stroke:#FF9F32;stroke-width:3.1265;stroke-miterlimit:10;}
	.st23{fill:#FF9F32;}
	.st24{clip-path:url(#SVGID_00000108271242332195595290000010084069176485415303_);}
	.st25{fill:#94BED2;}
	.st26{fill:#FFDFC6;}
	.st27{fill:#333333;}
	.st28{fill:#C1C2C3;}
	.st29{fill:#96CCFF;}
	.st30{fill:#FFEC9D;stroke:#231815;stroke-width:3.6625;stroke-linecap:round;stroke-linejoin:round;stroke-miterlimit:10;}
	.st31{clip-path:url(#SVGID_00000066511763687644390240000004098422951212432288_);}
	.st32{fill:#FFFFFF;stroke:#231815;stroke-width:1.7632;stroke-linecap:round;stroke-linejoin:round;stroke-miterlimit:10;}
	.st33{fill:#C7FFFF;stroke:#231815;stroke-width:3.5;stroke-linecap:round;stroke-linejoin:round;stroke-miterlimit:10;}
	.st34{fill:#FFFFFF;stroke:#231815;stroke-width:3.5;stroke-linecap:round;stroke-linejoin:round;stroke-miterlimit:10;}
	.st35{fill:#FFFFFF;stroke:#231815;stroke-width:1.6;stroke-miterlimit:10;}
	.st36{fill:#87CE4B;stroke:#231815;stroke-width:3.5;stroke-miterlimit:10;}
	.st37{fill:#FFFFFF;stroke:#231815;stroke-width:3.5;stroke-miterlimit:10;}
	.st38{fill:#FFDD00;stroke:#231815;stroke-width:3.5;stroke-miterlimit:10;}
	.st39{fill:#D6FFFF;stroke:#231815;stroke-width:3.5;stroke-miterlimit:10;}
	.st40{fill:#FFFFFF;stroke:#201D1E;stroke-width:3.5517;stroke-miterlimit:10;}
	.st41{fill:#ADADAE;stroke:#201D1E;stroke-width:3.5;stroke-miterlimit:10;}
	.st42{fill-rule:evenodd;clip-rule:evenodd;fill:#FFFFFF;stroke:#201D1E;stroke-width:2;stroke-miterlimit:10;}
	.st43{fill-rule:evenodd;clip-rule:evenodd;fill:#201D1E;}
	
		.st44{fill-rule:evenodd;clip-rule:evenodd;fill:none;stroke:#201D1E;stroke-width:3.0146;stroke-linecap:round;stroke-linejoin:round;stroke-miterlimit:10;}
	.st45{fill:#FFDFA6;stroke:#000000;stroke-width:3.0469;stroke-linecap:round;stroke-linejoin:round;stroke-miterlimit:10;}
	.st46{fill:#EF6F00;stroke:#000000;stroke-width:3.1265;stroke-linecap:round;stroke-linejoin:round;stroke-miterlimit:10;}
	.st47{fill:#FFFFFF;stroke:#000000;stroke-width:3.1265;stroke-linecap:round;stroke-linejoin:round;stroke-miterlimit:10;}
	
		.st48{fill-rule:evenodd;clip-rule:evenodd;fill:#DECD96;stroke:#000000;stroke-width:2.9737;stroke-linecap:round;stroke-linejoin:round;stroke-miterlimit:10;}
	.st49{fill:#E6FFFF;stroke:#231815;stroke-width:3.5;stroke-linecap:round;stroke-linejoin:round;stroke-miterlimit:10;}
	.st50{fill:#8FFFFF;stroke:#231815;stroke-width:2.2832;stroke-linecap:round;stroke-linejoin:round;stroke-miterlimit:10;}
	.st51{fill:#87CE4B;stroke:#231815;stroke-width:1.6;stroke-miterlimit:10;}
	.st52{fill:#FFDD00;stroke:#231815;stroke-width:1.6;stroke-miterlimit:10;}
	.st53{fill:#FFECBB;stroke:#231815;stroke-width:1.6;stroke-miterlimit:10;}
	.st54{fill:#FFE400;}
	.st55{clip-path:url(#SVGID_00000150078000462024655940000018023620172709584060_);fill:#EB7E00;}
	.st56{clip-path:url(#SVGID_00000150078000462024655940000018023620172709584060_);fill:#EB7F01;}
	.st57{clip-path:url(#SVGID_00000150078000462024655940000018023620172709584060_);fill:#EB8001;}
	.st58{clip-path:url(#SVGID_00000150078000462024655940000018023620172709584060_);fill:#EB8102;}
	.st59{clip-path:url(#SVGID_00000150078000462024655940000018023620172709584060_);fill:#EB8203;}
	.st60{clip-path:url(#SVGID_00000150078000462024655940000018023620172709584060_);fill:#EB8304;}
	.st61{clip-path:url(#SVGID_00000150078000462024655940000018023620172709584060_);fill:#EB8404;}
	.st62{clip-path:url(#SVGID_00000150078000462024655940000018023620172709584060_);fill:#EC8505;}
	.st63{clip-path:url(#SVGID_00000150078000462024655940000018023620172709584060_);fill:#EC8606;}
	.st64{clip-path:url(#SVGID_00000150078000462024655940000018023620172709584060_);fill:#EC8707;}
	.st65{clip-path:url(#SVGID_00000150078000462024655940000018023620172709584060_);fill:#EC8807;}
	.st66{clip-path:url(#SVGID_00000150078000462024655940000018023620172709584060_);fill:#EC8908;}
	.st67{clip-path:url(#SVGID_00000150078000462024655940000018023620172709584060_);fill:#EC8A09;}
	.st68{clip-path:url(#SVGID_00000150078000462024655940000018023620172709584060_);fill:#EC8B0A;}
	.st69{clip-path:url(#SVGID_00000150078000462024655940000018023620172709584060_);fill:#EC8C0A;}
	.st70{clip-path:url(#SVGID_00000150078000462024655940000018023620172709584060_);fill:#EC8D0B;}
	.st71{clip-path:url(#SVGID_00000150078000462024655940000018023620172709584060_);fill:#EC8E0C;}
	.st72{clip-path:url(#SVGID_00000150078000462024655940000018023620172709584060_);fill:#EC8F0D;}
	.st73{clip-path:url(#SVGID_00000150078000462024655940000018023620172709584060_);fill:#ED900D;}
	.st74{clip-path:url(#SVGID_00000150078000462024655940000018023620172709584060_);fill:#ED910E;}
	.st75{clip-path:url(#SVGID_00000150078000462024655940000018023620172709584060_);fill:#ED920F;}
	.st76{clip-path:url(#SVGID_00000150078000462024655940000018023620172709584060_);fill:#ED9310;}
	.st77{clip-path:url(#SVGID_00000150078000462024655940000018023620172709584060_);fill:#ED9410;}
	.st78{clip-path:url(#SVGID_00000150078000462024655940000018023620172709584060_);fill:#ED9511;}
	.st79{clip-path:url(#SVGID_00000150078000462024655940000018023620172709584060_);fill:#ED9612;}
	.st80{clip-path:url(#SVGID_00000150078000462024655940000018023620172709584060_);fill:#ED9713;}
	.st81{clip-path:url(#SVGID_00000150078000462024655940000018023620172709584060_);fill:#ED9813;}
	.st82{clip-path:url(#SVGID_00000150078000462024655940000018023620172709584060_);fill:#ED9914;}
	.st83{clip-path:url(#SVGID_00000150078000462024655940000018023620172709584060_);fill:#ED9A15;}
	.st84{clip-path:url(#SVGID_00000150078000462024655940000018023620172709584060_);fill:#ED9B16;}
	.st85{clip-path:url(#SVGID_00000150078000462024655940000018023620172709584060_);fill:#EE9C16;}
	.st86{clip-path:url(#SVGID_00000150078000462024655940000018023620172709584060_);fill:#EE9D17;}
	.st87{clip-path:url(#SVGID_00000150078000462024655940000018023620172709584060_);fill:#EE9E18;}
	.st88{clip-path:url(#SVGID_00000150078000462024655940000018023620172709584060_);fill:#EE9F19;}
	.st89{clip-path:url(#SVGID_00000150078000462024655940000018023620172709584060_);fill:#EEA01A;}
	.st90{clip-path:url(#SVGID_00000150078000462024655940000018023620172709584060_);fill:#EEA11A;}
	.st91{clip-path:url(#SVGID_00000150078000462024655940000018023620172709584060_);fill:#EEA21B;}
	.st92{clip-path:url(#SVGID_00000150078000462024655940000018023620172709584060_);fill:#EEA31C;}
	.st93{clip-path:url(#SVGID_00000150078000462024655940000018023620172709584060_);fill:#EEA41D;}
	.st94{clip-path:url(#SVGID_00000150078000462024655940000018023620172709584060_);fill:#EEA51D;}
	.st95{clip-path:url(#SVGID_00000150078000462024655940000018023620172709584060_);fill:#EEA61E;}
	.st96{clip-path:url(#SVGID_00000150078000462024655940000018023620172709584060_);fill:#EFA71F;}
	.st97{clip-path:url(#SVGID_00000150078000462024655940000018023620172709584060_);fill:#EFA820;}
	.st98{clip-path:url(#SVGID_00000150078000462024655940000018023620172709584060_);fill:#EFAA20;}
	.st99{clip-path:url(#SVGID_00000150078000462024655940000018023620172709584060_);fill:#EFAB21;}
	.st100{clip-path:url(#SVGID_00000150078000462024655940000018023620172709584060_);fill:#EFAC22;}
	.st101{clip-path:url(#SVGID_00000150078000462024655940000018023620172709584060_);fill:#EFAD23;}
	.st102{clip-path:url(#SVGID_00000150078000462024655940000018023620172709584060_);fill:#EFAE24;}
	.st103{clip-path:url(#SVGID_00000150078000462024655940000018023620172709584060_);fill:#EFAF24;}
	.st104{clip-path:url(#SVGID_00000150078000462024655940000018023620172709584060_);fill:#EFB025;}
	.st105{clip-path:url(#SVGID_00000150078000462024655940000018023620172709584060_);fill:#EFB126;}
	.st106{clip-path:url(#SVGID_00000150078000462024655940000018023620172709584060_);fill:#EFB227;}
	.st107{clip-path:url(#SVGID_00000150078000462024655940000018023620172709584060_);fill:#EFB327;}
	.st108{clip-path:url(#SVGID_00000150078000462024655940000018023620172709584060_);fill:#F0B428;}
	.st109{clip-path:url(#SVGID_00000150078000462024655940000018023620172709584060_);fill:#F0B529;}
	.st110{clip-path:url(#SVGID_00000150078000462024655940000018023620172709584060_);fill:#F0B62A;}
	.st111{clip-path:url(#SVGID_00000150078000462024655940000018023620172709584060_);fill:#F0B72A;}
	.st112{clip-path:url(#SVGID_00000150078000462024655940000018023620172709584060_);fill:#F0B82B;}
	.st113{clip-path:url(#SVGID_00000150078000462024655940000018023620172709584060_);fill:#F0B92C;}
	.st114{fill:none;stroke:#15AB00;stroke-width:2.5;stroke-miterlimit:10;}
	.st115{fill:url(#SVGID_00000120553788937011543700000015698034652609627009_);}
	.st116{fill:#FFDE00;}
	.st117{fill:none;stroke:#E03828;stroke-width:2.9079;stroke-miterlimit:10;}
	.st118{fill:none;stroke:#15AB00;stroke-width:5;stroke-miterlimit:10;}
	.st119{opacity:0.3;}
	.st120{opacity:0.65;}
	.st121{opacity:0;fill:#FFFFFF;}
	.st122{opacity:9.900990e-03;fill:#FDFDFD;}
	.st123{opacity:0.0198;fill:#FBFBFB;}
	.st124{opacity:0.0297;fill:#F9F9F9;}
	.st125{opacity:0.0396;fill:#F6F7F7;}
	.st126{opacity:0.0495;fill:#F4F5F5;}
	.st127{opacity:0.0594;fill:#F2F2F3;}
	.st128{opacity:0.0693;fill:#F0F0F2;}
	.st129{opacity:0.0792;fill:#EEEEF0;}
	.st130{opacity:0.0891;fill:#ECECEE;}
	.st131{opacity:0.099;fill:#EAEAEC;}
	.st132{opacity:0.1089;fill:#E8E8EA;}
	.st133{opacity:0.1188;fill:#E5E6E8;}
	.st134{opacity:0.1287;fill:#E3E4E6;}
	.st135{opacity:0.1386;fill:#E1E2E4;}
	.st136{opacity:0.1485;fill:#DFE0E2;}
	.st137{opacity:0.1584;fill:#DDDEE0;}
	.st138{opacity:0.1683;fill:#DBDBDE;}
	.st139{opacity:0.1782;fill:#D9D9DC;}
	.st140{opacity:0.1881;fill:#D7D7DB;}
	.st141{opacity:0.198;fill:#D4D5D9;}
	.st142{opacity:0.2079;fill:#D2D3D7;}
	.st143{opacity:0.2178;fill:#D0D1D5;}
	.st144{opacity:0.2277;fill:#CECFD3;}
	.st145{opacity:0.2376;fill:#CCCDD1;}
	.st146{opacity:0.2475;fill:#CACBCF;}
	.st147{opacity:0.2574;fill:#C8C9CD;}
	.st148{opacity:0.2673;fill:#C6C7CB;}
	.st149{opacity:0.2772;fill:#C3C5C9;}
	.st150{opacity:0.2871;fill:#C1C2C7;}
	.st151{opacity:0.297;fill:#BFC0C5;}
	.st152{opacity:0.3069;fill:#BDBEC3;}
	.st153{opacity:0.3168;fill:#BBBCC2;}
	.st154{opacity:0.3267;fill:#B9BAC0;}
	.st155{opacity:0.3366;fill:#B7B8BE;}
	.st156{opacity:0.3465;fill:#B4B6BC;}
	.st157{opacity:0.3564;fill:#B2B4BA;}
	.st158{opacity:0.3663;fill:#B0B2B8;}
	.st159{opacity:0.3762;fill:#AEB0B6;}
	.st160{opacity:0.3861;fill:#ACAEB4;}
	.st161{opacity:0.396;fill:#AAABB2;}
	.st162{opacity:0.4059;fill:#A8A9B0;}
	.st163{opacity:0.4158;fill:#A6A7AE;}
	.st164{opacity:0.4257;fill:#A3A5AC;}
	.st165{opacity:0.4356;fill:#A1A3AA;}
	.st166{opacity:0.4455;fill:#9FA1A9;}
	.st167{opacity:0.4554;fill:#9D9FA7;}
	.st168{opacity:0.4653;fill:#9B9DA5;}
	.st169{opacity:0.4752;fill:#999BA3;}
	.st170{opacity:0.4851;fill:#9799A1;}
	.st171{opacity:0.495;fill:#95979F;}
	.st172{opacity:0.505;fill:#92949D;}
	.st173{opacity:0.5149;fill:#90929B;}
	.st174{opacity:0.5248;fill:#8E9099;}
	.st175{opacity:0.5347;fill:#8C8E97;}
	.st176{opacity:0.5446;fill:#8A8C95;}
	.st177{opacity:0.5545;fill:#888A93;}
	.st178{opacity:0.5644;fill:#868892;}
	.st179{opacity:0.5743;fill:#848690;}
	.st180{opacity:0.5842;fill:#81848E;}
	.st181{opacity:0.5941;fill:#7F828C;}
	.st182{opacity:0.604;fill:#7D808A;}
	.st183{opacity:0.6139;fill:#7B7D88;}
	.st184{opacity:0.6238;fill:#797B86;}
	.st185{opacity:0.6337;fill:#777984;}
	.st186{opacity:0.6436;fill:#757782;}
	.st187{opacity:0.6535;fill:#737580;}
	.st188{opacity:0.6634;fill:#70737E;}
	.st189{opacity:0.6733;fill:#6E717C;}
	.st190{opacity:0.6832;fill:#6C6F7A;}
	.st191{opacity:0.6931;fill:#6A6D79;}
	.st192{opacity:0.703;fill:#686B77;}
	.st193{opacity:0.7129;fill:#666975;}
	.st194{opacity:0.7228;fill:#646673;}
	.st195{opacity:0.7327;fill:#616471;}
	.st196{opacity:0.7426;fill:#5F626F;}
	.st197{opacity:0.7525;fill:#5D606D;}
	.st198{opacity:0.7624;fill:#5B5E6B;}
	.st199{opacity:0.7723;fill:#595C69;}
	.st200{opacity:0.7822;fill:#575A67;}
	.st201{opacity:0.7921;fill:#555865;}
	.st202{opacity:0.802;fill:#535663;}
	.st203{opacity:0.8119;fill:#505461;}
	.st204{opacity:0.8218;fill:#4E5260;}
	.st205{opacity:0.8317;fill:#4C505E;}
	.st206{opacity:0.8416;fill:#4A4D5C;}
	.st207{opacity:0.8515;fill:#484B5A;}
	.st208{opacity:0.8614;fill:#464958;}
	.st209{opacity:0.8713;fill:#444756;}
	.st210{opacity:0.8812;fill:#424554;}
	.st211{opacity:0.8911;fill:#3F4352;}
	.st212{opacity:0.901;fill:#3D4150;}
	.st213{opacity:0.9109;fill:#3B3F4E;}
	.st214{opacity:0.9208;fill:#393D4C;}
	.st215{opacity:0.9307;fill:#373B4A;}
	.st216{opacity:0.9406;fill:#353949;}
	.st217{opacity:0.9505;fill:#333647;}
	.st218{opacity:0.9604;fill:#313445;}
	.st219{opacity:0.9703;fill:#2E3243;}
	.st220{opacity:0.9802;fill:#2C3041;}
	.st221{opacity:0.9901;fill:#2A2E3F;}
	.st222{fill:#282C3D;}
	.st223{opacity:0.22;fill:#FFFFFF;}
	.st224{fill:#808080;}
	.st225{fill:#818181;}
	.st226{fill:#828282;}
	.st227{fill:#838383;}
	.st228{fill:#858585;}
	.st229{fill:#868686;}
	.st230{fill:#878787;}
	.st231{fill:#888888;}
	.st232{fill:#898989;}
	.st233{fill:#8A8A8A;}
	.st234{fill:#8C8C8C;}
	.st235{fill:#8D8D8D;}
	.st236{fill:#8E8E8E;}
	.st237{fill:#8F8F8F;}
	.st238{fill:#909090;}
	.st239{fill:#919191;}
	.st240{fill:#939393;}
	.st241{fill:#949494;}
	.st242{fill:#959595;}
	.st243{fill:#969696;}
	.st244{fill:#979797;}
	.st245{fill:#989898;}
	.st246{fill:#999999;}
	.st247{fill:#9B9B9B;}
	.st248{fill:#9C9C9C;}
	.st249{fill:#9D9D9D;}
	.st250{fill:#9E9E9E;}
	.st251{fill:#9F9F9F;}
	.st252{fill:#A0A0A0;}
	.st253{fill:#A2A2A2;}
	.st254{fill:#A3A3A3;}
	.st255{fill:#A4A4A4;}
	.st256{fill:#A5A5A5;}
	.st257{fill:#A6A6A6;}
	.st258{fill:#A7A7A7;}
	.st259{fill:#A9A9A9;}
	.st260{fill:#AAAAAA;}
	.st261{fill:#ABABAB;}
	.st262{fill:#ACACAC;}
	.st263{fill:#ADADAD;}
	.st264{fill:#AEAEAE;}
	.st265{fill:#AFAFAF;}
	.st266{fill:#B1B1B1;}
	.st267{fill:#B2B2B2;}
	.st268{fill:#B3B3B3;}
	.st269{fill:#B4B4B4;}
	.st270{fill:#B5B5B5;}
	.st271{fill:#B6B6B6;}
	.st272{fill:#B8B8B8;}
	.st273{fill:#B9B9B9;}
	.st274{fill:#BABABA;}
	.st275{fill:#BBBBBB;}
	.st276{fill:#BCBCBC;}
	.st277{fill:#BDBDBD;}
	.st278{fill:#BFBFBF;}
	.st279{fill:#C0C0C0;}
	.st280{fill:#C1C1C1;}
	.st281{fill:#C2C2C2;}
	.st282{fill:#C3C3C3;}
	.st283{fill:#C4C4C4;}
	.st284{fill:#C6C6C6;}
	.st285{fill:#C7C7C7;}
	.st286{fill:#C8C8C8;}
	.st287{fill:#C9C9C9;}
	.st288{fill:#CACACA;}
	.st289{fill:#CBCBCB;}
	.st290{fill:#CCCCCC;}
	.st291{fill:#CECECE;}
	.st292{fill:#CFCFCF;}
	.st293{fill:#D0D0D0;}
	.st294{fill:#D1D1D1;}
	.st295{fill:#D2D2D2;}
	.st296{fill:#D3D3D3;}
	.st297{fill:#D5D5D5;}
	.st298{fill:#D6D6D6;}
	.st299{fill:#D7D7D7;}
	.st300{fill:#D8D8D8;}
	.st301{fill:#D9D9D9;}
	.st302{fill:#DADADA;}
	.st303{fill:#DCDCDC;}
	.st304{fill:#DDDDDD;}
	.st305{fill:#DEDEDE;}
	.st306{fill:#DFDFDF;}
	.st307{fill:#E0E0E0;}
	.st308{fill:#E1E1E1;}
	.st309{fill:#E2E2E2;}
	.st310{fill:#E4E4E4;}
	.st311{fill:#E5E5E5;}
	.st312{fill:#E6E6E6;}
	.st313{fill:#E7E7E7;}
	.st314{fill:#E8E8E8;}
	.st315{fill:#E9E9E9;}
	.st316{fill:#EBEBEB;}
	.st317{fill:#ECECEC;}
	.st318{fill:#EDEDED;}
	.st319{fill:#EEEEEE;}
	.st320{fill:#EFEFEF;}
	.st321{fill:#F2F2F2;}
	.st322{fill:#F3F3F3;}
	.st323{fill:#F4F4F4;}
	.st324{fill:#F5F5F5;}
	.st325{opacity:0.6;fill:#808080;}
	.st326{opacity:0.604;fill:#818181;}
	.st327{opacity:0.6079;fill:#828282;}
	.st328{opacity:0.6119;fill:#838383;}
	.st329{opacity:0.6158;fill:#858585;}
	.st330{opacity:0.6198;fill:#868686;}
	.st331{opacity:0.6238;fill:#878787;}
	.st332{opacity:0.6277;fill:#888888;}
	.st333{opacity:0.6317;fill:#898989;}
	.st334{opacity:0.6356;fill:#8A8A8A;}
	.st335{opacity:0.6396;fill:#8C8C8C;}
	.st336{opacity:0.6436;fill:#8D8D8D;}
	.st337{opacity:0.6475;fill:#8E8E8E;}
	.st338{opacity:0.6515;fill:#8F8F8F;}
	.st339{opacity:0.6554;fill:#909090;}
	.st340{opacity:0.6594;fill:#919191;}
	.st341{opacity:0.6634;fill:#939393;}
	.st342{opacity:0.6673;fill:#949494;}
	.st343{opacity:0.6713;fill:#959595;}
	.st344{opacity:0.6752;fill:#969696;}
	.st345{opacity:0.6792;fill:#979797;}
	.st346{opacity:0.6832;fill:#989898;}
	.st347{opacity:0.6871;fill:#999999;}
	.st348{opacity:0.6911;fill:#9B9B9B;}
	.st349{opacity:0.695;fill:#9C9C9C;}
	.st350{opacity:0.699;fill:#9D9D9D;}
	.st351{opacity:0.703;fill:#9E9E9E;}
	.st352{opacity:0.7069;fill:#9F9F9F;}
	.st353{opacity:0.7109;fill:#A0A0A0;}
	.st354{opacity:0.7149;fill:#A2A2A2;}
	.st355{opacity:0.7188;fill:#A3A3A3;}
	.st356{opacity:0.7228;fill:#A4A4A4;}
	.st357{opacity:0.7267;fill:#A5A5A5;}
	.st358{opacity:0.7307;fill:#A6A6A6;}
	.st359{opacity:0.7347;fill:#A7A7A7;}
	.st360{opacity:0.7386;fill:#A9A9A9;}
	.st361{opacity:0.7426;fill:#AAAAAA;}
	.st362{opacity:0.7465;fill:#ABABAB;}
	.st363{opacity:0.7505;fill:#ACACAC;}
	.st364{opacity:0.7545;fill:#ADADAD;}
	.st365{opacity:0.7584;fill:#AEAEAE;}
	.st366{opacity:0.7624;fill:#AFAFAF;}
	.st367{opacity:0.7663;fill:#B1B1B1;}
	.st368{opacity:0.7703;fill:#B2B2B2;}
	.st369{opacity:0.7743;fill:#B3B3B3;}
	.st370{opacity:0.7782;fill:#B4B4B4;}
	.st371{opacity:0.7822;fill:#B5B5B5;}
	.st372{opacity:0.7861;fill:#B6B6B6;}
	.st373{opacity:0.7901;fill:#B8B8B8;}
	.st374{opacity:0.7941;fill:#B9B9B9;}
	.st375{opacity:0.798;fill:#BABABA;}
	.st376{opacity:0.802;fill:#BBBBBB;}
	.st377{opacity:0.8059;fill:#BCBCBC;}
	.st378{opacity:0.8099;fill:#BDBDBD;}
	.st379{opacity:0.8139;fill:#BFBFBF;}
	.st380{opacity:0.8178;fill:#C0C0C0;}
	.st381{opacity:0.8218;fill:#C1C1C1;}
	.st382{opacity:0.8257;fill:#C2C2C2;}
	.st383{opacity:0.8297;fill:#C3C3C3;}
	.st384{opacity:0.8337;fill:#C4C4C4;}
	.st385{opacity:0.8376;fill:#C6C6C6;}
	.st386{opacity:0.8416;fill:#C7C7C7;}
	.st387{opacity:0.8455;fill:#C8C8C8;}
	.st388{opacity:0.8495;fill:#C9C9C9;}
	.st389{opacity:0.8535;fill:#CACACA;}
	.st390{opacity:0.8574;fill:#CBCBCB;}
	.st391{opacity:0.8614;fill:#CCCCCC;}
	.st392{opacity:0.8653;fill:#CECECE;}
	.st393{opacity:0.8693;fill:#CFCFCF;}
	.st394{opacity:0.8733;fill:#D0D0D0;}
	.st395{opacity:0.8772;fill:#D1D1D1;}
	.st396{opacity:0.8812;fill:#D2D2D2;}
	.st397{opacity:0.8851;fill:#D3D3D3;}
	.st398{opacity:0.8891;fill:#D5D5D5;}
	.st399{opacity:0.8931;fill:#D6D6D6;}
	.st400{opacity:0.897;fill:#D7D7D7;}
	.st401{opacity:0.901;fill:#D8D8D8;}
	.st402{opacity:0.905;fill:#D9D9D9;}
	.st403{opacity:0.9089;fill:#DADADA;}
	.st404{opacity:0.9129;fill:#DCDCDC;}
	.st405{opacity:0.9168;fill:#DDDDDD;}
	.st406{opacity:0.9208;fill:#DEDEDE;}
	.st407{opacity:0.9248;fill:#DFDFDF;}
	.st408{opacity:0.9287;fill:#E0E0E0;}
	.st409{opacity:0.9327;fill:#E1E1E1;}
	.st410{opacity:0.9366;fill:#E2E2E2;}
	.st411{opacity:0.9406;fill:#E4E4E4;}
	.st412{opacity:0.9446;fill:#E5E5E5;}
	.st413{opacity:0.9485;fill:#E6E6E6;}
	.st414{opacity:0.9525;fill:#E7E7E7;}
	.st415{opacity:0.9564;fill:#E8E8E8;}
	.st416{opacity:0.9604;fill:#E9E9E9;}
	.st417{opacity:0.9644;fill:#EBEBEB;}
	.st418{opacity:0.9683;fill:#ECECEC;}
	.st419{opacity:0.9723;fill:#EDEDED;}
	.st420{opacity:0.9762;fill:#EEEEEE;}
	.st421{opacity:0.9802;fill:#EFEFEF;}
	.st422{opacity:0.9842;fill:#F0F0F0;}
	.st423{opacity:0.9881;fill:#F2F2F2;}
	.st424{opacity:0.9921;fill:#F3F3F3;}
	.st425{opacity:0.996;fill:#F4F4F4;}
	.st426{opacity:0.3;fill:url(#SVGID_00000167383987474323297960000015225698633846451367_);}
	.st427{opacity:0.3;fill:url(#SVGID_00000091719687726082887860000013508956653608679350_);}
	.st428{opacity:0.3;fill:url(#SVGID_00000169519727320674956900000016735289430733770660_);}
	.st429{fill:#E5E5EA;}
	.st430{opacity:0.55;}
	.st431{clip-path:url(#SVGID_00000067948140565778612460000005448620387469012141_);}
	.st432{fill:#72C21D;}
	.st433{fill:#E6A357;}
	.st434{clip-path:url(#SVGID_00000033348640244111321760000004963951455587200921_);}
	.st435{fill:#FFEC9D;stroke:#231815;stroke-width:5.1024;stroke-linecap:round;stroke-linejoin:round;stroke-miterlimit:10;}
	.st436{clip-path:url(#SVGID_00000128469775522732233430000007797628499528820887_);}
	.st437{fill:#FFFFFF;stroke:#231815;stroke-width:5.1024;stroke-linecap:round;stroke-linejoin:round;stroke-miterlimit:10;}
	.st438{fill:#C7FFFF;stroke:#231815;stroke-width:5.1024;stroke-linecap:round;stroke-linejoin:round;stroke-miterlimit:10;}
	.st439{fill:#FFFFFF;stroke:#231815;stroke-width:5.1024;stroke-miterlimit:10;}
	.st440{fill:#87CE4B;stroke:#231815;stroke-width:5.1024;stroke-miterlimit:10;}
	.st441{fill:#FFDD00;stroke:#231815;stroke-width:5.1024;stroke-miterlimit:10;}
	.st442{fill:#D6FFFF;stroke:#231815;stroke-width:5.1024;stroke-linecap:round;stroke-linejoin:round;stroke-miterlimit:10;}
	.st443{fill:#FFFFFF;stroke:#201D1E;stroke-width:5.1024;stroke-linecap:round;stroke-linejoin:round;stroke-miterlimit:10;}
	.st444{fill:#ADADAE;stroke:#201D1E;stroke-width:5.1024;stroke-linecap:round;stroke-linejoin:round;stroke-miterlimit:10;}
	
		.st445{fill-rule:evenodd;clip-rule:evenodd;fill:#FFFFFF;stroke:#201D1E;stroke-width:5.1024;stroke-linecap:round;stroke-linejoin:round;stroke-miterlimit:10;}
	
		.st446{fill-rule:evenodd;clip-rule:evenodd;fill:none;stroke:#201D1E;stroke-width:5.1024;stroke-linecap:round;stroke-linejoin:round;stroke-miterlimit:10;}
	.st447{fill:#FFDFA6;stroke:#000000;stroke-width:5.1024;stroke-linecap:round;stroke-linejoin:round;stroke-miterlimit:10;}
	.st448{fill:#EF6F00;stroke:#000000;stroke-width:5.1024;stroke-linecap:round;stroke-linejoin:round;stroke-miterlimit:10;}
	.st449{fill:#FFFFFF;stroke:#000000;stroke-width:5.1024;stroke-linecap:round;stroke-linejoin:round;stroke-miterlimit:10;}
	
		.st450{fill-rule:evenodd;clip-rule:evenodd;fill:#DECD96;stroke:#000000;stroke-width:5.1024;stroke-linecap:round;stroke-linejoin:round;stroke-miterlimit:10;}
	.st451{fill:#E6FFFF;stroke:#231815;stroke-width:5.1024;stroke-linecap:round;stroke-linejoin:round;stroke-miterlimit:10;}
	.st452{fill:#8FFFFF;stroke:#231815;stroke-width:5.1024;stroke-linecap:round;stroke-linejoin:round;stroke-miterlimit:10;}
	.st453{fill:#87CE4B;stroke:#231815;stroke-width:5.1024;stroke-linecap:round;stroke-linejoin:round;stroke-miterlimit:10;}
	.st454{fill:#FFDD00;stroke:#231815;stroke-width:5.1024;stroke-linecap:round;stroke-linejoin:round;stroke-miterlimit:10;}
	.st455{fill:#FFECBB;stroke:#231815;stroke-width:5.1024;stroke-linecap:round;stroke-linejoin:round;stroke-miterlimit:10;}
</style>
<g id="レイヤー_2">
</g>
<g id="写真">
</g>
<g id="レイヤー_1">
	<g>
		<defs>
			<rect id="SVGID_00000063592903378396898030000006766558690935756928_" x="6.45" y="23.45" width="299.08" height="234.99"/>
		</defs>
		<clipPath id="SVGID_00000008110161568859520550000015838580137262525857_">
			<use xlink:href="#SVGID_00000063592903378396898030000006766558690935756928_"  style="overflow:visible;"/>
		</clipPath>
		<g style="clip-path:url(#SVGID_00000008110161568859520550000015838580137262525857_);">
			<path class="st25" d="M170.95,230C170.95,230,170.95,230,170.95,230c-0.01,0.02-0.03,0.03-0.04,0.04
				c-0.07,0.08-0.14,0.14-0.22,0.22c-0.08,0.07-0.15,0.15-0.23,0.22c-0.01,0.01-0.02,0.02-0.04,0.03c-0.06,0.04-0.12,0.07-0.18,0.11
				c-0.1,0.06-0.2,0.13-0.3,0.18c-0.09,0.04-0.18,0.07-0.26,0.11c-0.1,0.04-0.19,0.08-0.29,0.11c-0.1,0.03-0.2,0.04-0.3,0.06
				c-0.1,0.02-0.19,0.04-0.29,0.05c-0.1,0.01-0.2,0.01-0.3,0.01c-0.1,0-0.2,0-0.3-0.01c-0.1-0.01-0.19-0.03-0.29-0.05
				c-0.1-0.02-0.2-0.03-0.3-0.06c-0.1-0.03-0.19-0.07-0.29-0.1c-0.09-0.04-0.18-0.07-0.27-0.11c-0.1-0.05-0.2-0.11-0.29-0.18
				c-0.06-0.04-0.13-0.07-0.19-0.11c-0.01-0.01-0.02-0.02-0.04-0.04c-0.08-0.06-0.15-0.14-0.22-0.21c-0.08-0.07-0.16-0.15-0.23-0.23
				c-0.01-0.01-0.02-0.02-0.04-0.03c0,0,0,0,0,0c-2.98-3.61-14.77-10.4-18.43-11.13c1.24,6.53,2.83,14.12,4.87,22.91
				c5.5,23.7,13.68,53.5,18.22,69.71c3.71-16.55,10.53-46.91,15.82-69.71c1.95-8.41,3.49-15.72,4.71-22.05
				c-0.51-0.45-0.95-0.78-1.31-0.93C186.71,219.1,174.04,226.26,170.95,230z M169.11,265.93c-1.3,0-2.34-1-2.34-2.23
				c0-1.23,1.05-2.23,2.34-2.23c1.29,0,2.34,1,2.34,2.23C171.45,264.93,170.4,265.93,169.11,265.93z M169.11,241.53
				c-1.3,0-2.34-1-2.34-2.23c0-1.23,1.05-2.23,2.34-2.23c1.29,0,2.34,1,2.34,2.23C171.45,240.53,170.4,241.53,169.11,241.53z"/>
			<g>
				<path class="st25" d="M201.26,216.34c-0.34-3.42-0.73-7.37-1.09-11.93c-0.2-2.56-0.39-5.31-0.56-8.27
					c-0.1-1.72-0.35-5.69-0.55-8.75l0,0c0-0.01,0-0.02,0-0.03c-0.08-1.24-0.15-2.33-0.2-3.05c-0.17-0.19-1.86-2.01-2.76-2.39
					c-0.12-0.05-0.24-0.11-0.37-0.16l0,0c-0.19-0.08-0.39-0.15-0.6-0.21c-0.02,0.35-0.05,0.74-0.08,1.13l0,0
					c-0.26,3.31-0.96,8.07-2.77,13.65c-1.77,5.47-6,12.61-10.52,19.24c1.8-0.88,3.52-1.6,5.04-2.08c1.28-0.4,2.42-0.64,3.32-0.64
					c0.76,0,2.44,0.34,4.01,1.49l0,0c1.2,0.84,2.45,2.03,3.8,3.51c1.22,1.34,2.51,2.91,3.92,4.72
					C201.7,220.72,201.49,218.64,201.26,216.34z"/>
				<path class="st25" d="M143.66,191.86c-0.53-2.17-0.89-4.15-1.14-5.9c0-0.02,0-0.03-0.01-0.05c-0.05-0.34-0.09-0.66-0.12-0.98
					c-0.13-1.09-0.22-2.08-0.28-2.95c-0.01-0.14-0.02-0.3-0.03-0.43c-0.31,0.1-0.61,0.21-0.87,0.33c-0.03,0.01-0.07,0.03-0.1,0.04
					c-0.05,0.02-0.1,0.06-0.15,0.08c-0.2,0.11-0.42,0.26-0.65,0.43c-0.68,0.52-1.41,1.24-1.97,1.88c-0.03,0.5-0.08,1.19-0.13,1.98
					c-0.17,2.54-0.4,6.17-0.55,8.48c-0.03,0.54-0.06,1.01-0.08,1.37c-0.46,8.2-1.12,14.85-1.65,20.19c-0.23,2.3-0.43,4.38-0.59,6.24
					c2.03-2.59,3.82-4.72,5.47-6.32c1.64-1.6,3.15-2.67,4.63-3.13c0.36-0.11,0.73-0.2,1.09-0.23c0.18-0.02,0.36-0.03,0.54-0.03
					c1.89,0,4.82,1.05,8.01,2.59c0.08,0.04,0.16,0.07,0.24,0.11c-4.42-6.55-8.61-13.69-10.4-19.22
					C144.42,194.78,144,193.28,143.66,191.86z"/>
			</g>
			<g>
				<path class="st3" d="M130.45,188.99l-7.96,37.65l6.37,1.6c-0.04-3.15,0.36-7.2,0.88-12.47c0.53-5.29,1.18-11.87,1.63-19.95
					c0.09-1.7,0.34-5.46,0.54-8.47c-0.49,0.11-0.99,0.22-1.5,0.34C130.52,188.11,130.54,188.55,130.45,188.99z"/>
				<path class="st3" d="M57.49,338.64c12.21,0.38,17.66-3.78,22.97-12.12l-0.02-9.4l-0.06-24.71l-0.08-30.05
					c0-2.01,1.71-3.65,3.82-3.66h0.01c2.11,0,3.82,1.63,3.83,3.64l0.16,63.42c0.05,0.32,0.06,0.65,0,0.98l0.04,16.15
					c20.4,1.95,40.78,4.14,61.2,5.98c6.87,0.62,13.74,1.12,20.61,1.55c0.78-0.85,1.92-1.4,3.2-1.4c1.48,0,2.78,0.71,3.55,1.8
					c14.07,0.76,28.14,1.19,42.27,1.48c5.36,0.11,10.74,0.21,16.14,0.33c-0.2-29.56-0.35-54.46-0.35-57.87
					c0-1.84,1.56-3.32,3.49-3.32c1.93,0,3.49,1.49,3.49,3.32c0,2.41,0.08,15.56,0.19,33.49c0.05,7.49,0.1,15.81,0.16,24.54
					c12.77,0.31,25.61,0.74,38.42,1.53c0.07-6.67,0.12-13.11,0.15-19.11c0.05-11.52,0.01-21.44-0.18-28.39c0-0.01,0-0.02,0-0.03
					c0-0.01,0-0.02,0-0.03c-0.53-50.89-22.07-78.49-22.29-78.76c-0.07-0.09-0.14-0.19-0.21-0.28
					c-11.4-17.44-28.11-27.82-42.02-33.84l7.26,34.34c0.33,1.54-0.66,3.05-2.26,3.45L210,234.42l8.45,9.78
					c0.73,0.84,0.91,2,0.48,3.01l-33.62,78.38c-0.49,1.15-1.65,1.84-2.88,1.84c-0.39,0-0.79-0.07-1.18-0.22
					c-1.59-0.62-2.35-2.35-1.7-3.87l32.91-76.74l-10.36-11.99c-0.61-0.7-0.82-1.63-0.62-2.51c-0.72-0.91-1.5-1.92-2.31-2.99
					c-0.73-0.96-1.7-2.22-2.75-3.55c-1.06,5.24-2.31,11.04-3.81,17.49c-7.6,32.78-18.39,81.19-18.5,81.67
					c-0.3,1.34-1.52,2.31-2.95,2.35c-0.03,0-0.06,0-0.09,0c-1.4,0-2.63-0.89-3-2.18c-0.14-0.47-13.69-47.5-21.66-81.84
					c-1.67-7.2-3.04-13.6-4.18-19.31c-1.59,1.92-3.16,3.97-4.23,5.37c-0.42,0.55-0.83,1.08-1.23,1.6c0.31,0.31,0.56,0.68,0.7,1.1
					c0.33,0.96,0.12,2.01-0.56,2.8l-10.32,11.94l35.22,75.31c0.7,1.5-0.01,3.25-1.58,3.91c-0.41,0.18-0.84,0.26-1.26,0.26
					c-1.19,0-2.33-0.66-2.84-1.76l-36-76.99c-0.48-1.03-0.31-2.22,0.44-3.09l8.45-9.78l-10.97-2.75c-1.59-0.4-2.58-1.91-2.26-3.45
					l8.17-38.66c-1.71,0.58-3.48,1.25-5.3,2.03c-19.27,8.25-35.31,24.69-46.4,47.57c-0.35,0.72-0.92,1.28-1.6,1.64
					c0.56,13.04,1.6,34.95,2.29,49.26c0.32,6.71,0.57,11.75,0.65,13.4c0.08,1.54-1.17,2.84-2.78,2.91c-0.05,0-0.09,0-0.14,0
					c-1.55,0-2.84-1.16-2.92-2.66c-0.23-4.77-1.84-37.82-2.73-57.97c-0.16-3.68-0.3-6.93-0.4-9.5c-4.5,0.41-14.46,1.2-23.48,1.2
					c-3.61,0-7.07-0.13-9.97-0.46c0.03,4.16-0.01,10.38-0.05,17.67c-0.11,16.61-0.24,37.28,0.36,49.47
					C31.86,311.51,34.8,335.76,57.49,338.64z"/>
				<path class="st3" d="M207.46,215.78c0.55,5.54,0.96,9.72,0.87,12.93l8.22-2.06l-7.51-35.52c-1.24-0.45-2.44-0.86-3.59-1.24
					c0.15,2.35,0.3,4.7,0.37,5.95C206.28,203.91,206.93,210.49,207.46,215.78z"/>
			</g>
			<g>
				<path class="st26" d="M188.84,182.14c-0.65-0.66-1.06-1.55-1.05-2.53l0.05-6.7c-7.21,3.08-14.33,4.64-21.43,4.64
					c-5.88,0-11.74-1.07-17.64-3.18l0.1,7.89c0,0.05-0.01,0.09-0.01,0.14c0,0.05,0.01,0.09,0.01,0.14
					c-0.01,0.08-0.03,0.15-0.04,0.22c-0.02,0.13-0.04,0.25-0.07,0.38c-0.03,0.11-0.06,0.21-0.1,0.32c-0.04,0.12-0.08,0.23-0.14,0.35
					c0.32,2.82,0.98,6.54,2.35,10.79c2.54,7.86,11.17,20.43,17.63,28.69c6.07-7.74,15.21-20.59,17.82-28.69
					C187.99,189.45,188.61,185.08,188.84,182.14z"/>
				<path class="st26" d="M224.68,103.19c-0.15-0.13-0.59-0.54-1.69-0.43c-1.41,0.14-2.98,1.06-3.81,2.24
					c-1.1,1.56-3.23,2.03-4.93,1.19c-28.05-7.95-48.87-25.34-61.88-39.34c-16.27,7.17-22.46,18.25-27.48,27.24
					c-2.4,4.29-4.5,8.02-7.33,10.83c-0.28,0.42-0.64,0.79-1.1,1.08c-1.76,1.12-4.13,0.68-5.31-1c-0.83-1.18-2.4-2.1-3.81-2.24
					c-1.1-0.11-1.54,0.3-1.69,0.43c-0.79,0.73-1.66,2.19-2.03,3.39c-1.74,5.74,0.19,12.57,5.31,18.72c1.02,1.22,1.59,1.63,2.8,1.97
					c0.73,0.2,1.53,0.28,2.13,0.3c0.47-0.43,1.05-0.77,1.73-0.93c2.05-0.48,4.13,0.71,4.64,2.67c1.63,6.28,8.27,27.41,25.33,35.76
					c13.69,6.7,27.05,6.86,40.83,0.47c18.83-8.73,23.2-27.21,24.2-34.75l0.04-0.3c0-0.01,0-0.01,0.01-0.02
					c0.02-0.11,0.05-0.21,0.08-0.32c0.03-0.14,0.06-0.27,0.11-0.4c0-0.01,0-0.01,0-0.02c0.03-0.07,0.07-0.13,0.1-0.19
					c0.07-0.15,0.14-0.3,0.22-0.44c0.06-0.1,0.14-0.18,0.21-0.27c0.08-0.1,0.15-0.2,0.24-0.3c0.09-0.09,0.19-0.17,0.28-0.25
					c0.09-0.08,0.17-0.16,0.27-0.23c0.1-0.07,0.2-0.12,0.3-0.18c0.11-0.06,0.21-0.13,0.33-0.18c0.1-0.05,0.21-0.08,0.32-0.11
					c0.12-0.04,0.25-0.1,0.38-0.13c0.12-0.03,0.24-0.04,0.37-0.06c0.12-0.02,0.24-0.05,0.36-0.05c0.16-0.01,0.32,0,0.48,0.01
					c0.09,0.01,0.17,0,0.26,0.01c0.01,0,0.01,0,0.02,0.01c0.13,0.02,0.25,0.06,0.38,0.09c0.13,0.03,0.26,0.05,0.38,0.09
					c0.01,0,0.01,0,0.02,0c0.31,0.07,1.68,0.06,2.87-0.27c1.21-0.34,1.78-0.74,2.8-1.96c5.12-6.15,7.05-12.97,5.31-18.72
					C226.35,105.37,225.47,103.92,224.68,103.19z M143.22,120.56c-3-0.24-4.79-2.68-4.29-7.99c0.37-3.98,2.57-6.17,4.66-6.25
					c1.34-0.05,4.49,1.47,4.34,6.96C147.79,118.56,145.67,120.76,143.22,120.56z M150.31,103.97c-0.61,0.96-1.93,1.26-2.93,0.68
					c-1.55-0.9-5.92-1.14-8.41,1.62c-0.42,0.47-1.02,0.71-1.62,0.71c-0.49,0-0.99-0.16-1.39-0.49c-0.89-0.73-0.99-2.02-0.23-2.87
					c4.01-4.43,10.74-4.26,13.87-2.44C150.61,101.77,150.93,103.02,150.31,103.97z M159.38,125.12c0.3-1.13,0.57-2.17,0.74-2.87
					c0.26-1.09,1.41-1.78,2.55-1.53c1.15,0.25,1.87,1.34,1.61,2.43c-0.17,0.72-0.46,1.8-0.76,2.96c-0.49,1.83-1.3,4.9-1.34,5.54
					c-0.01,0.43,0.15,0.61,0.3,0.71c0.28,0.2,0.69,0.24,0.93,0.17c1.12-0.34,2.32,0.25,2.68,1.32c0.36,1.07-0.26,2.21-1.39,2.55
					c-0.5,0.15-1.03,0.23-1.55,0.23c-1.15,0-2.3-0.35-3.23-1.02c-1.33-0.95-2.04-2.4-2-4.08
					C157.94,130.71,158.37,128.96,159.38,125.12z M173.31,150.55c-1.79,1.22-4.98,1.89-8.28,1.89c-3.42,0-6.95-0.73-9.16-2.33
					c-0.94-0.68-1.11-1.96-0.4-2.85c0.71-0.89,2.05-1.06,2.99-0.38c2.87,2.09,10.29,1.78,12.38,0.36c0.96-0.65,2.29-0.44,2.97,0.47
					C174.49,148.63,174.27,149.9,173.31,150.55z M183.14,121.93c-2.46-0.05-4.32-2.44-3.88-7.7c0.45-5.48,3.75-6.68,5.08-6.49
					c2.07,0.29,4.02,2.68,3.95,6.68C188.2,119.75,186.15,121.99,183.14,121.93z M193.76,107.9c-0.38,0.26-0.82,0.39-1.25,0.39
					c-0.66,0-1.31-0.29-1.73-0.84c-2.25-2.95-6.63-3.04-8.25-2.26c-1.05,0.51-2.33,0.1-2.86-0.9c-0.53-1-0.11-2.22,0.94-2.73
					c3.27-1.57,10-1.23,13.61,3.5C194.93,105.97,194.72,107.24,193.76,107.9z"/>
				<path class="st26" d="M39.28,188.75c0.57,0.53,1.52,0.73,2.27,0.48c0.75-0.26,1.35-0.99,1.43-1.74c0.02-0.23,0.1-0.44,0.19-0.64
					c-0.51-0.86-0.76-1.8-0.95-2.71c-0.62-3.02-1.02-6.32-1.16-9.43c-0.45-0.32-0.81-0.76-1-1.29c-0.32-0.29-1.02-0.66-1.46-0.64
					c-0.6,0.03-1.32,0.94-1.48,1.87c-0.07,0.43-0.25,0.82-0.5,1.16c0.08,3.31,0.61,8.82,1.58,11.13
					C38.49,187.62,38.82,188.32,39.28,188.75z"/>
				<path class="st26" d="M47.18,185.07c0.3,0.32,0.5,0.33,0.57,0.33c0.36,0.01,0.8-0.23,1.25-0.64c0.02-0.02,0.05-0.04,0.07-0.06
					c-0.05-0.16-0.09-0.3-0.13-0.41c-1.15-3.64-3.33-12.35,1.25-14.63c1.73-0.86,3.54-1.03,5.26-0.52c-1.4-1.72-3.25-2.59-5.51-2.55
					c-2.58,0.04-4.23,2.36-4.21,5.89c0,0.46-0.12,0.89-0.33,1.28c0.09,3.13,0.47,6.5,1.11,9.58
					C46.67,184.02,46.85,184.71,47.18,185.07z"/>
				<path class="st26" d="M31.12,190.21c0.67,0.2,1.55,0.17,2.27-0.12c0.25-0.11,0.86-0.4,0.97-0.88c0.01-0.04,0.03-0.08,0.04-0.12
					c-0.09-0.2-0.19-0.41-0.27-0.61c-1.28-3.07-1.78-9.05-1.88-12.24c-0.1-0.09-0.2-0.19-0.29-0.29c-0.28-0.33-0.62-0.48-1.07-0.48
					c0,0,0,0-0.01,0c-0.47,0-1.9,0.01-1.9,2.68c0.01,7.75,1.78,10.99,1.79,11.03C30.97,189.49,31.08,189.84,31.12,190.21z"/>
				<path class="st26" d="M68.42,149.69c-0.05-0.85-0.4-5.09-2.6-5.13c-0.58-0.01-0.99,0.15-1.38,0.53
					c-0.91,0.9-1.44,2.81-1.34,4.87c0.26,5.42,0.16,9.29,0.05,13.38c-0.07,2.57-0.14,5.24-0.12,8.46c0.01,1.06-0.62,2-1.57,2.47
					c1.45,2.18,2.58,4.62,3.48,6.58c0.32,0.7,0.6,1.31,0.85,1.79c0.53,1.04,0.08,2.29-1,2.8c-1.09,0.51-2.4,0.08-2.93-0.95
					c-0.27-0.52-0.58-1.19-0.93-1.95c-1.36-2.95-3.89-8.45-6.69-9.39c-0.44-0.15-1.06-0.25-2.01,0.22
					c-0.75,0.66-0.52,5.16,0.92,9.73c0.55,1.76,2.41,8.28,2.49,8.55c0.01,0.04,0.01,0.08,0.02,0.12c0.02,0.08,0.03,0.15,0.04,0.23
					c0.01,0.07,0.01,0.13,0.01,0.19c0,0.07,0,0.14-0.01,0.2c-0.01,0.07-0.02,0.14-0.03,0.21c-0.01,0.06-0.03,0.12-0.05,0.19
					c-0.02,0.07-0.05,0.13-0.07,0.19c-0.03,0.06-0.05,0.12-0.08,0.18c-0.03,0.06-0.07,0.12-0.11,0.17
					c-0.04,0.06-0.08,0.11-0.12,0.16c-0.05,0.05-0.1,0.11-0.15,0.16c-0.05,0.05-0.09,0.09-0.14,0.13c-0.06,0.05-0.13,0.09-0.2,0.14
					c-0.04,0.02-0.06,0.05-0.1,0.07c-0.09,0.05-4.63,2.73-5.42,7.6c-0.17,1.03-1.1,1.77-2.16,1.77c-0.11,0-0.22-0.01-0.34-0.03
					c-1.2-0.18-2.02-1.24-1.83-2.38c0.8-4.93,4.17-8.13,6.11-9.61c-0.19-0.67-0.43-1.51-0.69-2.39c-0.82,0.41-1.68,0.62-2.54,0.62
					c-0.06,0-0.13,0-0.19,0c-0.22-0.01-0.44-0.05-0.66-0.09c-0.68,1.68-2.11,3.07-3.91,3.68c-0.7,0.24-1.43,0.35-2.16,0.35
					c-1.27,0-2.53-0.35-3.61-0.99c-0.57,0.57-1.29,1.05-2.12,1.4c-0.98,0.4-2.05,0.6-3.1,0.6c-0.52,0-1.03-0.06-1.52-0.16
					c-0.51,3.5-0.98,9.1,0.35,13.02c1.98,5.84,2.92,6.51,4.78,7.85c0.21,0.15,0.43,0.31,0.66,0.48c0.29,0.21,0.51,0.47,0.69,0.74
					c0.54,0.27,1,0.66,1.35,1.14c0.47,0.63,0.74,1.4,0.7,2.23c0,0.08-0.28,6.59-0.38,10.95c8.1,0.14,18.31-0.52,24.22-1.04
					c0.29-4.61,0.7-9.76,1.42-14.35c0.55-3.54,1.29-6.74,2.29-9.08c5.65-13.17,3.39-38.5,2.31-50.67
					C68.68,153.13,68.5,151.15,68.42,149.69z"/>
			</g>
			<g>
				<path class="st27" d="M159.91,135.62c0.93,0.67,2.08,1.02,3.23,1.02c0.53,0,1.05-0.07,1.55-0.23c1.12-0.34,1.74-1.48,1.39-2.55
					c-0.36-1.07-1.56-1.66-2.68-1.32c-0.24,0.07-0.65,0.03-0.93-0.17c-0.14-0.1-0.31-0.28-0.3-0.71c0.05-0.64,0.86-3.71,1.34-5.54
					c0.31-1.16,0.59-2.24,0.76-2.96c0.26-1.09-0.46-2.18-1.61-2.43c-1.15-0.25-2.29,0.44-2.55,1.53c-0.17,0.7-0.44,1.74-0.74,2.87
					c-1.02,3.85-1.45,5.59-1.47,6.42C157.87,133.21,158.58,134.66,159.91,135.62z"/>
				<path class="st27" d="M143.6,106.32c-2.09,0.08-4.29,2.27-4.66,6.25c-0.5,5.31,1.29,7.75,4.29,7.99c2.45,0.2,4.56-2,4.71-7.27
					C148.09,107.79,144.94,106.27,143.6,106.32z"/>
				<path class="st27" d="M137.35,106.98c0.6,0,1.2-0.24,1.62-0.71c2.49-2.76,6.86-2.52,8.41-1.62c1.01,0.58,2.32,0.28,2.93-0.68
					c0.61-0.96,0.3-2.21-0.71-2.79c-3.13-1.82-9.86-2-13.87,2.44c-0.77,0.85-0.67,2.13,0.23,2.87
					C136.37,106.81,136.86,106.98,137.35,106.98z"/>
				<path class="st27" d="M183.14,121.93c3.01,0.06,5.06-2.18,5.15-7.52c0.07-3.99-1.88-6.39-3.95-6.68
					c-1.33-0.18-4.63,1.01-5.08,6.49C178.82,119.48,180.69,121.88,183.14,121.93z"/>
				<path class="st27" d="M182.54,105.19c1.62-0.78,5.99-0.68,8.25,2.26c0.42,0.55,1.07,0.84,1.73,0.84c0.43,0,0.87-0.13,1.25-0.39
					c0.95-0.66,1.16-1.93,0.47-2.84c-3.61-4.73-10.34-5.07-13.61-3.5c-1.05,0.5-1.47,1.73-0.94,2.73
					C180.21,105.29,181.48,105.69,182.54,105.19z"/>
				<path class="st27" d="M155.87,150.11c2.21,1.61,5.74,2.33,9.16,2.33c3.3,0,6.49-0.68,8.28-1.89c0.96-0.65,1.18-1.92,0.5-2.83
					c-0.68-0.91-2.02-1.12-2.97-0.47c-2.08,1.42-9.51,1.73-12.38-0.36c-0.94-0.68-2.28-0.51-2.99,0.38
					C154.76,148.16,154.93,149.43,155.87,150.11z"/>
				<path class="st27" d="M169.11,237.06c-1.3,0-2.34,1-2.34,2.23c0,1.23,1.05,2.23,2.34,2.23c1.29,0,2.34-1,2.34-2.23
					C171.45,238.06,170.4,237.06,169.11,237.06z"/>
				<path class="st27" d="M169.11,261.46c-1.3,0-2.34,1-2.34,2.23c0,1.23,1.05,2.23,2.34,2.23c1.29,0,2.34-1,2.34-2.23
					C171.45,262.46,170.4,261.46,169.11,261.46z"/>
				<path class="st27" d="M53.05,128.06c0.23,0.5,0.74,0.8,1.28,0.8c0.19,0,0.38-0.04,0.56-0.11c0.71-0.29,1.03-1.08,0.72-1.75
					l-3.22-7.02c-0.31-0.67-1.13-0.98-1.84-0.69c-0.71,0.29-1.03,1.08-0.72,1.75L53.05,128.06z"/>
				<path class="st27" d="M75,127.41c0.22,0.12,0.45,0.17,0.69,0.17c0.48,0,0.96-0.24,1.21-0.67l3.97-6.66
					c0.38-0.64,0.15-1.45-0.52-1.81c-0.67-0.36-1.52-0.14-1.9,0.5l-3.97,6.66C74.1,126.24,74.33,127.05,75,127.41z"/>
				<path class="st27" d="M65.4,126.73c0.01,0,0.01,0,0.02,0c0.76,0,1.39-0.58,1.4-1.31l0.1-7.66c0.01-0.73-0.61-1.34-1.38-1.35
					c-0.77-0.01-1.4,0.58-1.41,1.31l-0.1,7.66C64.01,126.12,64.63,126.72,65.4,126.73z"/>
				<path class="st27" d="M25.3,209.1c2.22,6.55,3.81,8.33,6.15,10.09c-0.02,0.11-0.05,0.22-0.05,0.34
					c-0.01,0.32-0.27,6.35-0.38,10.74c-0.91-0.13-1.7-0.29-2.36-0.49c-0.08-0.02-0.16-0.03-0.24-0.05
					c-0.12-0.03-0.23-0.05-0.35-0.07c-0.13-0.02-0.25-0.02-0.38-0.02c-0.08,0-0.15-0.02-0.22-0.01c-0.03,0-0.05,0.01-0.08,0.01
					c-0.13,0.01-0.26,0.03-0.39,0.06c-0.1,0.02-0.2,0.03-0.29,0.06c-0.12,0.03-0.22,0.07-0.33,0.12c-0.1,0.04-0.2,0.07-0.3,0.12
					c-0.1,0.05-0.2,0.11-0.29,0.17c-0.09,0.06-0.19,0.11-0.27,0.17c-0.09,0.07-0.18,0.15-0.26,0.23c-0.08,0.07-0.15,0.13-0.22,0.21
					c-0.08,0.08-0.14,0.18-0.21,0.27c-0.06,0.09-0.13,0.17-0.19,0.26c-0.05,0.08-0.09,0.18-0.13,0.27
					c-0.05,0.11-0.11,0.22-0.15,0.34c-0.01,0.03-0.02,0.05-0.03,0.07c-0.02,0.07-0.03,0.14-0.04,0.21
					c-0.03,0.12-0.06,0.24-0.08,0.36c-0.02,0.12-0.02,0.23-0.02,0.35c0,0.07-0.02,0.15-0.01,0.22c0.15,2.92,0.09,11.53,0.03,21.5
					c-0.11,16.69-0.24,37.45,0.36,49.82c0.62,12.82,5.37,26.76,16.21,34.68c10.4,0.6,20.79,1.4,31.17,2.3c1,0.09,2,0.18,3,0.27
					c2.06-1.16,3.91-2.57,5.59-4.21l0.01,4.72c2.55,0.23,5.11,0.48,7.66,0.72l-0.04-16.15c0.05-0.33,0.05-0.66,0-0.98l-0.16-63.42
					c-0.01-2.01-1.72-3.64-3.83-3.64h-0.01c-2.11,0.01-3.83,1.64-3.82,3.66l0.08,30.05l0.06,24.71l0.02,9.4
					c-5.32,8.34-10.76,12.49-22.97,12.12c-22.69-2.88-25.63-27.14-25.99-34.52c-0.59-12.19-0.46-32.86-0.36-49.47
					c0.05-7.29,0.09-13.51,0.05-17.67c2.9,0.33,6.36,0.46,9.97,0.46c9.02,0,18.98-0.79,23.48-1.2c0.1,2.57,0.24,5.82,0.4,9.5
					c0.89,20.16,2.5,53.2,2.73,57.97c0.07,1.49,1.37,2.66,2.92,2.66c0.05,0,0.09,0,0.14,0c1.61-0.07,2.86-1.37,2.78-2.91
					c-0.08-1.65-0.33-6.69-0.65-13.4c-0.69-14.3-1.73-36.22-2.29-49.26c0.68-0.36,1.25-0.92,1.6-1.64
					c11.09-22.87,27.13-39.32,46.4-47.57c1.82-0.78,3.59-1.45,5.3-2.03l-8.17,38.66c-0.33,1.54,0.66,3.05,2.26,3.45l10.97,2.75
					l-8.45,9.78c-0.75,0.87-0.92,2.06-0.44,3.09l36,76.99c0.52,1.1,1.65,1.76,2.84,1.76c0.42,0,0.85-0.08,1.26-0.26
					c1.57-0.67,2.27-2.42,1.58-3.91l-35.22-75.31l10.32-11.94c0.67-0.78,0.88-1.83,0.56-2.8c-0.14-0.42-0.39-0.79-0.7-1.1
					c0.4-0.52,0.81-1.05,1.23-1.6c1.07-1.39,2.64-3.45,4.23-5.37c1.13,5.7,2.51,12.11,4.18,19.31
					c7.97,34.34,21.52,81.37,21.66,81.84c0.37,1.29,1.6,2.18,3,2.18c0.03,0,0.06,0,0.09,0c1.43-0.04,2.65-1.01,2.95-2.35
					c0.11-0.49,10.89-48.9,18.5-81.67c1.5-6.45,2.75-12.25,3.81-17.49c1.05,1.32,2.02,2.59,2.75,3.55c0.81,1.06,1.59,2.08,2.31,2.99
					c-0.2,0.88,0.01,1.81,0.62,2.51l10.36,11.99l-32.91,76.74c-0.65,1.52,0.11,3.25,1.7,3.87c0.39,0.15,0.78,0.22,1.18,0.22
					c1.23,0,2.39-0.69,2.88-1.84l33.62-78.38c0.43-1.01,0.25-2.16-0.48-3.01l-8.45-9.78l10.97-2.75c1.59-0.4,2.58-1.91,2.26-3.45
					l-7.26-34.34c13.91,6.02,30.62,16.4,42.02,33.84c0.06,0.1,0.13,0.19,0.21,0.28c0.22,0.27,21.76,27.87,22.29,78.76
					c0,0.01,0,0.02,0,0.03c0,0.01,0,0.02,0,0.03c0.19,6.95,0.23,16.87,0.18,28.39c-0.03,6-0.08,12.44-0.15,19.11
					c2.55,0.16,5.1,0.33,7.65,0.52c0.21-19.74,0.27-37.46-0.03-48.21c0,0,0,0,0,0c-0.56-52.05-21.75-80.36-23.74-82.91
					c-11.29-17.2-27.22-27.99-41.25-34.66c0.63-8.85,2.32-36.77,3.14-57.26c0.01-0.23-0.01-0.46-0.05-0.68
					c0.42-0.42,0.81-0.85,1.17-1.29c6.68-8.02,9.1-17.24,6.66-25.28c-0.74-2.45-2.3-4.98-4.06-6.61c-0.59-0.54-1.24-0.99-1.94-1.36
					c1.52-11.65-4.74-31.42-10.28-40.82c-9.16-15.52-23.67-25.01-44.34-29.02c-32.47-6.29-57.2,15.22-66.44,37.87
					c-4.1,10.04-5.62,24.01-4.63,31.92c-0.74,0.38-1.43,0.84-2.05,1.41c-1.76,1.62-3.31,4.15-4.06,6.61
					c-2.44,8.04-0.01,17.25,6.66,25.28c1.02,1.22,2.22,2.44,4.01,3.39c0.45,5.2,0.74,13.4,1.04,22.08
					c0.39,10.98,0.82,23.37,1.69,32.45c-12.75,6.69-28.25,19-40.78,41.53c-0.04-0.02-0.08-0.04-0.11-0.06
					c0.32-5.03,1.15-15.94,3.23-20.79c6.18-14.41,3.93-39.68,2.72-53.25c-0.21-2.36-0.39-4.41-0.47-5.78
					c-0.36-6.44-3.48-10.33-8.35-10.4c-2.17-0.03-4.15,0.73-5.66,2.22c-2.07,2.04-3.16,5.32-2.98,9c0.25,5.2,0.15,8.96,0.05,12.93
					c-2.12-1.44-4.68-2.18-7.47-2.13c-4.29,0.07-7.62,2.59-9.11,6.52c-0.79-0.23-1.6-0.35-2.39-0.32c-2.34,0.1-4.21,1.31-5.43,2.95
					c-0.65-0.18-1.32-0.27-2.05-0.26c-4.62,0.02-7.73,3.33-7.72,8.25c0.01,6.94,1.28,10.94,2.03,12.71
					C24.61,193.77,23.14,202.76,25.3,209.1z M131.38,195.83c-0.45,8.08-1.11,14.66-1.63,19.95c-0.52,5.27-0.92,9.32-0.88,12.47
					l-6.37-1.6l7.96-37.65c0.09-0.44,0.07-0.88-0.04-1.29c0.51-0.12,1.01-0.24,1.5-0.34C131.71,190.37,131.47,194.14,131.38,195.83z
					 M146.53,212.89c-0.36,0.04-0.72,0.12-1.09,0.23c-1.47,0.46-2.98,1.53-4.63,3.13c-1.65,1.61-3.44,3.74-5.47,6.32
					c0.15-1.86,0.36-3.94,0.59-6.24c0.53-5.34,1.19-11.99,1.65-20.19c0.02-0.36,0.05-0.84,0.08-1.37c0.14-2.31,0.38-5.94,0.55-8.48
					c0.05-0.79,0.1-1.48,0.13-1.98c0.56-0.64,1.29-1.36,1.97-1.88c0.23-0.17,0.44-0.32,0.65-0.43c0.05-0.03,0.1-0.06,0.15-0.08
					c0.03-0.02,0.07-0.03,0.1-0.04c0.26-0.12,0.56-0.23,0.87-0.33c0.01,0.13,0.02,0.29,0.03,0.43c0.06,0.87,0.15,1.85,0.28,2.95
					c0.04,0.32,0.08,0.64,0.12,0.98c0,0.02,0,0.03,0.01,0.05c0.25,1.75,0.61,3.74,1.14,5.9c0.35,1.42,0.77,2.92,1.27,4.48
					c1.79,5.53,5.98,12.68,10.4,19.22c-0.08-0.04-0.16-0.08-0.24-0.11c-3.19-1.55-6.12-2.59-8.01-2.59
					C146.9,212.86,146.72,212.87,146.53,212.89z M148.86,182.4c0-0.05,0.01-0.09,0.01-0.14l-0.1-7.89
					c5.9,2.11,11.77,3.18,17.64,3.18c7.1,0,14.22-1.56,21.43-4.64l-0.05,6.7c-0.01,0.98,0.4,1.87,1.05,2.53
					c-0.23,2.94-0.85,7.31-2.51,12.45c-2.62,8.1-11.75,20.95-17.82,28.69c-6.46-8.27-15.1-20.84-17.63-28.69
					c-1.37-4.25-2.03-7.97-2.35-10.79c0.05-0.11,0.1-0.23,0.14-0.35c0.04-0.1,0.07-0.21,0.1-0.32c0.03-0.12,0.05-0.25,0.07-0.38
					c0.01-0.07,0.03-0.14,0.04-0.22C148.87,182.49,148.86,182.45,148.86,182.4z M186.55,241.78c-5.29,22.8-12.12,53.16-15.82,69.71
					c-4.55-16.21-12.73-46.01-18.22-69.71c-2.04-8.8-3.63-16.38-4.87-22.91c3.66,0.73,15.45,7.52,18.43,11.13c0,0,0,0,0,0
					c0.01,0.01,0.02,0.02,0.04,0.03c0.07,0.08,0.15,0.15,0.23,0.23c0.07,0.07,0.14,0.14,0.22,0.21c0.01,0.01,0.02,0.02,0.04,0.04
					c0.06,0.04,0.13,0.07,0.19,0.11c0.1,0.06,0.19,0.13,0.29,0.18c0.09,0.04,0.18,0.08,0.27,0.11c0.1,0.04,0.19,0.08,0.29,0.1
					c0.1,0.03,0.2,0.04,0.3,0.06c0.1,0.02,0.19,0.04,0.29,0.05c0.1,0.01,0.2,0.01,0.3,0.01c0.1,0,0.2,0,0.3-0.01
					c0.1-0.01,0.19-0.03,0.29-0.05c0.1-0.02,0.2-0.03,0.3-0.06c0.1-0.03,0.19-0.07,0.29-0.11c0.09-0.03,0.18-0.07,0.26-0.11
					c0.1-0.05,0.2-0.12,0.3-0.18c0.06-0.04,0.12-0.07,0.18-0.11c0.01-0.01,0.02-0.02,0.04-0.03c0.08-0.06,0.16-0.14,0.23-0.22
					c0.07-0.07,0.15-0.14,0.22-0.22c0.01-0.01,0.03-0.02,0.04-0.04c0,0,0,0,0,0c3.09-3.74,15.76-10.9,18.99-11.2
					c0.35,0.15,0.8,0.48,1.31,0.93C190.03,226.06,188.5,233.37,186.55,241.78z M197.93,217.86c-1.35-1.49-2.6-2.67-3.8-3.52
					c-0.58-0.41-1.15-0.73-1.71-0.97c-0.78-0.34-1.54-0.52-2.3-0.52c-0.9,0-2.04,0.24-3.32,0.64c-1.52,0.48-3.24,1.2-5.04,2.08
					c4.52-6.63,8.75-13.77,10.52-19.24c1.8-5.59,2.51-10.35,2.77-13.65c0.03-0.4,0.06-0.78,0.08-1.13c0.21,0.06,0.41,0.14,0.6,0.21
					c0.13,0.05,0.26,0.1,0.37,0.16c0.66,0.33,1.51,1.07,2.22,1.81c0.19,0.2,0.37,0.39,0.54,0.58c0.05,0.72,0.12,1.81,0.2,3.05
					c0,0.01,0,0.02,0,0.03c0.2,3.06,0.46,7.03,0.55,8.75c0.17,2.96,0.36,5.7,0.56,8.27c0.36,4.55,0.75,8.51,1.09,11.92
					c0.23,2.3,0.44,4.38,0.59,6.24C200.44,220.78,199.14,219.2,197.93,217.86z M216.55,226.65l-8.22,2.06
					c0.09-3.21-0.32-7.39-0.87-12.93c-0.53-5.29-1.18-11.87-1.63-19.95c-0.07-1.24-0.22-3.59-0.37-5.95
					c1.15,0.38,2.35,0.79,3.59,1.24L216.55,226.65z M108.93,125.29c-5.12-6.15-7.05-12.97-5.31-18.72c0.37-1.2,1.24-2.66,2.03-3.39
					c0.15-0.13,0.59-0.54,1.69-0.43c1.41,0.14,2.98,1.06,3.81,2.24c1.18,1.67,3.56,2.12,5.31,1c0.46-0.29,0.82-0.66,1.1-1.08
					c2.83-2.81,4.93-6.54,7.33-10.83c5.02-8.98,11.21-20.06,27.48-27.24c13.02,13.99,33.84,31.39,61.88,39.34
					c1.7,0.84,3.83,0.37,4.93-1.19c0.83-1.18,2.4-2.1,3.81-2.24c1.1-0.11,1.54,0.3,1.69,0.43c0.79,0.73,1.66,2.19,2.03,3.39
					c1.74,5.75-0.19,12.57-5.31,18.72c-1.02,1.22-1.59,1.63-2.8,1.96c-1.18,0.33-2.56,0.34-2.87,0.27c-0.01,0-0.01,0-0.02,0
					c-0.12-0.04-0.26-0.06-0.38-0.09c-0.13-0.03-0.25-0.07-0.38-0.09c-0.01,0-0.01,0-0.02-0.01c-0.09-0.01-0.17,0-0.26-0.01
					c-0.16-0.01-0.32-0.02-0.48-0.01c-0.12,0.01-0.24,0.03-0.36,0.05c-0.12,0.02-0.25,0.03-0.37,0.06
					c-0.13,0.03-0.25,0.08-0.38,0.13c-0.11,0.04-0.21,0.07-0.31,0.11c-0.11,0.05-0.22,0.12-0.33,0.18c-0.1,0.06-0.21,0.11-0.3,0.18
					c-0.1,0.07-0.18,0.15-0.27,0.23c-0.09,0.08-0.19,0.16-0.28,0.25c-0.09,0.09-0.16,0.2-0.24,0.3c-0.07,0.09-0.15,0.17-0.21,0.27
					c-0.09,0.14-0.15,0.29-0.22,0.44c-0.03,0.07-0.07,0.13-0.1,0.19c0,0.01,0,0.01,0,0.02c-0.05,0.13-0.07,0.27-0.11,0.4
					c-0.03,0.11-0.06,0.21-0.08,0.32c0,0.01,0,0.01-0.01,0.02l-0.04,0.3c-1,7.54-5.37,26.02-24.2,34.75
					c-13.78,6.39-27.14,6.23-40.83-0.47c-17.06-8.35-23.7-29.48-25.33-35.76c-0.51-1.96-2.58-3.15-4.64-2.67
					c-0.68,0.16-1.26,0.5-1.73,0.93c-0.6-0.01-1.4-0.09-2.13-0.3C110.52,126.92,109.94,126.52,108.93,125.29z M45.74,172.47
					c-0.03-3.54,1.62-5.85,4.21-5.89c2.26-0.04,4.11,0.83,5.51,2.55c-1.72-0.51-3.53-0.34-5.26,0.52
					c-4.57,2.28-2.4,10.99-1.25,14.63c0.04,0.12,0.08,0.26,0.13,0.41c-0.02,0.02-0.05,0.03-0.07,0.06
					c-0.45,0.42-0.88,0.65-1.25,0.64c-0.07,0-0.27-0.01-0.57-0.33c-0.34-0.36-0.52-1.05-0.66-1.73c-0.64-3.08-1.01-6.46-1.11-9.58
					C45.62,173.37,45.75,172.93,45.74,172.47z M37.13,174.64c0.16-0.94,0.88-1.85,1.48-1.87c0.44-0.02,1.14,0.36,1.46,0.64
					c0.19,0.52,0.55,0.96,1,1.29c0.14,3.12,0.54,6.41,1.16,9.43c0.19,0.91,0.44,1.84,0.95,2.71c-0.09,0.2-0.17,0.41-0.19,0.64
					c-0.08,0.75-0.68,1.49-1.43,1.74c-0.75,0.26-1.7,0.05-2.27-0.48c-0.46-0.43-0.79-1.13-1.07-1.81c-0.96-2.31-1.5-7.82-1.58-11.13
					C36.88,175.47,37.06,175.07,37.13,174.64z M37.26,192.52c1.07,0.65,2.34,0.99,3.61,0.99c0.73,0,1.47-0.12,2.16-0.35
					c1.79-0.61,3.22-2,3.91-3.68c0.22,0.04,0.43,0.08,0.66,0.09c0.06,0,0.13,0,0.19,0c0.87,0,1.72-0.22,2.54-0.62
					c0.25,0.88,0.5,1.72,0.69,2.39c-1.95,1.48-5.31,4.67-6.11,9.61c-0.19,1.14,0.63,2.21,1.83,2.38c0.11,0.02,0.23,0.03,0.34,0.03
					c1.06,0,2-0.74,2.16-1.77c0.79-4.87,5.32-7.54,5.42-7.6c0.04-0.02,0.07-0.05,0.1-0.07c0.07-0.04,0.13-0.09,0.2-0.14
					c0.05-0.04,0.1-0.09,0.14-0.13c0.05-0.05,0.1-0.1,0.15-0.16c0.04-0.05,0.08-0.11,0.12-0.16c0.04-0.06,0.08-0.11,0.11-0.17
					c0.03-0.06,0.06-0.12,0.08-0.18c0.03-0.06,0.05-0.13,0.07-0.19c0.02-0.06,0.03-0.12,0.05-0.19c0.01-0.07,0.03-0.14,0.03-0.21
					c0.01-0.07,0.01-0.14,0.01-0.2c0-0.07,0-0.13-0.01-0.19c-0.01-0.08-0.02-0.15-0.04-0.23c-0.01-0.04-0.01-0.08-0.02-0.12
					c-0.08-0.28-1.94-6.79-2.49-8.55c-1.44-4.57-1.67-9.07-0.92-9.73c0.95-0.47,1.57-0.36,2.01-0.22c2.8,0.94,5.33,6.44,6.69,9.39
					c0.35,0.77,0.66,1.43,0.93,1.95c0.53,1.04,1.85,1.46,2.93,0.95c1.09-0.51,1.54-1.76,1-2.8c-0.24-0.47-0.53-1.09-0.85-1.79
					c-0.9-1.96-2.03-4.41-3.48-6.58c0.94-0.47,1.57-1.41,1.57-2.47c-0.02-3.23,0.05-5.89,0.12-8.46c0.11-4.09,0.21-7.95-0.05-13.38
					c-0.1-2.06,0.43-3.97,1.34-4.87c0.38-0.38,0.8-0.54,1.38-0.53c2.21,0.03,2.55,4.28,2.6,5.13c0.08,1.47,0.26,3.45,0.48,5.96
					c1.08,12.17,3.34,37.5-2.31,50.67c-1,2.34-1.74,5.54-2.29,9.08c-0.72,4.59-1.13,9.74-1.42,14.35
					c-5.91,0.52-16.12,1.17-24.22,1.04c0.11-4.37,0.38-10.87,0.38-10.95c0.04-0.83-0.24-1.6-0.7-2.23
					c-0.35-0.47-0.81-0.86-1.35-1.14c-0.18-0.28-0.41-0.53-0.69-0.74c-0.23-0.17-0.45-0.33-0.66-0.48c-1.86-1.34-2.8-2.01-4.78-7.85
					c-1.33-3.92-0.85-9.51-0.35-13.02c0.5,0.1,1,0.16,1.52,0.16c1.05,0,2.12-0.2,3.1-0.6C35.97,193.57,36.69,193.09,37.26,192.52z
					 M30.89,175.46L30.89,175.46c0.46,0,0.8,0.15,1.08,0.48c0.09,0.11,0.19,0.2,0.29,0.29c0.1,3.19,0.6,9.17,1.88,12.24
					c0.08,0.2,0.18,0.4,0.27,0.61c-0.01,0.04-0.03,0.08-0.04,0.12c-0.11,0.48-0.72,0.77-0.97,0.88c-0.72,0.3-1.6,0.33-2.27,0.12
					c-0.05-0.36-0.16-0.72-0.33-1.04c-0.02-0.03-1.78-3.28-1.79-11.03C28.99,175.47,30.42,175.47,30.89,175.46z"/>
				<path class="st27" d="M241.94,328.26c-0.11-17.94-0.19-31.09-0.19-33.49c0-1.84-1.56-3.32-3.49-3.32
					c-1.93,0-3.49,1.49-3.49,3.32c0,3.41,0.15,28.31,0.35,57.87c2.32,0.05,4.65,0.1,6.98,0.16
					C242.04,344.08,241.99,335.75,241.94,328.26z"/>
			</g>
		</g>
	</g>
</g>
</svg>
