<svg xmlns="http://www.w3.org/2000/svg" viewBox="0 0 400 300" style="enable-background:new 0 0 400 300" xml:space="preserve"><style>.st54{fill:#ffe400}.st437,.st452,.st453,.st454,.st455{fill:#fff;stroke:#231815;stroke-width:5.1024;stroke-linecap:round;stroke-linejoin:round;stroke-miterlimit:10}.st452,.st453,.st454,.st455{fill:#8fffff}.st453,.st454,.st455{fill:#87ce4b}.st454,.st455{fill:#fd0}.st455{fill:#ffecbb}</style><g id="レイヤー_1"><path style="fill:#e6ffff;stroke:#231815;stroke-width:5.1024;stroke-linecap:round;stroke-linejoin:round;stroke-miterlimit:10" d="M116.51 57.22h159.13v193.54H116.51z"/><path class="st452" d="M132.46 78.16h126.76M132.46 92.35h126.76"/><path class="st453" d="M178.16 228.05c2.56 5.79 9.2 8.24 14.81 5.47l.39-.19c5.62-2.77 8.1-9.71 5.53-15.5l-6.29-14.21-20.74 10.22 6.3 14.21z"/><path class="st437" d="m192.61 203.62-6.29-14.21c-2.56-5.79-9.2-8.24-14.81-5.47l-.39.19c-5.62 2.77-8.1 9.71-5.53 15.5l6.29 14.21 20.73-10.22z"/><path class="st437" d="M175.57 190.17c3.91-5.04 3.2-12.35-1.58-16.32l-.34-.28c-4.78-3.97-11.83-3.1-15.73 1.94l-9.59 12.38 17.65 14.65 9.59-12.37z"/><path class="st454" d="m148.32 187.89-9.59 12.38c-3.91 5.04-3.2 12.35 1.58 16.32l.34.28c4.78 3.97 11.83 3.1 15.73-1.94l9.59-12.38-17.65-14.66z"/><path class="st453" d="M247.25 189.82c4.97 3.92 11.98 2.98 15.65-2.09l.26-.36c3.67-5.07 2.62-12.37-2.35-16.28l-12.2-9.62-13.56 18.73 12.2 9.62z"/><path class="st437" d="m248.61 161.47-12.2-9.62c-4.97-3.92-11.98-2.98-15.65 2.09l-.26.36c-3.67 5.07-2.62 12.37 2.35 16.28l12.2 9.62 13.56-18.73z"/><ellipse transform="rotate(-33.369 154.823 161.558)" class="st455" cx="154.81" cy="161.55" rx="18.44" ry="16.77"/><ellipse transform="rotate(-39.478 151.581 157.516)" class="st455" cx="151.59" cy="157.52" rx="18.41" ry="13.01"/><path class="st454" d="M226.4 138.39c4.97-3.92 5.69-10.96 1.6-15.71l-.29-.33c-4.08-4.75-11.42-5.42-16.39-1.5l-12.19 9.63 15.07 17.54 12.2-9.63z"/><path class="st437" d="m199.14 130.48-12.19 9.63c-4.97 3.92-5.69 10.96-1.6 15.71l.29.33c4.08 4.75 11.42 5.42 16.39 1.5l12.19-9.63-15.08-17.54z"/><path class="st54" d="M316.85 140.19c0-17.08-9.83-28.87-24.08-28.87 14.24 0 24.08-11.79 24.08-28.87 0 17.08 9.83 28.87 24.08 28.87-14.25-.01-24.08 11.79-24.08 28.87z"/><path d="M316.85 142.73c-1.4 0-2.54-1.14-2.54-2.54 0-15.75-8.65-26.33-21.53-26.33-1.4 0-2.54-1.14-2.54-2.54s1.14-2.54 2.54-2.54c12.88 0 21.53-10.58 21.53-26.33 0-1.4 1.14-2.54 2.54-2.54s2.54 1.14 2.54 2.54c0 15.75 8.65 26.33 21.53 26.33 1.4 0 2.54 1.14 2.54 2.54s-1.14 2.54-2.54 2.54c-12.88 0-21.53 10.58-21.53 26.33 0 1.4-1.14 2.54-2.54 2.54zm-12.82-31.42c5.76 2.83 10.22 7.91 12.82 14.54 2.6-6.64 7.06-11.71 12.82-14.54-5.76-2.83-10.22-7.91-12.82-14.54-2.6 6.64-7.06 11.71-12.82 14.54z"/><path class="st54" d="M334.42 174.41c0-10.87-6.26-18.37-15.32-18.37 9.06 0 15.32-7.5 15.32-18.37 0 10.87 6.26 18.37 15.32 18.37-9.07 0-15.32 7.5-15.32 18.37z"/><path d="M334.42 176.95c-1.4 0-2.54-1.14-2.54-2.54 0-9.47-5.13-15.83-12.78-15.83-1.4 0-2.54-1.14-2.54-2.54s1.14-2.54 2.54-2.54c7.64 0 12.78-6.36 12.78-15.83 0-1.4 1.14-2.54 2.54-2.54 1.4 0 2.54 1.14 2.54 2.54 0 9.47 5.13 15.83 12.78 15.83 1.4 0 2.54 1.14 2.54 2.54s-1.14 2.54-2.54 2.54c-7.64 0-12.78 6.36-12.78 15.83 0 1.4-1.14 2.54-2.54 2.54zm-6.24-20.91c2.6 1.64 4.73 4.02 6.24 6.97 1.51-2.95 3.63-5.33 6.24-6.97-2.6-1.64-4.73-4.02-6.24-6.97-1.51 2.95-3.64 5.33-6.24 6.97z"/><ellipse transform="rotate(-69.574 214.383 191.05)" class="st455" cx="214.39" cy="191.05" rx="16.77" ry="18.44"/><ellipse transform="rotate(-75.682 215.732 186.078)" class="st455" cx="215.73" cy="186.07" rx="13.01" ry="18.41"/><ellipse transform="rotate(-17.196 235.625 216.136)" class="st455" cx="235.68" cy="216.16" rx="18.44" ry="16.77"/><ellipse transform="rotate(-23.296 233.717 211.4)" class="st455" cx="233.71" cy="211.4" rx="18.41" ry="13.01"/></g></svg>