<svg xmlns="http://www.w3.org/2000/svg" xmlns:xlink="http://www.w3.org/1999/xlink" viewBox="0 0 300 300" style="enable-background:new 0 0 300 300" xml:space="preserve"><style>.st435{fill:#ffec9d;stroke:#231815;stroke-width:5.1024;stroke-miterlimit:10}.st435,.st437{stroke-linecap:round;stroke-linejoin:round}.st437,.st439{fill:#fff;stroke:#231815;stroke-width:5.1024;stroke-miterlimit:10}</style><g id="レイヤー_1"><path class="st435" d="M261.83 249H144.92L134.36 85.89h138.03zM274.34 85.89H132.49c-1.74 0-3.17-1.42-3.17-3.17V71.84c0-1.74 1.42-3.17 3.17-3.17h141.85c1.74 0 3.17 1.42 3.17 3.17v10.89c0 1.74-1.43 3.16-3.17 3.16z"/><defs><path id="SVGID_00000158718818098950610210000016803614204867395766_" d="M261.83 249H144.92L134.36 85.89h138.03z"/></defs><clipPath id="SVGID_00000170966737831897604400000001418958337400465555_"><use xlink:href="#SVGID_00000158718818098950610210000016803614204867395766_" style="overflow:visible"/></clipPath><g style="clip-path:url(#SVGID_00000170966737831897604400000001418958337400465555_)"><path class="st437" d="M242.83 107.51h25.49M242.83 124.77h25.49M242.83 142.03h25.49M242.83 159.3h25.49M242.83 176.56h25.49M242.83 193.82h25.49M242.83 211.08h25.49M242.83 228.34h25.49"/></g><path d="m43 70.34-17.93 4.83 44.68 152.28s14 24.62 19.91 26.97c7.43 2.95 16.05-1.34 16.94-8.32.55-4.34-1-29.2-1-29.2L60.48 63.73 43 70.34z" style="fill:#c7ffff;stroke:#231815;stroke-width:5.1024;stroke-linecap:round;stroke-linejoin:round;stroke-miterlimit:10"/><path class="st437" d="m22.26 66.04 4 13.59s14.88 3 35.85-10.55l-4-13.59s-6.07 8.56-35.85 10.55z"/><ellipse transform="rotate(-16.398 39.323 58.019)" class="st437" cx="39.32" cy="58.01" rx="18.69" ry="7.08"/><path class="st439" d="m52.72 94.77 17.19-5.06M56.95 109.14l17.19-5.06M61.18 123.51l17.19-5.06M65.41 137.88l17.19-5.06M69.64 152.25l17.18-5.06M73.87 166.61l17.18-5.05M78.1 180.98l17.18-5.05M82.33 195.35l17.18-5.05"/></g></svg>