<svg xmlns="http://www.w3.org/2000/svg" xmlns:xlink="http://www.w3.org/1999/xlink" viewBox="0 0 300 300" style="enable-background:new 0 0 300 300" xml:space="preserve"><style>.st3{fill:#fff}.st25{fill:#94bed2}.st26{fill:#ffdfc6}.st27{fill:#333}</style><g id="レイヤー_1"><defs><path id="SVGID_00000063592903378396898030000006766558690935756928_" d="M6.45 23.45h299.08v234.99H6.45z"/></defs><clipPath id="SVGID_00000008110161568859520550000015838580137262525857_"><use xlink:href="#SVGID_00000063592903378396898030000006766558690935756928_" style="overflow:visible"/></clipPath><g style="clip-path:url(#SVGID_00000008110161568859520550000015838580137262525857_)"><path class="st25" d="M170.95 230c-.01.02-.03.03-.04.04-.07.08-.14.14-.22.22-.08.07-.15.15-.23.22-.01.01-.02.02-.04.03-.06.04-.12.07-.18.11-.1.06-.2.13-.3.18-.09.04-.18.07-.26.11-.1.04-.19.08-.29.11-.1.03-.2.04-.3.06-.1.02-.19.04-.29.05-.1.01-.2.01-.3.01-.1 0-.2 0-.3-.01-.1-.01-.19-.03-.29-.05-.1-.02-.2-.03-.3-.06-.1-.03-.19-.07-.29-.1-.09-.04-.18-.07-.27-.11-.1-.05-.2-.11-.29-.18-.06-.04-.13-.07-.19-.11l-.04-.04c-.08-.06-.15-.14-.22-.21-.08-.07-.16-.15-.23-.23a.138.138 0 0 0-.04-.03c-2.98-3.61-14.77-10.4-18.43-11.13 1.24 6.53 2.83 14.12 4.87 22.91 5.5 23.7 13.68 53.5 18.22 69.71 3.71-16.55 10.53-46.91 15.82-69.71 1.95-8.41 3.49-15.72 4.71-22.05-.51-.45-.95-.78-1.31-.93-3.21.29-15.88 7.45-18.97 11.19zm-1.84 35.93c-1.3 0-2.34-1-2.34-2.23s1.05-2.23 2.34-2.23c1.29 0 2.34 1 2.34 2.23s-1.05 2.23-2.34 2.23zm0-24.4c-1.3 0-2.34-1-2.34-2.23s1.05-2.23 2.34-2.23c1.29 0 2.34 1 2.34 2.23s-1.05 2.23-2.34 2.23zM201.26 216.34c-.34-3.42-.73-7.37-1.09-11.93-.2-2.56-.39-5.31-.56-8.27-.1-1.72-.35-5.69-.55-8.75v-.03c-.08-1.24-.15-2.33-.2-3.05-.17-.19-1.86-2.01-2.76-2.39-.12-.05-.24-.11-.37-.16a5.29 5.29 0 0 0-.6-.21c-.02.35-.05.74-.08 1.13-.26 3.31-.96 8.07-2.77 13.65-1.77 5.47-6 12.61-10.52 19.24 1.8-.88 3.52-1.6 5.04-2.08 1.28-.4 2.42-.64 3.32-.64.76 0 2.44.34 4.01 1.49 1.2.84 2.45 2.03 3.8 3.51 1.22 1.34 2.51 2.91 3.92 4.72-.15-1.85-.36-3.93-.59-6.23zM143.66 191.86a61.48 61.48 0 0 1-1.14-5.9c0-.02 0-.03-.01-.05-.05-.34-.09-.66-.12-.98-.13-1.09-.22-2.08-.28-2.95l-.03-.43c-.31.1-.61.21-.87.33-.03.01-.07.03-.1.04-.05.02-.1.06-.15.08-.2.11-.42.26-.65.43-.68.52-1.41 1.24-1.97 1.88-.03.5-.08 1.19-.13 1.98-.17 2.54-.4 6.17-.55 8.48-.03.54-.06 1.01-.08 1.37-.46 8.2-1.12 14.85-1.65 20.19-.23 2.3-.43 4.38-.59 6.24 2.03-2.59 3.82-4.72 5.47-6.32 1.64-1.6 3.15-2.67 4.63-3.13a5.299 5.299 0 0 1 1.63-.26c1.89 0 4.82 1.05 8.01 2.59.08.04.16.07.24.11-4.42-6.55-8.61-13.69-10.4-19.22-.5-1.56-.92-3.06-1.26-4.48z"/><path class="st3" d="m130.45 188.99-7.96 37.65 6.37 1.6c-.04-3.15.36-7.2.88-12.47.53-5.29 1.18-11.87 1.63-19.95.09-1.7.34-5.46.54-8.47-.49.11-.99.22-1.5.34.11.42.13.86.04 1.3z"/><path class="st3" d="M57.49 338.64c12.21.38 17.66-3.78 22.97-12.12l-.02-9.4-.06-24.71-.08-30.05c0-2.01 1.71-3.65 3.82-3.66h.01c2.11 0 3.82 1.63 3.83 3.64l.16 63.42c.05.32.06.65 0 .98l.04 16.15c20.4 1.95 40.78 4.14 61.2 5.98 6.87.62 13.74 1.12 20.61 1.55.78-.85 1.92-1.4 3.2-1.4 1.48 0 2.78.71 3.55 1.8 14.07.76 28.14 1.19 42.27 1.48 5.36.11 10.74.21 16.14.33-.2-29.56-.35-54.46-.35-57.87 0-1.84 1.56-3.32 3.49-3.32 1.93 0 3.49 1.49 3.49 3.32 0 2.41.08 15.56.19 33.49.05 7.49.1 15.81.16 24.54 12.77.31 25.61.74 38.42 1.53.07-6.67.12-13.11.15-19.11.05-11.52.01-21.44-.18-28.39v-.06c-.53-50.89-22.07-78.49-22.29-78.76-.07-.09-.14-.19-.21-.28-11.4-17.44-28.11-27.82-42.02-33.84l7.26 34.34c.33 1.54-.66 3.05-2.26 3.45L210 234.42l8.45 9.78c.73.84.91 2 .48 3.01l-33.62 78.38c-.49 1.15-1.65 1.84-2.88 1.84-.39 0-.79-.07-1.18-.22-1.59-.62-2.35-2.35-1.7-3.87l32.91-76.74-10.36-11.99c-.61-.7-.82-1.63-.62-2.51-.72-.91-1.5-1.92-2.31-2.99-.73-.96-1.7-2.22-2.75-3.55a617.88 617.88 0 0 1-3.81 17.49c-7.6 32.78-18.39 81.19-18.5 81.67-.3 1.34-1.52 2.31-2.95 2.35h-.09c-1.4 0-2.63-.89-3-2.18-.14-.47-13.69-47.5-21.66-81.84-1.67-7.2-3.04-13.6-4.18-19.31-1.59 1.92-3.16 3.97-4.23 5.37-.42.55-.83 1.08-1.23 1.6.31.31.56.68.7 1.1.33.96.12 2.01-.56 2.8l-10.32 11.94 35.22 75.31c.7 1.5-.01 3.25-1.58 3.91-.41.18-.84.26-1.26.26-1.19 0-2.33-.66-2.84-1.76l-36-76.99a2.85 2.85 0 0 1 .44-3.09l8.45-9.78-10.97-2.75c-1.59-.4-2.58-1.91-2.26-3.45l8.17-38.66a72.82 72.82 0 0 0-5.3 2.03c-19.27 8.25-35.31 24.69-46.4 47.57a3.68 3.68 0 0 1-1.6 1.64c.56 13.04 1.6 34.95 2.29 49.26.32 6.71.57 11.75.65 13.4.08 1.54-1.17 2.84-2.78 2.91h-.14c-1.55 0-2.84-1.16-2.92-2.66-.23-4.77-1.84-37.82-2.73-57.97-.16-3.68-.3-6.93-.4-9.5-4.5.41-14.46 1.2-23.48 1.2-3.61 0-7.07-.13-9.97-.46.03 4.16-.01 10.38-.05 17.67-.11 16.61-.24 37.28.36 49.47.37 7.4 3.31 31.65 26 34.53z"/><path class="st3" d="M207.46 215.78c.55 5.54.96 9.72.87 12.93l8.22-2.06-7.51-35.52c-1.24-.45-2.44-.86-3.59-1.24.15 2.35.3 4.7.37 5.95.46 8.07 1.11 14.65 1.64 19.94z"/><path class="st26" d="M188.84 182.14c-.65-.66-1.06-1.55-1.05-2.53l.05-6.7c-7.21 3.08-14.33 4.64-21.43 4.64-5.88 0-11.74-1.07-17.64-3.18l.1 7.89c0 .05-.01.09-.01.14 0 .05.01.09.01.14-.01.08-.03.15-.04.22-.02.13-.04.25-.07.38-.03.11-.06.21-.1.32-.04.12-.08.23-.14.35.32 2.82.98 6.54 2.35 10.79 2.54 7.86 11.17 20.43 17.63 28.69 6.07-7.74 15.21-20.59 17.82-28.69 1.67-5.15 2.29-9.52 2.52-12.46zM224.68 103.19c-.15-.13-.59-.54-1.69-.43-1.41.14-2.98 1.06-3.81 2.24-1.1 1.56-3.23 2.03-4.93 1.19-28.05-7.95-48.87-25.34-61.88-39.34-16.27 7.17-22.46 18.25-27.48 27.24-2.4 4.29-4.5 8.02-7.33 10.83-.28.42-.64.79-1.1 1.08-1.76 1.12-4.13.68-5.31-1-.83-1.18-2.4-2.1-3.81-2.24-1.1-.11-1.54.3-1.69.43-.79.73-1.66 2.19-2.03 3.39-1.74 5.74.19 12.57 5.31 18.72 1.02 1.22 1.59 1.63 2.8 1.97.73.2 1.53.28 2.13.3.47-.43 1.05-.77 1.73-.93 2.05-.48 4.13.71 4.64 2.67 1.63 6.28 8.27 27.41 25.33 35.76 13.69 6.7 27.05 6.86 40.83.47 18.83-8.73 23.2-27.21 24.2-34.75l.04-.3c0-.01 0-.01.01-.02.02-.11.05-.21.08-.32.03-.14.06-.27.11-.4v-.02c.03-.07.07-.13.1-.19.07-.15.14-.3.22-.44.06-.1.14-.18.21-.27.08-.1.15-.2.24-.3.09-.09.19-.17.28-.25.09-.08.17-.16.27-.23s.2-.12.3-.18c.11-.06.21-.13.33-.18.1-.05.21-.08.32-.11.12-.04.25-.1.38-.13.12-.03.24-.04.37-.06.12-.02.24-.05.36-.05.16-.01.32 0 .48.01.09.01.17 0 .26.01.01 0 .01 0 .02.01.13.02.25.06.38.09s.26.05.38.09h.02c.31.07 1.68.06 2.87-.27 1.21-.34 1.78-.74 2.8-1.96 5.12-6.15 7.05-12.97 5.31-18.72-.38-1.23-1.26-2.68-2.05-3.41zm-81.46 17.37c-3-.24-4.79-2.68-4.29-7.99.37-3.98 2.57-6.17 4.66-6.25 1.34-.05 4.49 1.47 4.34 6.96-.14 5.28-2.26 7.48-4.71 7.28zm7.09-16.59c-.61.96-1.93 1.26-2.93.68-1.55-.9-5.92-1.14-8.41 1.62-.42.47-1.02.71-1.62.71-.49 0-.99-.16-1.39-.49a1.98 1.98 0 0 1-.23-2.87c4.01-4.43 10.74-4.26 13.87-2.44 1.01.59 1.33 1.84.71 2.79zm9.07 21.15c.3-1.13.57-2.17.74-2.87.26-1.09 1.41-1.78 2.55-1.53 1.15.25 1.87 1.34 1.61 2.43-.17.72-.46 1.8-.76 2.96-.49 1.83-1.3 4.9-1.34 5.54-.01.43.15.61.3.71.28.2.69.24.93.17 1.12-.34 2.32.25 2.68 1.32.36 1.07-.26 2.21-1.39 2.55-.5.15-1.03.23-1.55.23-1.15 0-2.3-.35-3.23-1.02-1.33-.95-2.04-2.4-2-4.08.02-.82.45-2.57 1.46-6.41zm13.93 25.43c-1.79 1.22-4.98 1.89-8.28 1.89-3.42 0-6.95-.73-9.16-2.33a1.972 1.972 0 0 1-.4-2.85c.71-.89 2.05-1.06 2.99-.38 2.87 2.09 10.29 1.78 12.38.36.96-.65 2.29-.44 2.97.47.68.92.46 2.19-.5 2.84zm9.83-28.62c-2.46-.05-4.32-2.44-3.88-7.7.45-5.48 3.75-6.68 5.08-6.49 2.07.29 4.02 2.68 3.95 6.68-.09 5.33-2.14 7.57-5.15 7.51zm10.62-14.03c-.38.26-.82.39-1.25.39-.66 0-1.31-.29-1.73-.84-2.25-2.95-6.63-3.04-8.25-2.26-1.05.51-2.33.1-2.86-.9-.53-1-.11-2.22.94-2.73 3.27-1.57 10-1.23 13.61 3.5.71.91.5 2.18-.46 2.84zM39.28 188.75c.57.53 1.52.73 2.27.48.75-.26 1.35-.99 1.43-1.74.02-.23.1-.44.19-.64-.51-.86-.76-1.8-.95-2.71-.62-3.02-1.02-6.32-1.16-9.43a2.72 2.72 0 0 1-1-1.29c-.32-.29-1.02-.66-1.46-.64-.6.03-1.32.94-1.48 1.87-.07.43-.25.82-.5 1.16.08 3.31.61 8.82 1.58 11.13.29.68.62 1.38 1.08 1.81zM47.18 185.07c.3.32.5.33.57.33.36.01.8-.23 1.25-.64.02-.02.05-.04.07-.06-.05-.16-.09-.3-.13-.41-1.15-3.64-3.33-12.35 1.25-14.63 1.73-.86 3.54-1.03 5.26-.52-1.4-1.72-3.25-2.59-5.51-2.55-2.58.04-4.23 2.36-4.21 5.89 0 .46-.12.89-.33 1.28.09 3.13.47 6.5 1.11 9.58.16.68.34 1.37.67 1.73zM31.12 190.21c.67.2 1.55.17 2.27-.12.25-.11.86-.4.97-.88.01-.04.03-.08.04-.12-.09-.2-.19-.41-.27-.61-1.28-3.07-1.78-9.05-1.88-12.24-.1-.09-.2-.19-.29-.29-.28-.33-.62-.48-1.07-.48h-.01c-.47 0-1.9.01-1.9 2.68.01 7.75 1.78 10.99 1.79 11.03.2.31.31.66.35 1.03z"/><path class="st26" d="M68.42 149.69c-.05-.85-.4-5.09-2.6-5.13-.58-.01-.99.15-1.38.53-.91.9-1.44 2.81-1.34 4.87.26 5.42.16 9.29.05 13.38-.07 2.57-.14 5.24-.12 8.46.01 1.06-.62 2-1.57 2.47 1.45 2.18 2.58 4.62 3.48 6.58.32.7.6 1.31.85 1.79.53 1.04.08 2.29-1 2.8-1.09.51-2.4.08-2.93-.95-.27-.52-.58-1.19-.93-1.95-1.36-2.95-3.89-8.45-6.69-9.39-.44-.15-1.06-.25-2.01.22-.75.66-.52 5.16.92 9.73.55 1.76 2.41 8.28 2.49 8.55.01.04.01.08.02.12a1.846 1.846 0 0 1 .05.42c0 .07 0 .14-.01.2l-.03.21c-.01.06-.03.12-.05.19-.02.07-.05.13-.07.19-.03.06-.05.12-.08.18a.99.99 0 0 1-.11.17c-.04.06-.08.11-.12.16-.05.05-.1.11-.15.16-.05.05-.09.09-.14.13-.06.05-.13.09-.2.14-.04.02-.06.05-.1.07-.09.05-4.63 2.73-5.42 7.6-.17 1.03-1.1 1.77-2.16 1.77-.11 0-.22-.01-.34-.03-1.2-.18-2.02-1.24-1.83-2.38.8-4.93 4.17-8.13 6.11-9.61-.19-.67-.43-1.51-.69-2.39-.82.41-1.68.62-2.54.62h-.19c-.22-.01-.44-.05-.66-.09a6.502 6.502 0 0 1-6.07 4.03c-1.27 0-2.53-.35-3.61-.99-.57.57-1.29 1.05-2.12 1.4-.98.4-2.05.6-3.1.6-.52 0-1.03-.06-1.52-.16-.51 3.5-.98 9.1.35 13.02 1.98 5.84 2.92 6.51 4.78 7.85.21.15.43.31.66.48.29.21.51.47.69.74.54.27 1 .66 1.35 1.14.47.63.74 1.4.7 2.23 0 .08-.28 6.59-.38 10.95 8.1.14 18.31-.52 24.22-1.04.29-4.61.7-9.76 1.42-14.35.55-3.54 1.29-6.74 2.29-9.08 5.65-13.17 3.39-38.5 2.31-50.67-.22-2.5-.4-4.48-.48-5.94z"/><path class="st27" d="M159.91 135.62c.93.67 2.08 1.02 3.23 1.02.53 0 1.05-.07 1.55-.23 1.12-.34 1.74-1.48 1.39-2.55-.36-1.07-1.56-1.66-2.68-1.32-.24.07-.65.03-.93-.17-.14-.1-.31-.28-.3-.71.05-.64.86-3.71 1.34-5.54.31-1.16.59-2.24.76-2.96.26-1.09-.46-2.18-1.61-2.43-1.15-.25-2.29.44-2.55 1.53-.17.7-.44 1.74-.74 2.87-1.02 3.85-1.45 5.59-1.47 6.42-.03 1.66.68 3.11 2.01 4.07zM143.6 106.32c-2.09.08-4.29 2.27-4.66 6.25-.5 5.31 1.29 7.75 4.29 7.99 2.45.2 4.56-2 4.71-7.27.15-5.5-3-7.02-4.34-6.97zM137.35 106.98c.6 0 1.2-.24 1.62-.71 2.49-2.76 6.86-2.52 8.41-1.62 1.01.58 2.32.28 2.93-.68.61-.96.3-2.21-.71-2.79-3.13-1.82-9.86-2-13.87 2.44-.77.85-.67 2.13.23 2.87.41.32.9.49 1.39.49zM183.14 121.93c3.01.06 5.06-2.18 5.15-7.52.07-3.99-1.88-6.39-3.95-6.68-1.33-.18-4.63 1.01-5.08 6.49-.44 5.26 1.43 7.66 3.88 7.71zM182.54 105.19c1.62-.78 5.99-.68 8.25 2.26.42.55 1.07.84 1.73.84.43 0 .87-.13 1.25-.39.95-.66 1.16-1.93.47-2.84-3.61-4.73-10.34-5.07-13.61-3.5-1.05.5-1.47 1.73-.94 2.73.52 1 1.79 1.4 2.85.9zM155.87 150.11c2.21 1.61 5.74 2.33 9.16 2.33 3.3 0 6.49-.68 8.28-1.89.96-.65 1.18-1.92.5-2.83-.68-.91-2.02-1.12-2.97-.47-2.08 1.42-9.51 1.73-12.38-.36-.94-.68-2.28-.51-2.99.38-.71.89-.54 2.16.4 2.84zM169.11 237.06c-1.3 0-2.34 1-2.34 2.23s1.05 2.23 2.34 2.23c1.29 0 2.34-1 2.34-2.23s-1.05-2.23-2.34-2.23zM169.11 261.46c-1.3 0-2.34 1-2.34 2.23s1.05 2.23 2.34 2.23c1.29 0 2.34-1 2.34-2.23s-1.05-2.23-2.34-2.23zM53.05 128.06c.23.5.74.8 1.28.8.19 0 .38-.04.56-.11.71-.29 1.03-1.08.72-1.75l-3.22-7.02c-.31-.67-1.13-.98-1.84-.69-.71.29-1.03 1.08-.72 1.75l3.22 7.02zM75 127.41c.22.12.45.17.69.17.48 0 .96-.24 1.21-.67l3.97-6.66c.38-.64.15-1.45-.52-1.81-.67-.36-1.52-.14-1.9.5l-3.97 6.66c-.38.64-.15 1.45.52 1.81zM65.4 126.73h.02c.76 0 1.39-.58 1.4-1.31l.1-7.66c.01-.73-.61-1.34-1.38-1.35-.77-.01-1.4.58-1.41 1.31l-.1 7.66c-.02.74.6 1.34 1.37 1.35z"/><path class="st27" d="M25.3 209.1c2.22 6.55 3.81 8.33 6.15 10.09-.02.11-.05.22-.05.34-.01.32-.27 6.35-.38 10.74-.91-.13-1.7-.29-2.36-.49-.08-.02-.16-.03-.24-.05-.12-.03-.23-.05-.35-.07-.13-.02-.25-.02-.38-.02-.08 0-.15-.02-.22-.01-.03 0-.05.01-.08.01-.13.01-.26.03-.39.06-.1.02-.2.03-.29.06-.12.03-.22.07-.33.12-.1.04-.2.07-.3.12-.1.05-.2.11-.29.17-.09.06-.19.11-.27.17-.09.07-.18.15-.26.23-.08.07-.15.13-.22.21-.08.08-.14.18-.21.27-.06.09-.13.17-.19.26-.05.08-.09.18-.13.27-.05.11-.11.22-.15.34-.01.03-.02.05-.03.07-.02.07-.03.14-.04.21-.03.12-.06.24-.08.36-.02.12-.02.23-.02.35 0 .07-.02.15-.01.22.15 2.92.09 11.53.03 21.5-.11 16.69-.24 37.45.36 49.82.62 12.82 5.37 26.76 16.21 34.68 10.4.6 20.79 1.4 31.17 2.3l3 .27c2.06-1.16 3.91-2.57 5.59-4.21l.01 4.72c2.55.23 5.11.48 7.66.72l-.04-16.15c.05-.33.05-.66 0-.98l-.16-63.42c-.01-2.01-1.72-3.64-3.83-3.64h-.01c-2.11.01-3.83 1.64-3.82 3.66l.08 30.05.06 24.71.02 9.4c-5.32 8.34-10.76 12.49-22.97 12.12-22.69-2.88-25.63-27.14-25.99-34.52-.59-12.19-.46-32.86-.36-49.47.05-7.29.09-13.51.05-17.67 2.9.33 6.36.46 9.97.46 9.02 0 18.98-.79 23.48-1.2.1 2.57.24 5.82.4 9.5.89 20.16 2.5 53.2 2.73 57.97.07 1.49 1.37 2.66 2.92 2.66h.14c1.61-.07 2.86-1.37 2.78-2.91-.08-1.65-.33-6.69-.65-13.4-.69-14.3-1.73-36.22-2.29-49.26a3.68 3.68 0 0 0 1.6-1.64c11.09-22.87 27.13-39.32 46.4-47.57a72.82 72.82 0 0 1 5.3-2.03l-8.17 38.66c-.33 1.54.66 3.05 2.26 3.45l10.97 2.75-8.45 9.78a2.85 2.85 0 0 0-.44 3.09l36 76.99c.52 1.1 1.65 1.76 2.84 1.76.42 0 .85-.08 1.26-.26 1.57-.67 2.27-2.42 1.58-3.91l-35.22-75.31 10.32-11.94c.67-.78.88-1.83.56-2.8-.14-.42-.39-.79-.7-1.1.4-.52.81-1.05 1.23-1.6 1.07-1.39 2.64-3.45 4.23-5.37 1.13 5.7 2.51 12.11 4.18 19.31 7.97 34.34 21.52 81.37 21.66 81.84.37 1.29 1.6 2.18 3 2.18h.09c1.43-.04 2.65-1.01 2.95-2.35.11-.49 10.89-48.9 18.5-81.67 1.5-6.45 2.75-12.25 3.81-17.49 1.05 1.32 2.02 2.59 2.75 3.55.81 1.06 1.59 2.08 2.31 2.99-.2.88.01 1.81.62 2.51l10.36 11.99-32.91 76.74c-.65 1.52.11 3.25 1.7 3.87.39.15.78.22 1.18.22 1.23 0 2.39-.69 2.88-1.84l33.62-78.38c.43-1.01.25-2.16-.48-3.01l-8.45-9.78 10.97-2.75c1.59-.4 2.58-1.91 2.26-3.45l-7.26-34.34c13.91 6.02 30.62 16.4 42.02 33.84.06.1.13.19.21.28.22.27 21.76 27.87 22.29 78.76v.06c.19 6.95.23 16.87.18 28.39-.03 6-.08 12.44-.15 19.11 2.55.16 5.1.33 7.65.52.21-19.74.27-37.46-.03-48.21-.56-52.05-21.75-80.36-23.74-82.91-11.29-17.2-27.22-27.99-41.25-34.66.63-8.85 2.32-36.77 3.14-57.26.01-.23-.01-.46-.05-.68.42-.42.81-.85 1.17-1.29 6.68-8.02 9.1-17.24 6.66-25.28-.74-2.45-2.3-4.98-4.06-6.61-.59-.54-1.24-.99-1.94-1.36 1.52-11.65-4.74-31.42-10.28-40.82-9.16-15.52-23.67-25.01-44.34-29.02-32.47-6.29-57.2 15.22-66.44 37.87-4.1 10.04-5.62 24.01-4.63 31.92-.74.38-1.43.84-2.05 1.41-1.76 1.62-3.31 4.15-4.06 6.61-2.44 8.04-.01 17.25 6.66 25.28 1.02 1.22 2.22 2.44 4.01 3.39.45 5.2.74 13.4 1.04 22.08.39 10.98.82 23.37 1.69 32.45-12.75 6.69-28.25 19-40.78 41.53-.04-.02-.08-.04-.11-.06.32-5.03 1.15-15.94 3.23-20.79 6.18-14.41 3.93-39.68 2.72-53.25-.21-2.36-.39-4.41-.47-5.78-.36-6.44-3.48-10.33-8.35-10.4-2.17-.03-4.15.73-5.66 2.22-2.07 2.04-3.16 5.32-2.98 9 .25 5.2.15 8.96.05 12.93-2.12-1.44-4.68-2.18-7.47-2.13-4.29.07-7.62 2.59-9.11 6.52-.79-.23-1.6-.35-2.39-.32-2.34.1-4.21 1.31-5.43 2.95-.65-.18-1.32-.27-2.05-.26-4.62.02-7.73 3.33-7.72 8.25.01 6.94 1.28 10.94 2.03 12.71-.63 2.85-2.1 11.84.06 18.18zm106.08-13.27c-.45 8.08-1.11 14.66-1.63 19.95-.52 5.27-.92 9.32-.88 12.47l-6.37-1.6 7.96-37.65c.09-.44.07-.88-.04-1.29.51-.12 1.01-.24 1.5-.34-.21 3-.45 6.77-.54 8.46zm15.15 17.06c-.36.04-.72.12-1.09.23-1.47.46-2.98 1.53-4.63 3.13-1.65 1.61-3.44 3.74-5.47 6.32.15-1.86.36-3.94.59-6.24.53-5.34 1.19-11.99 1.65-20.19.02-.36.05-.84.08-1.37.14-2.31.38-5.94.55-8.48.05-.79.1-1.48.13-1.98.56-.64 1.29-1.36 1.97-1.88a5.186 5.186 0 0 1 .8-.51c.03-.02.07-.03.1-.04.26-.12.56-.23.87-.33l.03.43c.06.87.15 1.85.28 2.95.04.32.08.64.12.98 0 .02 0 .03.01.05.25 1.75.61 3.74 1.14 5.9.35 1.42.77 2.92 1.27 4.48 1.79 5.53 5.98 12.68 10.4 19.22-.08-.04-.16-.08-.24-.11-3.19-1.55-6.12-2.59-8.01-2.59-.18 0-.36.01-.55.03zm2.33-30.49c0-.05.01-.09.01-.14l-.1-7.89c5.9 2.11 11.77 3.18 17.64 3.18 7.1 0 14.22-1.56 21.43-4.64l-.05 6.7c-.01.98.4 1.87 1.05 2.53-.23 2.94-.85 7.31-2.51 12.45-2.62 8.1-11.75 20.95-17.82 28.69-6.46-8.27-15.1-20.84-17.63-28.69a55.785 55.785 0 0 1-2.35-10.79c.05-.11.1-.23.14-.35.04-.1.07-.21.1-.32.03-.12.05-.25.07-.38.01-.07.03-.14.04-.22a.507.507 0 0 1-.02-.13zm37.69 59.38c-5.29 22.8-12.12 53.16-15.82 69.71-4.55-16.21-12.73-46.01-18.22-69.71-2.04-8.8-3.63-16.38-4.87-22.91 3.66.73 15.45 7.52 18.43 11.13.01.01.02.02.04.03.07.08.15.15.23.23.07.07.14.14.22.21l.04.04c.06.04.13.07.19.11.1.06.19.13.29.18.09.04.18.08.27.11.1.04.19.08.29.1.1.03.2.04.3.06.1.02.19.04.29.05.1.01.2.01.3.01.1 0 .2 0 .3-.01.1-.01.19-.03.29-.05.1-.02.2-.03.3-.06.1-.03.19-.07.29-.11.09-.03.18-.07.26-.11.1-.05.2-.12.3-.18.06-.04.12-.07.18-.11.01-.01.02-.02.04-.03.08-.06.16-.14.23-.22.07-.07.15-.14.22-.22.01-.01.03-.02.04-.04 3.09-3.74 15.76-10.9 18.99-11.2.35.15.8.48 1.31.93-1.25 6.34-2.78 13.65-4.73 22.06zm11.38-23.92c-1.35-1.49-2.6-2.67-3.8-3.52-.58-.41-1.15-.73-1.71-.97-.78-.34-1.54-.52-2.3-.52-.9 0-2.04.24-3.32.64-1.52.48-3.24 1.2-5.04 2.08 4.52-6.63 8.75-13.77 10.52-19.24 1.8-5.59 2.51-10.35 2.77-13.65.03-.4.06-.78.08-1.13.21.06.41.14.6.21.13.05.26.1.37.16.66.33 1.51 1.07 2.22 1.81.19.2.37.39.54.58.05.72.12 1.81.2 3.05v.03c.2 3.06.46 7.03.55 8.75.17 2.96.36 5.7.56 8.27.36 4.55.75 8.51 1.09 11.92.23 2.3.44 4.38.59 6.24-1.41-1.79-2.71-3.37-3.92-4.71zm18.62 8.79-8.22 2.06c.09-3.21-.32-7.39-.87-12.93-.53-5.29-1.18-11.87-1.63-19.95-.07-1.24-.22-3.59-.37-5.95 1.15.38 2.35.79 3.59 1.24l7.5 35.53zM108.93 125.29c-5.12-6.15-7.05-12.97-5.31-18.72.37-1.2 1.24-2.66 2.03-3.39.15-.13.59-.54 1.69-.43 1.41.14 2.98 1.06 3.81 2.24 1.18 1.67 3.56 2.12 5.31 1 .46-.29.82-.66 1.1-1.08 2.83-2.81 4.93-6.54 7.33-10.83 5.02-8.98 11.21-20.06 27.48-27.24 13.02 13.99 33.84 31.39 61.88 39.34 1.7.84 3.83.37 4.93-1.19.83-1.18 2.4-2.1 3.81-2.24 1.1-.11 1.54.3 1.69.43.79.73 1.66 2.19 2.03 3.39 1.74 5.75-.19 12.57-5.31 18.72-1.02 1.22-1.59 1.63-2.8 1.96-1.18.33-2.56.34-2.87.27h-.02c-.12-.04-.26-.06-.38-.09-.13-.03-.25-.07-.38-.09-.01 0-.01 0-.02-.01-.09-.01-.17 0-.26-.01-.16-.01-.32-.02-.48-.01-.12.01-.24.03-.36.05-.12.02-.25.03-.37.06-.13.03-.25.08-.38.13-.11.04-.21.07-.31.11-.11.05-.22.12-.33.18-.1.06-.21.11-.3.18-.1.07-.18.15-.27.23-.09.08-.19.16-.28.25-.09.09-.16.2-.24.3-.07.09-.15.17-.21.27-.09.14-.15.29-.22.44-.03.07-.07.13-.1.19v.02c-.05.13-.07.27-.11.4-.03.11-.06.21-.08.32 0 .01 0 .01-.01.02l-.04.3c-1 7.54-5.37 26.02-24.2 34.75-13.78 6.39-27.14 6.23-40.83-.47-17.06-8.35-23.7-29.48-25.33-35.76-.51-1.96-2.58-3.15-4.64-2.67-.68.16-1.26.5-1.73.93-.6-.01-1.4-.09-2.13-.3-1.2-.32-1.78-.72-2.79-1.95zm-63.19 47.18c-.03-3.54 1.62-5.85 4.21-5.89 2.26-.04 4.11.83 5.51 2.55-1.72-.51-3.53-.34-5.26.52-4.57 2.28-2.4 10.99-1.25 14.63.04.12.08.26.13.41-.02.02-.05.03-.07.06-.45.42-.88.65-1.25.64-.07 0-.27-.01-.57-.33-.34-.36-.52-1.05-.66-1.73-.64-3.08-1.01-6.46-1.11-9.58.2-.38.33-.82.32-1.28zm-8.61 2.17c.16-.94.88-1.85 1.48-1.87.44-.02 1.14.36 1.46.64.19.52.55.96 1 1.29.14 3.12.54 6.41 1.16 9.43.19.91.44 1.84.95 2.71-.09.2-.17.41-.19.64-.08.75-.68 1.49-1.43 1.74-.75.26-1.7.05-2.27-.48-.46-.43-.79-1.13-1.07-1.81-.96-2.31-1.5-7.82-1.58-11.13.24-.33.42-.73.49-1.16zm.13 17.88a6.999 6.999 0 0 0 5.77.64c1.79-.61 3.22-2 3.91-3.68.22.04.43.08.66.09h.19c.87 0 1.72-.22 2.54-.62.25.88.5 1.72.69 2.39-1.95 1.48-5.31 4.67-6.11 9.61-.19 1.14.63 2.21 1.83 2.38.11.02.23.03.34.03 1.06 0 2-.74 2.16-1.77.79-4.87 5.32-7.54 5.42-7.6.04-.02.07-.05.1-.07.07-.04.13-.09.2-.14.05-.04.1-.09.14-.13.05-.05.1-.1.15-.16.04-.05.08-.11.12-.16.04-.06.08-.11.11-.17.03-.06.06-.12.08-.18.03-.06.05-.13.07-.19.02-.06.03-.12.05-.19.01-.07.03-.14.03-.21.01-.07.01-.14.01-.2 0-.07 0-.13-.01-.19-.01-.08-.02-.15-.04-.23-.01-.04-.01-.08-.02-.12-.08-.28-1.94-6.79-2.49-8.55-1.44-4.57-1.67-9.07-.92-9.73.95-.47 1.57-.36 2.01-.22 2.8.94 5.33 6.44 6.69 9.39.35.77.66 1.43.93 1.95.53 1.04 1.85 1.46 2.93.95 1.09-.51 1.54-1.76 1-2.8-.24-.47-.53-1.09-.85-1.79-.9-1.96-2.03-4.41-3.48-6.58.94-.47 1.57-1.41 1.57-2.47-.02-3.23.05-5.89.12-8.46.11-4.09.21-7.95-.05-13.38-.1-2.06.43-3.97 1.34-4.87.38-.38.8-.54 1.38-.53 2.21.03 2.55 4.28 2.6 5.13.08 1.47.26 3.45.48 5.96 1.08 12.17 3.34 37.5-2.31 50.67-1 2.34-1.74 5.54-2.29 9.08-.72 4.59-1.13 9.74-1.42 14.35-5.91.52-16.12 1.17-24.22 1.04.11-4.37.38-10.87.38-10.95.04-.83-.24-1.6-.7-2.23-.35-.47-.81-.86-1.35-1.14-.18-.28-.41-.53-.69-.74-.23-.17-.45-.33-.66-.48-1.86-1.34-2.8-2.01-4.78-7.85-1.33-3.92-.85-9.51-.35-13.02.5.1 1 .16 1.52.16 1.05 0 2.12-.2 3.1-.6.83-.37 1.55-.85 2.12-1.42zm-6.37-17.06c.46 0 .8.15 1.08.48.09.11.19.2.29.29.1 3.19.6 9.17 1.88 12.24.08.2.18.4.27.61-.01.04-.03.08-.04.12-.11.48-.72.77-.97.88-.72.3-1.6.33-2.27.12-.05-.36-.16-.72-.33-1.04-.02-.03-1.78-3.28-1.79-11.03-.02-2.66 1.41-2.66 1.88-2.67z"/><path class="st27" d="M241.94 328.26c-.11-17.94-.19-31.09-.19-33.49 0-1.84-1.56-3.32-3.49-3.32-1.93 0-3.49 1.49-3.49 3.32 0 3.41.15 28.31.35 57.87 2.32.05 4.65.1 6.98.16-.06-8.72-.11-17.05-.16-24.54z"/></g></g></svg>