<svg xmlns="http://www.w3.org/2000/svg" viewBox="0 0 370.02 300" style="enable-background:new 0 0 370.02 300" xml:space="preserve"><style>.st439,.st442{fill:#fff;stroke:#231815;stroke-width:5.1024;stroke-miterlimit:10}.st442{fill:#d6ffff;stroke-linecap:round;stroke-linejoin:round}</style><g id="レイヤー_1"><path d="M135.79 218.42c9.57 12.34 27.32 14.58 39.66 5.02l.86-.67c12.34-9.57 14.58-27.32 5.02-39.66l-23.48-30.28-45.54 35.31 23.48 30.28z" style="fill:#87ce4b;stroke:#231815;stroke-width:5.1024;stroke-miterlimit:10"/><path class="st439" d="m157.84 152.83-23.48-30.28c-9.57-12.34-27.32-14.58-39.66-5.02l-.86.67c-12.34 9.57-14.58 27.32-5.02 39.66l23.48 30.28 45.54-35.31z"/><path class="st439" d="M108.21 130.11c6.84-14.03 1.01-30.95-13.02-37.79l-.98-.48C80.18 85 63.26 90.83 56.42 104.86L39.63 139.3l51.8 25.25 16.78-34.44z"/><path d="m39.63 139.3-16.79 34.44c-6.84 14.03-1.01 30.95 13.02 37.79l.98.48c14.03 6.84 30.95 1.01 37.79-13.02l16.79-34.44-51.79-25.25z" style="fill:#fd0;stroke:#231815;stroke-width:5.1024;stroke-miterlimit:10"/><ellipse class="st442" cx="236.92" cy="139.3" rx="47.07" ry="41.85"/><ellipse class="st442" cx="236.92" cy="133.11" rx="47.07" ry="35.67"/><ellipse transform="rotate(-65.765 301.296 169.444)" class="st442" cx="301.31" cy="169.45" rx="41.13" ry="46.26"/><ellipse transform="rotate(-65.765 303.791 163.9)" class="st442" cx="303.8" cy="163.91" rx="35.05" ry="46.26"/></g></svg>