<svg xmlns="http://www.w3.org/2000/svg" viewBox="0 0 300 300" style="enable-background:new 0 0 300 300" xml:space="preserve"><style>.st3{fill:#fff}.st21{fill:#298d00}</style><g id="レイヤー_1"><path class="st3" d="m64.9 260.44-8.6-10.56V64.76l10.56-10.87h144.2l10.55 10.87v181.59l-11.83 14.09z"/><path d="M100.42 68.04c-.49 0-.97-.1-1.43-.28-.43-.17-.86-.46-1.23-.83-.35-.33-.63-.74-.84-1.23-.18-.43-.27-.92-.27-1.44V51.43c0-.54.09-1.02.26-1.45.21-.47.5-.88.85-1.23.37-.37.8-.66 1.24-.83.43-.18.91-.28 1.43-.28h19.24c1.32 0 2.75-.42 4.03-1.18 1.24-.74 2.3-1.8 2.96-3 1.28-2.34 3.18-4.32 5.5-5.71a14.85 14.85 0 0 1 7.61-2.08c2.69 0 5.33.72 7.63 2.08a15.05 15.05 0 0 1 5.51 5.72c.64 1.18 1.69 2.24 2.96 3 1.28.76 2.71 1.18 4.03 1.18h19.24c.51 0 1 .1 1.44.29.43.17.86.46 1.23.83.36.36.65.79.83 1.23.19.46.28.95.28 1.45v12.83c0 .49-.1.97-.28 1.43-.18.47-.47.9-.83 1.24-.36.36-.79.65-1.23.82-.46.19-.94.28-1.43.28h-78.73zm39.35-25.49c-2.15 0-4.18.84-5.69 2.36a8.025 8.025 0 0 0-2.36 5.71c0 2.15.84 4.18 2.36 5.69 1.53 1.53 3.55 2.38 5.69 2.38 2.15 0 4.18-.84 5.71-2.38a7.996 7.996 0 0 0 2.36-5.69c0-2.16-.84-4.19-2.36-5.71s-3.55-2.36-5.71-2.36z" style="fill:#c1c2c3"/><path d="M139.77 54.06c-.9 0-1.79-.36-2.44-1a3.5 3.5 0 0 1-1-2.45c0-.92.36-1.81 1-2.44a3.48 3.48 0 0 1 2.44-1.02c.93 0 1.82.37 2.45 1.02.64.62 1.01 1.51 1.01 2.44 0 .92-.36 1.79-1.02 2.44a3.4 3.4 0 0 1-2.44 1.01zM71.89 261.57c-2.2 0-4.35-.43-6.38-1.28a16.82 16.82 0 0 1-5.44-3.62 16.85 16.85 0 0 1-3.63-5.44c-.85-2.03-1.28-4.18-1.28-6.38V68.01c0-2.22.43-4.37 1.29-6.39.83-2.02 2.09-3.9 3.62-5.44l.16-.16.09-.07.34-.34.09-.07.04-.04.2-.16.04-.05.06-.04.13-.11.26.19-.11-.3.17-.13.06-.06.09-.07.12-.08.09-.08.17-.11.14-.1.09-.06.12-.09.09-.09h.04l.06-.04.16-.12.09-.07.17-.09.09-.09.04.01c.13-.08.26-.15.39-.23l.09-.07.11-.07.12-.05.17-.11.14-.07.13-.06.07-.05.12-.05.05-.03.14-.06.16-.08.12-.05.16-.08.3-.12.21.25-.02-.32.18-.07.21.25-.02-.32.19-.07.21.25-.02-.32.21.27-.02-.32.15-.05.25.25-.12-.29.12-.05.09-.04.06-.03.12-.02.1-.04.11-.02.06-.03.12-.02.1-.04.21-.04.18-.05.38-.07.18-.05.35-.07h.12l.38-.07.12-.02.18-.02.12-.02h.11l.18-.04h.12l.38-.04h.12l.09-.02h.34l.2-.02h20.53v5.85H71.74l-.13-.31v.32l-.15.01h-.15l-.13-.31v.32l-.15.01H71l-.09.01-.15-.31.04.31-.17.02-.05.01h-.08l-.04.01-.11.01-.05.02h-.08l-.15-.29.04.31-.17-.29.04.31-.34.07-.22.05-.15-.28.04.31-.17-.29.04.31-.13.04-.17-.28.04.31-.05.02h-.07l-.19-.25.04.31-.04.03-.11.03-.15-.28.04.31-.17-.27.04.31-.13.06-.11.04-.04.03-.11.03-.15-.28.04.31-.04.03-.05.01-.11.06-.24.1-.14.08-.04.03-.13.05-.14.08-.11.05-.15.09-.14.07-.02.01-.13.06-.13.09-.28-.18.17.26-.08.05-.21-.24.12.29-.11.07-.03-.03V59l-.14.11-.22.15-.11.09-.28-.18.16.27-.27-.18.18.26-.1.09-.28-.18.17.27-.03.05-.11.08-.11.09-.32-.13.22.22-.1.09-.03.05-.06.04-.02.03-.08.08a10.999 10.999 0 0 0-2.38 3.53c-.58 1.36-.86 2.75-.86 4.18v176.83c0 1.41.28 2.8.83 4.15a11.16 11.16 0 0 0 5.91 5.91c1.3.54 2.69.81 4.14.81h135.78c1.43 0 2.83-.27 4.15-.81 1.31-.56 2.53-1.38 3.53-2.38s1.82-2.22 2.38-3.54c.54-1.31.81-2.71.81-4.14v-3.39c0-1.61 1.31-2.92 2.92-2.92 1.62 0 2.94 1.31 2.94 2.92v3.39c0 2.15-.43 4.3-1.28 6.38a16.69 16.69 0 0 1-3.63 5.44 16.69 16.69 0 0 1-5.44 3.63c-2.03.85-4.18 1.28-6.38 1.28H71.89zM221.46 119.6c-1.36 0-2.54-.96-2.84-2.26h-.05l-.04-.31V68.01c0-1.45-.27-2.85-.81-4.15-.55-1.32-1.35-2.51-2.38-3.53l-.09-.1.11-.32-.22.22.13-.31-.23.22-.05-.04-.03-.05.11-.32-.23.22-.1-.09.13-.31-.23.22-.1-.08.11-.31-.23.22-.05-.03-.03-.05-.23-.17-.25-.17-.01-.02-.02-.02h-.09l-.04-.07-.23-.15.06-.33-.17.26-.13-.08-.11-.07-.15-.07.08-.31-.17.26.06-.33-.15.28-.05-.01-.04-.03.12-.29-.23.22-.04-.01-.09-.04-.05-.01-.08-.04-.07-.04-.14-.06-.26-.12-.04-.01-.05-.03-.09-.03-.09-.04-.01-.33-.1.29-.27-.1-.16-.05-.09-.04-.01-.33-.15.28-.13-.04.02-.32-.15.28-.13-.04h-.05l-.1-.02.04-.31-.15.28-.1-.03H210l-.08-.02-.03-.33-.08.3h-.04l-.19-.04h-.04l-.08-.01-.08-.02h-.04l-.07-.01h-.04l-.09-.02h-.05l-.12-.03h-.11l-.07-.33-.06.31-.28-.02-.07-.33-.07.31h-.28l-.07-.33-.07.31h-20.35V51.3h20.69l.12.03.05-.01h.23l.12.03.08-.01.12.03.08-.01h.12l.11.02.21.02.1.02.08-.01.12.03.17.01.52.1h.1l.3.06.2.05.1.02.03.32.15-.28.13.02.12.05.27.04.12.05.37.11h.04l.16.06.37.11.07.36.06-.3.15.03.19.07-.02.32.21-.25.28.11-.02.32.21-.25.37.15.14.08.14.05.16.09.16.06.12.06.07.03.09.06.09.03.11.08.16.07.09.06.12.05.14.09c.14.08.29.16.43.25h.04l.11.09.23.14.05.04.09.05.08.06h.03l.11.09.13.1.15.1.26.2-.04.35.16-.26.09.06.28.25.05.02.21.16v.02l.28.25.07.07.15.13.07.07.15.13.08.08.15.13.08.08c1.54 1.54 2.79 3.42 3.63 5.44.85 2.06 1.28 4.21 1.28 6.38v49.34h-.09a2.946 2.946 0 0 1-2.86 2.25z"/><path d="M182.3 51.89v-.46a3.162 3.162 0 0 0-.93-2.25c-.31-.31-.66-.55-1.02-.69a2.99 2.99 0 0 0-1.2-.24H159.9c-1.43 0-2.97-.45-4.35-1.27-1.36-.81-2.5-1.96-3.19-3.23a14.39 14.39 0 0 0-5.28-5.48c-2.2-1.31-4.73-2-7.31-2-2.59 0-5.11.69-7.29 2a14.39 14.39 0 0 0-5.28 5.48c-.72 1.29-1.85 2.44-3.19 3.23-1.38.82-2.92 1.27-4.35 1.27h-19.24c-.43 0-.83.08-1.19.23-.37.14-.72.38-1.03.69-.3.3-.54.65-.72 1.04-.14.35-.21.75-.21 1.21v.46H91.4v-.46c0-1.18.23-2.34.69-3.45a8.936 8.936 0 0 1 1.96-2.92c.83-.83 1.83-1.5 2.92-1.96a9.05 9.05 0 0 1 3.46-.69h19.24c.4 0 .87-.15 1.37-.42.46-.29.84-.66 1.05-1.03 1.73-3.18 4.3-5.84 7.41-7.69 3.13-1.85 6.69-2.82 10.28-2.82 3.61 0 7.17.98 10.28 2.82 3.1 1.83 5.67 4.49 7.43 7.7.21.37.58.74 1.06 1.04.48.27.96.42 1.35.42h19.24c1.17 0 2.36.24 3.44.69a9.072 9.072 0 0 1 4.9 4.88c.45 1.09.67 2.25.67 3.46v.46h-5.85zM100.42 73.26c-1.21 0-2.37-.23-3.44-.69a9.013 9.013 0 0 1-2.89-1.92l-.13-.13v-.02c-.78-.8-1.41-1.74-1.86-2.8a9.027 9.027 0 0 1-.69-3.44V56.5h5.87v7.76c0 .44.07.85.22 1.2.17.4.41.75.71 1.02.32.32.67.56 1.03.7.39.16.79.24 1.2.24h78.72c.41 0 .81-.08 1.2-.24.36-.14.72-.38 1.03-.69.3-.29.54-.64.69-1.03.16-.39.24-.79.24-1.2V56.5h5.85v7.76c0 1.19-.23 2.35-.67 3.44a9 9 0 0 1-1.85 2.79l-.09.11-.09.09c-.89.84-1.85 1.47-2.86 1.89-1.07.46-2.23.69-3.44.69h-78.75z"/><path d="M182.3 51.27h5.85v5.85h-5.85zM91.39 51.27h5.87v5.85h-5.87zM90.39 236.98c-.68 0-1.33-.23-1.84-.66l-8.1-6.6a2.92 2.92 0 0 1-.42-4.1c.55-.69 1.38-1.09 2.27-1.09.67 0 1.32.23 1.83.65l5.86 4.77 14.25-17.67c.54-.69 1.37-1.09 2.27-1.09.67 0 1.33.23 1.84.65.6.47.98 1.17 1.07 1.94.09.79-.14 1.55-.64 2.16L92.7 235.89c-.49.63-1.23 1.01-2.07 1.08-.08.01-.16.01-.24.01zM90.39 194.92c-.68 0-1.33-.23-1.84-.65l-8.1-6.6a2.933 2.933 0 0 1-.42-4.12 2.9 2.9 0 0 1 2.26-1.07c.67 0 1.32.23 1.84.66 1.96 1.58 3.9 3.17 5.86 4.77 4.48-5.58 8.98-11.16 13.47-16.72l.77-.96c.55-.69 1.38-1.08 2.28-1.08.67 0 1.32.23 1.83.65.61.49.99 1.19 1.07 1.96.08.78-.14 1.54-.64 2.14L92.7 193.84c-.5.62-1.25 1.01-2.07 1.08h-.24zM116.15 184.96c-1.61 0-2.92-1.31-2.92-2.92 0-1.62 1.31-2.94 2.92-2.94h27.67c1.61 0 2.92 1.32 2.92 2.94 0 1.61-1.31 2.92-2.92 2.92h-27.67zM90.39 152.85c-.68 0-1.33-.23-1.84-.66l-2.82-2.3c-1.76-1.43-3.52-2.86-5.28-4.3-1.24-1.01-1.43-2.86-.42-4.12a2.92 2.92 0 0 1 2.27-1.07c.67 0 1.32.23 1.84.66 1.96 1.6 3.9 3.19 5.86 4.77 4.19-5.2 8.39-10.41 12.59-15.61l1.66-2.05c.54-.69 1.37-1.09 2.27-1.09.67 0 1.33.23 1.84.65.6.47.98 1.17 1.07 1.94.09.79-.14 1.55-.64 2.16L92.7 151.76c-.49.63-1.23 1.01-2.07 1.08-.08 0-.16.01-.24.01zM90.33 110.78c-.66 0-1.3-.24-1.8-.67l-8.09-6.59a2.92 2.92 0 0 1-.42-4.1 2.9 2.9 0 0 1 2.26-1.07c.67 0 1.32.23 1.84.66l5.86 4.75 14.25-17.67c.55-.69 1.38-1.08 2.28-1.08.67 0 1.32.23 1.83.65.61.49.99 1.19 1.07 1.96.08.78-.14 1.54-.64 2.14L92.7 109.68a2.82 2.82 0 0 1-2.08 1.08c-.08.01-.18.02-.29.02zM116.15 100.83c-1.61 0-2.92-1.32-2.92-2.94 0-1.61 1.31-2.92 2.92-2.92h83.04c1.61 0 2.92 1.31 2.92 2.92 0 1.62-1.31 2.94-2.92 2.94h-83.04zM116.15 142.88c-1.61 0-2.92-1.31-2.92-2.92s1.31-2.92 2.92-2.92h31.23c1.61 0 2.92 1.31 2.92 2.92s-1.31 2.92-2.92 2.92h-31.23zM139.77 59.31c-2.31 0-4.48-.91-6.13-2.56a8.6 8.6 0 0 1-2.54-6.13c0-2.33.9-4.51 2.54-6.15a8.6 8.6 0 0 1 6.13-2.54c2.33 0 4.51.9 6.15 2.54a8.628 8.628 0 0 1 2.54 6.15c0 2.32-.9 4.5-2.54 6.13a8.64 8.64 0 0 1-6.15 2.56zm0-11.53c-.74 0-1.48.3-2.01.84-.52.52-.82 1.25-.82 2s.29 1.46.82 2.01c.53.51 1.26.81 2 .81.75 0 1.49-.3 2.01-.82.54-.54.83-1.25.83-2.01 0-.76-.3-1.49-.83-2a2.78 2.78 0 0 0-2-.83z"/><path d="M209.27 208.84c-.45 0-.9-.01-1.35-.02-5.03-.16-9.92-1.3-14.56-3.39a38.491 38.491 0 0 1-12.18-8.73c-3.47-3.73-6.13-8-7.9-12.72-1.78-4.72-2.59-9.69-2.44-14.78.18-5.11 1.33-10 3.41-14.56 2.08-4.6 5.01-8.7 8.73-12.18 3.7-3.46 7.99-6.13 12.74-7.92a38.21 38.21 0 0 1 13.43-2.44 38.09 38.09 0 0 1 15.88 3.41c4.63 2.11 8.73 5.05 12.18 8.73 3.47 3.72 6.13 8 7.9 12.72 1.78 4.72 2.6 9.69 2.44 14.78-.18 5.09-1.32 10-3.41 14.58a38.146 38.146 0 0 1-8.73 12.16c-3.7 3.46-7.97 6.12-12.72 7.92a37.87 37.87 0 0 1-13.42 2.44zm-21.74-62.44a32.151 32.151 0 0 0-7.5 10.04 32.245 32.245 0 0 0-3.17 12.25c-.24 4.22.37 8.43 1.79 12.5.33.87 1.17 1.45 2.09 1.45.25 0 .49-.04.72-.12a2.212 2.212 0 0 0 1.35-2.81 27.55 27.55 0 0 1-1.52-10.79c.2-3.67 1.11-7.23 2.71-10.57 1.63-3.36 3.84-6.3 6.57-8.74 2.75-2.46 5.91-4.32 9.39-5.54l.15-.04c.69-.28 1.22-.9 1.37-1.64.16-.78-.13-1.59-.76-2.12a2.202 2.202 0 0 0-2.07-.42l-.13.06c-4.08 1.43-7.74 3.58-10.89 6.41l-.09.08h-.01z" style="fill:#96ccff"/><path class="st21" d="M263.29 261.89c-.66 0-1.31-.05-1.95-.16-3.05-.49-5.67-2.08-7.38-4.49-.14-.19-.27-.39-.39-.58l-28.5-46.43.34-.14c1.6-.66 3.13-1.39 4.54-2.17 1.98-1.1 3.91-2.39 5.74-3.83 1.02-.81 1.93-1.58 2.77-2.37.26-.25.52-.51.78-.76l.45-.45 33.51 42.21c.12.16.22.3.34.45 1.75 2.45 2.41 5.49 1.89 8.56-.53 2.98-2.12 5.65-4.46 7.51l-.12.09c-.18.14-.31.24-.4.3-.21.16-.43.31-.67.45a12.527 12.527 0 0 1-6.49 1.81z"/><path class="st21" d="M209.28 213.87c-.5 0-.99-.01-1.49-.03-5.75-.19-11.3-1.48-16.49-3.82a43.329 43.329 0 0 1-13.77-9.9c-3.93-4.21-6.95-9.05-8.96-14.4-2-5.3-2.92-10.92-2.74-16.69.19-5.77 1.48-11.32 3.84-16.49 2.34-5.19 5.67-9.82 9.89-13.77 4.19-3.93 9.03-6.94 14.38-8.96l.05-.02h.06c4.74-1.8 9.85-2.73 15.1-2.73.5 0 1 .01 1.5.03a43.32 43.32 0 0 1 16.47 3.82c5.22 2.38 9.86 5.71 13.77 9.9 3.93 4.21 6.95 9.05 8.96 14.4a43.1 43.1 0 0 1 2.74 16.69c-.19 5.77-1.48 11.32-3.84 16.49-2.14 4.73-5.12 9.03-8.88 12.79l-.2.2c-.26.26-.52.52-.79.78-.85.8-1.77 1.58-2.81 2.4a42.852 42.852 0 0 1-5.83 3.89c-1.43.79-2.97 1.53-4.6 2.2l-.29.12c-.29.12-.58.24-.88.35l-.05.02h-.06c-4.73 1.81-9.84 2.73-15.08 2.73zm-.12-81.15c-4.51 0-8.96.81-13.22 2.4a37.67 37.67 0 0 0-12.53 7.79 37.262 37.262 0 0 0-8.59 11.98c-2.05 4.48-3.18 9.3-3.36 14.32-.16 5.01.65 9.9 2.4 14.54 1.75 4.64 4.36 8.85 7.78 12.51 3.39 3.62 7.42 6.52 11.98 8.59 4.56 2.06 9.38 3.18 14.32 3.34.45.01.89.02 1.33.02 4.53 0 8.98-.81 13.21-2.4 4.67-1.77 8.88-4.39 12.51-7.79 3.65-3.42 6.54-7.44 8.59-11.96 2.05-4.5 3.18-9.33 3.35-14.34.16-5-.65-9.9-2.4-14.54a37.736 37.736 0 0 0-7.78-12.51 37.83 37.83 0 0 0-11.98-8.59 37.406 37.406 0 0 0-15.61-3.36z"/><path class="st3" d="M180.74 183.26c-1.18 0-2.25-.75-2.67-1.86-1.45-4.15-2.07-8.44-1.83-12.74.25-4.37 1.34-8.57 3.23-12.48 1.88-3.93 4.48-7.4 7.73-10.31l.09-.08h.02c3.19-2.84 6.89-5.01 10.99-6.44l.14-.06c.31-.09.59-.14.87-.14.66 0 1.31.24 1.82.67.8.67 1.16 1.71.96 2.71-.2.95-.86 1.74-1.78 2.11l-.16.05a27.347 27.347 0 0 0-9.16 5.41 27.403 27.403 0 0 0-6.42 8.55 26.988 26.988 0 0 0-2.65 10.33c-.2 3.62.3 7.17 1.49 10.55.52 1.46-.26 3.07-1.73 3.6-.32.08-.63.13-.94.13z"/><path d="M116.15 227.02c-1.61 0-2.92-1.31-2.92-2.92s1.31-2.92 2.92-2.92h83.04c1.61 0 2.92 1.31 2.92 2.92s-1.31 2.92-2.92 2.92h-83.04z"/></g></svg>