<?xml version="1.0" encoding="utf-8"?>
<!-- Generator: Adobe Illustrator 27.5.0, SVG Export Plug-In . SVG Version: 6.00 Build 0)  -->
<svg version="1.1" xmlns="http://www.w3.org/2000/svg" xmlns:xlink="http://www.w3.org/1999/xlink" x="0px" y="0px"
	 viewBox="0 0 300 300" style="enable-background:new 0 0 300 300;" xml:space="preserve">
<style type="text/css">
	.st0{fill:#FFC934;}
	.st1{fill:#E8FFD6;}
	.st2{fill:#F0F0F0;}
	.st3{fill:#FFFFFF;}
	.st4{fill:#E7E7E8;}
	.st5{fill:#FFE7A9;}
	.st6{fill:#15AB00;}
	.st7{fill:#F0AE2C;}
	.st8{fill:none;stroke:#15AB00;stroke-width:6;stroke-miterlimit:10;}
	.st9{fill:#FFFFFF;stroke:#717071;stroke-miterlimit:10;}
	.st10{fill:#BC0D23;}
	.st11{fill:#EBAC00;}
	.st12{fill:#E8FFD6;stroke:#87CE4B;stroke-width:3.1265;stroke-miterlimit:10;}
	.st13{fill:none;stroke:#15AB00;stroke-miterlimit:10;}
	.st14{fill:url(#SVGID_1_);}
	.st15{fill:none;stroke:#FFFFFF;stroke-width:5;stroke-miterlimit:10;}
	.st16{fill:#EB5D00;}
	.st17{fill:#EB8F00;}
	.st18{fill:#15AB00;stroke:#15AB00;stroke-width:78.8381;stroke-linecap:round;stroke-linejoin:round;stroke-miterlimit:10;}
	.st19{fill:#15AB00;stroke:#15AB00;stroke-width:3;stroke-linecap:round;stroke-linejoin:round;stroke-miterlimit:10;}
	.st20{fill:#FFFFFF;stroke:#FFFFFF;stroke-width:2.2619;stroke-miterlimit:10;}
	.st21{fill:#298D00;}
	.st22{fill:#FFF5BE;stroke:#FF9F32;stroke-width:3.1265;stroke-miterlimit:10;}
	.st23{fill:#FF9F32;}
	.st24{clip-path:url(#SVGID_00000176026021967582488650000011837476949983411339_);}
	.st25{fill:#94BED2;}
	.st26{fill:#FFDFC6;}
	.st27{fill:#333333;}
	.st28{fill:#C1C2C3;}
	.st29{fill:#96CCFF;}
	.st30{fill:#FFEC9D;stroke:#231815;stroke-width:3.6625;stroke-linecap:round;stroke-linejoin:round;stroke-miterlimit:10;}
	.st31{clip-path:url(#SVGID_00000065791740007255062980000009750390744529956535_);}
	.st32{fill:#FFFFFF;stroke:#231815;stroke-width:1.7632;stroke-linecap:round;stroke-linejoin:round;stroke-miterlimit:10;}
	.st33{fill:#C7FFFF;stroke:#231815;stroke-width:3.5;stroke-linecap:round;stroke-linejoin:round;stroke-miterlimit:10;}
	.st34{fill:#FFFFFF;stroke:#231815;stroke-width:3.5;stroke-linecap:round;stroke-linejoin:round;stroke-miterlimit:10;}
	.st35{fill:#FFFFFF;stroke:#231815;stroke-width:1.6;stroke-miterlimit:10;}
	.st36{fill:#87CE4B;stroke:#231815;stroke-width:3.5;stroke-miterlimit:10;}
	.st37{fill:#FFFFFF;stroke:#231815;stroke-width:3.5;stroke-miterlimit:10;}
	.st38{fill:#FFDD00;stroke:#231815;stroke-width:3.5;stroke-miterlimit:10;}
	.st39{fill:#D6FFFF;stroke:#231815;stroke-width:3.5;stroke-miterlimit:10;}
	.st40{fill:#FFFFFF;stroke:#201D1E;stroke-width:3.5517;stroke-miterlimit:10;}
	.st41{fill:#ADADAE;stroke:#201D1E;stroke-width:3.5;stroke-miterlimit:10;}
	.st42{fill-rule:evenodd;clip-rule:evenodd;fill:#FFFFFF;stroke:#201D1E;stroke-width:2;stroke-miterlimit:10;}
	.st43{fill-rule:evenodd;clip-rule:evenodd;fill:#201D1E;}
	
		.st44{fill-rule:evenodd;clip-rule:evenodd;fill:none;stroke:#201D1E;stroke-width:3.0146;stroke-linecap:round;stroke-linejoin:round;stroke-miterlimit:10;}
	.st45{fill:#FFDFA6;stroke:#000000;stroke-width:3.0469;stroke-linecap:round;stroke-linejoin:round;stroke-miterlimit:10;}
	.st46{fill:#EF6F00;stroke:#000000;stroke-width:3.1265;stroke-linecap:round;stroke-linejoin:round;stroke-miterlimit:10;}
	.st47{fill:#FFFFFF;stroke:#000000;stroke-width:3.1265;stroke-linecap:round;stroke-linejoin:round;stroke-miterlimit:10;}
	
		.st48{fill-rule:evenodd;clip-rule:evenodd;fill:#DECD96;stroke:#000000;stroke-width:2.9737;stroke-linecap:round;stroke-linejoin:round;stroke-miterlimit:10;}
	.st49{fill:#E6FFFF;stroke:#231815;stroke-width:3.5;stroke-linecap:round;stroke-linejoin:round;stroke-miterlimit:10;}
	.st50{fill:#8FFFFF;stroke:#231815;stroke-width:2.2832;stroke-linecap:round;stroke-linejoin:round;stroke-miterlimit:10;}
	.st51{fill:#87CE4B;stroke:#231815;stroke-width:1.6;stroke-miterlimit:10;}
	.st52{fill:#FFDD00;stroke:#231815;stroke-width:1.6;stroke-miterlimit:10;}
	.st53{fill:#FFECBB;stroke:#231815;stroke-width:1.6;stroke-miterlimit:10;}
	.st54{fill:#FFE400;}
	.st55{clip-path:url(#SVGID_00000007409266318720026820000011624859612582947503_);fill:#EB7E00;}
	.st56{clip-path:url(#SVGID_00000007409266318720026820000011624859612582947503_);fill:#EB7F01;}
	.st57{clip-path:url(#SVGID_00000007409266318720026820000011624859612582947503_);fill:#EB8001;}
	.st58{clip-path:url(#SVGID_00000007409266318720026820000011624859612582947503_);fill:#EB8102;}
	.st59{clip-path:url(#SVGID_00000007409266318720026820000011624859612582947503_);fill:#EB8203;}
	.st60{clip-path:url(#SVGID_00000007409266318720026820000011624859612582947503_);fill:#EB8304;}
	.st61{clip-path:url(#SVGID_00000007409266318720026820000011624859612582947503_);fill:#EB8404;}
	.st62{clip-path:url(#SVGID_00000007409266318720026820000011624859612582947503_);fill:#EC8505;}
	.st63{clip-path:url(#SVGID_00000007409266318720026820000011624859612582947503_);fill:#EC8606;}
	.st64{clip-path:url(#SVGID_00000007409266318720026820000011624859612582947503_);fill:#EC8707;}
	.st65{clip-path:url(#SVGID_00000007409266318720026820000011624859612582947503_);fill:#EC8807;}
	.st66{clip-path:url(#SVGID_00000007409266318720026820000011624859612582947503_);fill:#EC8908;}
	.st67{clip-path:url(#SVGID_00000007409266318720026820000011624859612582947503_);fill:#EC8A09;}
	.st68{clip-path:url(#SVGID_00000007409266318720026820000011624859612582947503_);fill:#EC8B0A;}
	.st69{clip-path:url(#SVGID_00000007409266318720026820000011624859612582947503_);fill:#EC8C0A;}
	.st70{clip-path:url(#SVGID_00000007409266318720026820000011624859612582947503_);fill:#EC8D0B;}
	.st71{clip-path:url(#SVGID_00000007409266318720026820000011624859612582947503_);fill:#EC8E0C;}
	.st72{clip-path:url(#SVGID_00000007409266318720026820000011624859612582947503_);fill:#EC8F0D;}
	.st73{clip-path:url(#SVGID_00000007409266318720026820000011624859612582947503_);fill:#ED900D;}
	.st74{clip-path:url(#SVGID_00000007409266318720026820000011624859612582947503_);fill:#ED910E;}
	.st75{clip-path:url(#SVGID_00000007409266318720026820000011624859612582947503_);fill:#ED920F;}
	.st76{clip-path:url(#SVGID_00000007409266318720026820000011624859612582947503_);fill:#ED9310;}
	.st77{clip-path:url(#SVGID_00000007409266318720026820000011624859612582947503_);fill:#ED9410;}
	.st78{clip-path:url(#SVGID_00000007409266318720026820000011624859612582947503_);fill:#ED9511;}
	.st79{clip-path:url(#SVGID_00000007409266318720026820000011624859612582947503_);fill:#ED9612;}
	.st80{clip-path:url(#SVGID_00000007409266318720026820000011624859612582947503_);fill:#ED9713;}
	.st81{clip-path:url(#SVGID_00000007409266318720026820000011624859612582947503_);fill:#ED9813;}
	.st82{clip-path:url(#SVGID_00000007409266318720026820000011624859612582947503_);fill:#ED9914;}
	.st83{clip-path:url(#SVGID_00000007409266318720026820000011624859612582947503_);fill:#ED9A15;}
	.st84{clip-path:url(#SVGID_00000007409266318720026820000011624859612582947503_);fill:#ED9B16;}
	.st85{clip-path:url(#SVGID_00000007409266318720026820000011624859612582947503_);fill:#EE9C16;}
	.st86{clip-path:url(#SVGID_00000007409266318720026820000011624859612582947503_);fill:#EE9D17;}
	.st87{clip-path:url(#SVGID_00000007409266318720026820000011624859612582947503_);fill:#EE9E18;}
	.st88{clip-path:url(#SVGID_00000007409266318720026820000011624859612582947503_);fill:#EE9F19;}
	.st89{clip-path:url(#SVGID_00000007409266318720026820000011624859612582947503_);fill:#EEA01A;}
	.st90{clip-path:url(#SVGID_00000007409266318720026820000011624859612582947503_);fill:#EEA11A;}
	.st91{clip-path:url(#SVGID_00000007409266318720026820000011624859612582947503_);fill:#EEA21B;}
	.st92{clip-path:url(#SVGID_00000007409266318720026820000011624859612582947503_);fill:#EEA31C;}
	.st93{clip-path:url(#SVGID_00000007409266318720026820000011624859612582947503_);fill:#EEA41D;}
	.st94{clip-path:url(#SVGID_00000007409266318720026820000011624859612582947503_);fill:#EEA51D;}
	.st95{clip-path:url(#SVGID_00000007409266318720026820000011624859612582947503_);fill:#EEA61E;}
	.st96{clip-path:url(#SVGID_00000007409266318720026820000011624859612582947503_);fill:#EFA71F;}
	.st97{clip-path:url(#SVGID_00000007409266318720026820000011624859612582947503_);fill:#EFA820;}
	.st98{clip-path:url(#SVGID_00000007409266318720026820000011624859612582947503_);fill:#EFAA20;}
	.st99{clip-path:url(#SVGID_00000007409266318720026820000011624859612582947503_);fill:#EFAB21;}
	.st100{clip-path:url(#SVGID_00000007409266318720026820000011624859612582947503_);fill:#EFAC22;}
	.st101{clip-path:url(#SVGID_00000007409266318720026820000011624859612582947503_);fill:#EFAD23;}
	.st102{clip-path:url(#SVGID_00000007409266318720026820000011624859612582947503_);fill:#EFAE24;}
	.st103{clip-path:url(#SVGID_00000007409266318720026820000011624859612582947503_);fill:#EFAF24;}
	.st104{clip-path:url(#SVGID_00000007409266318720026820000011624859612582947503_);fill:#EFB025;}
	.st105{clip-path:url(#SVGID_00000007409266318720026820000011624859612582947503_);fill:#EFB126;}
	.st106{clip-path:url(#SVGID_00000007409266318720026820000011624859612582947503_);fill:#EFB227;}
	.st107{clip-path:url(#SVGID_00000007409266318720026820000011624859612582947503_);fill:#EFB327;}
	.st108{clip-path:url(#SVGID_00000007409266318720026820000011624859612582947503_);fill:#F0B428;}
	.st109{clip-path:url(#SVGID_00000007409266318720026820000011624859612582947503_);fill:#F0B529;}
	.st110{clip-path:url(#SVGID_00000007409266318720026820000011624859612582947503_);fill:#F0B62A;}
	.st111{clip-path:url(#SVGID_00000007409266318720026820000011624859612582947503_);fill:#F0B72A;}
	.st112{clip-path:url(#SVGID_00000007409266318720026820000011624859612582947503_);fill:#F0B82B;}
	.st113{clip-path:url(#SVGID_00000007409266318720026820000011624859612582947503_);fill:#F0B92C;}
	.st114{fill:none;stroke:#15AB00;stroke-width:2.5;stroke-miterlimit:10;}
	.st115{fill:url(#SVGID_00000080916387997449846760000007193519654569946806_);}
	.st116{fill:#FFDE00;}
	.st117{fill:none;stroke:#E03828;stroke-width:2.9079;stroke-miterlimit:10;}
	.st118{fill:none;stroke:#15AB00;stroke-width:5;stroke-miterlimit:10;}
	.st119{opacity:0.3;}
	.st120{opacity:0.65;}
	.st121{opacity:0;fill:#FFFFFF;}
	.st122{opacity:9.900990e-03;fill:#FDFDFD;}
	.st123{opacity:0.0198;fill:#FBFBFB;}
	.st124{opacity:0.0297;fill:#F9F9F9;}
	.st125{opacity:0.0396;fill:#F6F7F7;}
	.st126{opacity:0.0495;fill:#F4F5F5;}
	.st127{opacity:0.0594;fill:#F2F2F3;}
	.st128{opacity:0.0693;fill:#F0F0F2;}
	.st129{opacity:0.0792;fill:#EEEEF0;}
	.st130{opacity:0.0891;fill:#ECECEE;}
	.st131{opacity:0.099;fill:#EAEAEC;}
	.st132{opacity:0.1089;fill:#E8E8EA;}
	.st133{opacity:0.1188;fill:#E5E6E8;}
	.st134{opacity:0.1287;fill:#E3E4E6;}
	.st135{opacity:0.1386;fill:#E1E2E4;}
	.st136{opacity:0.1485;fill:#DFE0E2;}
	.st137{opacity:0.1584;fill:#DDDEE0;}
	.st138{opacity:0.1683;fill:#DBDBDE;}
	.st139{opacity:0.1782;fill:#D9D9DC;}
	.st140{opacity:0.1881;fill:#D7D7DB;}
	.st141{opacity:0.198;fill:#D4D5D9;}
	.st142{opacity:0.2079;fill:#D2D3D7;}
	.st143{opacity:0.2178;fill:#D0D1D5;}
	.st144{opacity:0.2277;fill:#CECFD3;}
	.st145{opacity:0.2376;fill:#CCCDD1;}
	.st146{opacity:0.2475;fill:#CACBCF;}
	.st147{opacity:0.2574;fill:#C8C9CD;}
	.st148{opacity:0.2673;fill:#C6C7CB;}
	.st149{opacity:0.2772;fill:#C3C5C9;}
	.st150{opacity:0.2871;fill:#C1C2C7;}
	.st151{opacity:0.297;fill:#BFC0C5;}
	.st152{opacity:0.3069;fill:#BDBEC3;}
	.st153{opacity:0.3168;fill:#BBBCC2;}
	.st154{opacity:0.3267;fill:#B9BAC0;}
	.st155{opacity:0.3366;fill:#B7B8BE;}
	.st156{opacity:0.3465;fill:#B4B6BC;}
	.st157{opacity:0.3564;fill:#B2B4BA;}
	.st158{opacity:0.3663;fill:#B0B2B8;}
	.st159{opacity:0.3762;fill:#AEB0B6;}
	.st160{opacity:0.3861;fill:#ACAEB4;}
	.st161{opacity:0.396;fill:#AAABB2;}
	.st162{opacity:0.4059;fill:#A8A9B0;}
	.st163{opacity:0.4158;fill:#A6A7AE;}
	.st164{opacity:0.4257;fill:#A3A5AC;}
	.st165{opacity:0.4356;fill:#A1A3AA;}
	.st166{opacity:0.4455;fill:#9FA1A9;}
	.st167{opacity:0.4554;fill:#9D9FA7;}
	.st168{opacity:0.4653;fill:#9B9DA5;}
	.st169{opacity:0.4752;fill:#999BA3;}
	.st170{opacity:0.4851;fill:#9799A1;}
	.st171{opacity:0.495;fill:#95979F;}
	.st172{opacity:0.505;fill:#92949D;}
	.st173{opacity:0.5149;fill:#90929B;}
	.st174{opacity:0.5248;fill:#8E9099;}
	.st175{opacity:0.5347;fill:#8C8E97;}
	.st176{opacity:0.5446;fill:#8A8C95;}
	.st177{opacity:0.5545;fill:#888A93;}
	.st178{opacity:0.5644;fill:#868892;}
	.st179{opacity:0.5743;fill:#848690;}
	.st180{opacity:0.5842;fill:#81848E;}
	.st181{opacity:0.5941;fill:#7F828C;}
	.st182{opacity:0.604;fill:#7D808A;}
	.st183{opacity:0.6139;fill:#7B7D88;}
	.st184{opacity:0.6238;fill:#797B86;}
	.st185{opacity:0.6337;fill:#777984;}
	.st186{opacity:0.6436;fill:#757782;}
	.st187{opacity:0.6535;fill:#737580;}
	.st188{opacity:0.6634;fill:#70737E;}
	.st189{opacity:0.6733;fill:#6E717C;}
	.st190{opacity:0.6832;fill:#6C6F7A;}
	.st191{opacity:0.6931;fill:#6A6D79;}
	.st192{opacity:0.703;fill:#686B77;}
	.st193{opacity:0.7129;fill:#666975;}
	.st194{opacity:0.7228;fill:#646673;}
	.st195{opacity:0.7327;fill:#616471;}
	.st196{opacity:0.7426;fill:#5F626F;}
	.st197{opacity:0.7525;fill:#5D606D;}
	.st198{opacity:0.7624;fill:#5B5E6B;}
	.st199{opacity:0.7723;fill:#595C69;}
	.st200{opacity:0.7822;fill:#575A67;}
	.st201{opacity:0.7921;fill:#555865;}
	.st202{opacity:0.802;fill:#535663;}
	.st203{opacity:0.8119;fill:#505461;}
	.st204{opacity:0.8218;fill:#4E5260;}
	.st205{opacity:0.8317;fill:#4C505E;}
	.st206{opacity:0.8416;fill:#4A4D5C;}
	.st207{opacity:0.8515;fill:#484B5A;}
	.st208{opacity:0.8614;fill:#464958;}
	.st209{opacity:0.8713;fill:#444756;}
	.st210{opacity:0.8812;fill:#424554;}
	.st211{opacity:0.8911;fill:#3F4352;}
	.st212{opacity:0.901;fill:#3D4150;}
	.st213{opacity:0.9109;fill:#3B3F4E;}
	.st214{opacity:0.9208;fill:#393D4C;}
	.st215{opacity:0.9307;fill:#373B4A;}
	.st216{opacity:0.9406;fill:#353949;}
	.st217{opacity:0.9505;fill:#333647;}
	.st218{opacity:0.9604;fill:#313445;}
	.st219{opacity:0.9703;fill:#2E3243;}
	.st220{opacity:0.9802;fill:#2C3041;}
	.st221{opacity:0.9901;fill:#2A2E3F;}
	.st222{fill:#282C3D;}
	.st223{opacity:0.22;fill:#FFFFFF;}
	.st224{fill:#808080;}
	.st225{fill:#818181;}
	.st226{fill:#828282;}
	.st227{fill:#838383;}
	.st228{fill:#858585;}
	.st229{fill:#868686;}
	.st230{fill:#878787;}
	.st231{fill:#888888;}
	.st232{fill:#898989;}
	.st233{fill:#8A8A8A;}
	.st234{fill:#8C8C8C;}
	.st235{fill:#8D8D8D;}
	.st236{fill:#8E8E8E;}
	.st237{fill:#8F8F8F;}
	.st238{fill:#909090;}
	.st239{fill:#919191;}
	.st240{fill:#939393;}
	.st241{fill:#949494;}
	.st242{fill:#959595;}
	.st243{fill:#969696;}
	.st244{fill:#979797;}
	.st245{fill:#989898;}
	.st246{fill:#999999;}
	.st247{fill:#9B9B9B;}
	.st248{fill:#9C9C9C;}
	.st249{fill:#9D9D9D;}
	.st250{fill:#9E9E9E;}
	.st251{fill:#9F9F9F;}
	.st252{fill:#A0A0A0;}
	.st253{fill:#A2A2A2;}
	.st254{fill:#A3A3A3;}
	.st255{fill:#A4A4A4;}
	.st256{fill:#A5A5A5;}
	.st257{fill:#A6A6A6;}
	.st258{fill:#A7A7A7;}
	.st259{fill:#A9A9A9;}
	.st260{fill:#AAAAAA;}
	.st261{fill:#ABABAB;}
	.st262{fill:#ACACAC;}
	.st263{fill:#ADADAD;}
	.st264{fill:#AEAEAE;}
	.st265{fill:#AFAFAF;}
	.st266{fill:#B1B1B1;}
	.st267{fill:#B2B2B2;}
	.st268{fill:#B3B3B3;}
	.st269{fill:#B4B4B4;}
	.st270{fill:#B5B5B5;}
	.st271{fill:#B6B6B6;}
	.st272{fill:#B8B8B8;}
	.st273{fill:#B9B9B9;}
	.st274{fill:#BABABA;}
	.st275{fill:#BBBBBB;}
	.st276{fill:#BCBCBC;}
	.st277{fill:#BDBDBD;}
	.st278{fill:#BFBFBF;}
	.st279{fill:#C0C0C0;}
	.st280{fill:#C1C1C1;}
	.st281{fill:#C2C2C2;}
	.st282{fill:#C3C3C3;}
	.st283{fill:#C4C4C4;}
	.st284{fill:#C6C6C6;}
	.st285{fill:#C7C7C7;}
	.st286{fill:#C8C8C8;}
	.st287{fill:#C9C9C9;}
	.st288{fill:#CACACA;}
	.st289{fill:#CBCBCB;}
	.st290{fill:#CCCCCC;}
	.st291{fill:#CECECE;}
	.st292{fill:#CFCFCF;}
	.st293{fill:#D0D0D0;}
	.st294{fill:#D1D1D1;}
	.st295{fill:#D2D2D2;}
	.st296{fill:#D3D3D3;}
	.st297{fill:#D5D5D5;}
	.st298{fill:#D6D6D6;}
	.st299{fill:#D7D7D7;}
	.st300{fill:#D8D8D8;}
	.st301{fill:#D9D9D9;}
	.st302{fill:#DADADA;}
	.st303{fill:#DCDCDC;}
	.st304{fill:#DDDDDD;}
	.st305{fill:#DEDEDE;}
	.st306{fill:#DFDFDF;}
	.st307{fill:#E0E0E0;}
	.st308{fill:#E1E1E1;}
	.st309{fill:#E2E2E2;}
	.st310{fill:#E4E4E4;}
	.st311{fill:#E5E5E5;}
	.st312{fill:#E6E6E6;}
	.st313{fill:#E7E7E7;}
	.st314{fill:#E8E8E8;}
	.st315{fill:#E9E9E9;}
	.st316{fill:#EBEBEB;}
	.st317{fill:#ECECEC;}
	.st318{fill:#EDEDED;}
	.st319{fill:#EEEEEE;}
	.st320{fill:#EFEFEF;}
	.st321{fill:#F2F2F2;}
	.st322{fill:#F3F3F3;}
	.st323{fill:#F4F4F4;}
	.st324{fill:#F5F5F5;}
	.st325{opacity:0.6;fill:#808080;}
	.st326{opacity:0.604;fill:#818181;}
	.st327{opacity:0.6079;fill:#828282;}
	.st328{opacity:0.6119;fill:#838383;}
	.st329{opacity:0.6158;fill:#858585;}
	.st330{opacity:0.6198;fill:#868686;}
	.st331{opacity:0.6238;fill:#878787;}
	.st332{opacity:0.6277;fill:#888888;}
	.st333{opacity:0.6317;fill:#898989;}
	.st334{opacity:0.6356;fill:#8A8A8A;}
	.st335{opacity:0.6396;fill:#8C8C8C;}
	.st336{opacity:0.6436;fill:#8D8D8D;}
	.st337{opacity:0.6475;fill:#8E8E8E;}
	.st338{opacity:0.6515;fill:#8F8F8F;}
	.st339{opacity:0.6554;fill:#909090;}
	.st340{opacity:0.6594;fill:#919191;}
	.st341{opacity:0.6634;fill:#939393;}
	.st342{opacity:0.6673;fill:#949494;}
	.st343{opacity:0.6713;fill:#959595;}
	.st344{opacity:0.6752;fill:#969696;}
	.st345{opacity:0.6792;fill:#979797;}
	.st346{opacity:0.6832;fill:#989898;}
	.st347{opacity:0.6871;fill:#999999;}
	.st348{opacity:0.6911;fill:#9B9B9B;}
	.st349{opacity:0.695;fill:#9C9C9C;}
	.st350{opacity:0.699;fill:#9D9D9D;}
	.st351{opacity:0.703;fill:#9E9E9E;}
	.st352{opacity:0.7069;fill:#9F9F9F;}
	.st353{opacity:0.7109;fill:#A0A0A0;}
	.st354{opacity:0.7149;fill:#A2A2A2;}
	.st355{opacity:0.7188;fill:#A3A3A3;}
	.st356{opacity:0.7228;fill:#A4A4A4;}
	.st357{opacity:0.7267;fill:#A5A5A5;}
	.st358{opacity:0.7307;fill:#A6A6A6;}
	.st359{opacity:0.7347;fill:#A7A7A7;}
	.st360{opacity:0.7386;fill:#A9A9A9;}
	.st361{opacity:0.7426;fill:#AAAAAA;}
	.st362{opacity:0.7465;fill:#ABABAB;}
	.st363{opacity:0.7505;fill:#ACACAC;}
	.st364{opacity:0.7545;fill:#ADADAD;}
	.st365{opacity:0.7584;fill:#AEAEAE;}
	.st366{opacity:0.7624;fill:#AFAFAF;}
	.st367{opacity:0.7663;fill:#B1B1B1;}
	.st368{opacity:0.7703;fill:#B2B2B2;}
	.st369{opacity:0.7743;fill:#B3B3B3;}
	.st370{opacity:0.7782;fill:#B4B4B4;}
	.st371{opacity:0.7822;fill:#B5B5B5;}
	.st372{opacity:0.7861;fill:#B6B6B6;}
	.st373{opacity:0.7901;fill:#B8B8B8;}
	.st374{opacity:0.7941;fill:#B9B9B9;}
	.st375{opacity:0.798;fill:#BABABA;}
	.st376{opacity:0.802;fill:#BBBBBB;}
	.st377{opacity:0.8059;fill:#BCBCBC;}
	.st378{opacity:0.8099;fill:#BDBDBD;}
	.st379{opacity:0.8139;fill:#BFBFBF;}
	.st380{opacity:0.8178;fill:#C0C0C0;}
	.st381{opacity:0.8218;fill:#C1C1C1;}
	.st382{opacity:0.8257;fill:#C2C2C2;}
	.st383{opacity:0.8297;fill:#C3C3C3;}
	.st384{opacity:0.8337;fill:#C4C4C4;}
	.st385{opacity:0.8376;fill:#C6C6C6;}
	.st386{opacity:0.8416;fill:#C7C7C7;}
	.st387{opacity:0.8455;fill:#C8C8C8;}
	.st388{opacity:0.8495;fill:#C9C9C9;}
	.st389{opacity:0.8535;fill:#CACACA;}
	.st390{opacity:0.8574;fill:#CBCBCB;}
	.st391{opacity:0.8614;fill:#CCCCCC;}
	.st392{opacity:0.8653;fill:#CECECE;}
	.st393{opacity:0.8693;fill:#CFCFCF;}
	.st394{opacity:0.8733;fill:#D0D0D0;}
	.st395{opacity:0.8772;fill:#D1D1D1;}
	.st396{opacity:0.8812;fill:#D2D2D2;}
	.st397{opacity:0.8851;fill:#D3D3D3;}
	.st398{opacity:0.8891;fill:#D5D5D5;}
	.st399{opacity:0.8931;fill:#D6D6D6;}
	.st400{opacity:0.897;fill:#D7D7D7;}
	.st401{opacity:0.901;fill:#D8D8D8;}
	.st402{opacity:0.905;fill:#D9D9D9;}
	.st403{opacity:0.9089;fill:#DADADA;}
	.st404{opacity:0.9129;fill:#DCDCDC;}
	.st405{opacity:0.9168;fill:#DDDDDD;}
	.st406{opacity:0.9208;fill:#DEDEDE;}
	.st407{opacity:0.9248;fill:#DFDFDF;}
	.st408{opacity:0.9287;fill:#E0E0E0;}
	.st409{opacity:0.9327;fill:#E1E1E1;}
	.st410{opacity:0.9366;fill:#E2E2E2;}
	.st411{opacity:0.9406;fill:#E4E4E4;}
	.st412{opacity:0.9446;fill:#E5E5E5;}
	.st413{opacity:0.9485;fill:#E6E6E6;}
	.st414{opacity:0.9525;fill:#E7E7E7;}
	.st415{opacity:0.9564;fill:#E8E8E8;}
	.st416{opacity:0.9604;fill:#E9E9E9;}
	.st417{opacity:0.9644;fill:#EBEBEB;}
	.st418{opacity:0.9683;fill:#ECECEC;}
	.st419{opacity:0.9723;fill:#EDEDED;}
	.st420{opacity:0.9762;fill:#EEEEEE;}
	.st421{opacity:0.9802;fill:#EFEFEF;}
	.st422{opacity:0.9842;fill:#F0F0F0;}
	.st423{opacity:0.9881;fill:#F2F2F2;}
	.st424{opacity:0.9921;fill:#F3F3F3;}
	.st425{opacity:0.996;fill:#F4F4F4;}
	.st426{opacity:0.3;fill:url(#SVGID_00000047772096623576244950000008405368263001437596_);}
	.st427{opacity:0.3;fill:url(#SVGID_00000065050359731796514580000015496950298099078335_);}
	.st428{opacity:0.3;fill:url(#SVGID_00000170978513373007600280000007580403909334467238_);}
	.st429{fill:#E5E5EA;}
	.st430{opacity:0.55;}
	.st431{clip-path:url(#SVGID_00000061471097305489456320000007162278845067013777_);}
	.st432{fill:#72C21D;}
	.st433{fill:#E6A357;}
	.st434{clip-path:url(#SVGID_00000073701653781807720930000012446934189003309474_);}
	.st435{fill:#FFEC9D;stroke:#231815;stroke-width:5.1024;stroke-linecap:round;stroke-linejoin:round;stroke-miterlimit:10;}
	.st436{clip-path:url(#SVGID_00000029024525052373309850000002678268744445627817_);}
	.st437{fill:#FFFFFF;stroke:#231815;stroke-width:5.1024;stroke-linecap:round;stroke-linejoin:round;stroke-miterlimit:10;}
	.st438{fill:#C7FFFF;stroke:#231815;stroke-width:5.1024;stroke-linecap:round;stroke-linejoin:round;stroke-miterlimit:10;}
	.st439{fill:#FFFFFF;stroke:#231815;stroke-width:5.1024;stroke-miterlimit:10;}
	.st440{fill:#87CE4B;stroke:#231815;stroke-width:5.1024;stroke-miterlimit:10;}
	.st441{fill:#FFDD00;stroke:#231815;stroke-width:5.1024;stroke-miterlimit:10;}
	.st442{fill:#D6FFFF;stroke:#231815;stroke-width:5.1024;stroke-linecap:round;stroke-linejoin:round;stroke-miterlimit:10;}
	.st443{fill:#FFFFFF;stroke:#201D1E;stroke-width:5.1024;stroke-linecap:round;stroke-linejoin:round;stroke-miterlimit:10;}
	.st444{fill:#ADADAE;stroke:#201D1E;stroke-width:5.1024;stroke-linecap:round;stroke-linejoin:round;stroke-miterlimit:10;}
	
		.st445{fill-rule:evenodd;clip-rule:evenodd;fill:#FFFFFF;stroke:#201D1E;stroke-width:5.1024;stroke-linecap:round;stroke-linejoin:round;stroke-miterlimit:10;}
	
		.st446{fill-rule:evenodd;clip-rule:evenodd;fill:none;stroke:#201D1E;stroke-width:5.1024;stroke-linecap:round;stroke-linejoin:round;stroke-miterlimit:10;}
	.st447{fill:#FFDFA6;stroke:#000000;stroke-width:5.1024;stroke-linecap:round;stroke-linejoin:round;stroke-miterlimit:10;}
	.st448{fill:#EF6F00;stroke:#000000;stroke-width:5.1024;stroke-linecap:round;stroke-linejoin:round;stroke-miterlimit:10;}
	.st449{fill:#FFFFFF;stroke:#000000;stroke-width:5.1024;stroke-linecap:round;stroke-linejoin:round;stroke-miterlimit:10;}
	
		.st450{fill-rule:evenodd;clip-rule:evenodd;fill:#DECD96;stroke:#000000;stroke-width:5.1024;stroke-linecap:round;stroke-linejoin:round;stroke-miterlimit:10;}
	.st451{fill:#E6FFFF;stroke:#231815;stroke-width:5.1024;stroke-linecap:round;stroke-linejoin:round;stroke-miterlimit:10;}
	.st452{fill:#8FFFFF;stroke:#231815;stroke-width:5.1024;stroke-linecap:round;stroke-linejoin:round;stroke-miterlimit:10;}
	.st453{fill:#87CE4B;stroke:#231815;stroke-width:5.1024;stroke-linecap:round;stroke-linejoin:round;stroke-miterlimit:10;}
	.st454{fill:#FFDD00;stroke:#231815;stroke-width:5.1024;stroke-linecap:round;stroke-linejoin:round;stroke-miterlimit:10;}
	.st455{fill:#FFECBB;stroke:#231815;stroke-width:5.1024;stroke-linecap:round;stroke-linejoin:round;stroke-miterlimit:10;}
</style>
<g id="レイヤー_2">
</g>
<g id="写真">
</g>
<g id="レイヤー_1">
	<g>
		<g>
			<g>
				<polygon class="st3" points="64.9,260.44 56.3,249.88 56.3,64.76 66.86,53.89 211.06,53.89 221.61,64.76 221.61,246.35 
					209.78,260.44 				"/>
			</g>
			<g>
				<path class="st28" d="M100.42,68.04c-0.49,0-0.97-0.1-1.43-0.28c-0.43-0.17-0.86-0.46-1.23-0.83c-0.35-0.33-0.63-0.74-0.84-1.23
					c-0.18-0.43-0.27-0.92-0.27-1.44V51.43c0-0.54,0.09-1.02,0.26-1.45c0.21-0.47,0.5-0.88,0.85-1.23c0.37-0.37,0.8-0.66,1.24-0.83
					c0.43-0.18,0.91-0.28,1.43-0.28h19.24c1.32,0,2.75-0.42,4.03-1.18c1.24-0.74,2.3-1.8,2.96-3c1.28-2.34,3.18-4.32,5.5-5.71
					c2.28-1.36,4.91-2.08,7.61-2.08c2.69,0,5.33,0.72,7.63,2.08c2.33,1.39,4.23,3.37,5.51,5.72c0.64,1.18,1.69,2.24,2.96,3
					c1.28,0.76,2.71,1.18,4.03,1.18h19.24c0.51,0,1,0.1,1.44,0.29c0.43,0.17,0.86,0.46,1.23,0.83c0.36,0.36,0.65,0.79,0.83,1.23
					c0.19,0.46,0.28,0.95,0.28,1.45v12.83c0,0.49-0.1,0.97-0.28,1.43c-0.18,0.47-0.47,0.9-0.83,1.24c-0.36,0.36-0.79,0.65-1.23,0.82
					c-0.46,0.19-0.94,0.28-1.43,0.28H100.42z M139.77,42.55c-2.15,0-4.18,0.84-5.69,2.36c-1.52,1.52-2.36,3.55-2.36,5.71
					c0,2.15,0.84,4.18,2.36,5.69c1.53,1.53,3.55,2.38,5.69,2.38c2.15,0,4.18-0.84,5.71-2.38c1.52-1.52,2.36-3.54,2.36-5.69
					c0-2.16-0.84-4.19-2.36-5.71S141.93,42.55,139.77,42.55z"/>
			</g>
			<g>
				<path d="M139.77,54.06c-0.9,0-1.79-0.36-2.44-1c-0.65-0.67-1-1.54-1-2.45c0-0.92,0.36-1.81,1-2.44
					c0.65-0.65,1.54-1.02,2.44-1.02c0.93,0,1.82,0.37,2.45,1.02c0.64,0.62,1.01,1.51,1.01,2.44c0,0.92-0.36,1.79-1.02,2.44
					C141.58,53.7,140.69,54.06,139.77,54.06z"/>
			</g>
			<g>
				<path d="M71.89,261.57c-2.2,0-4.35-0.43-6.38-1.28c-2.02-0.83-3.85-2.05-5.44-3.62c-1.58-1.59-2.79-3.42-3.63-5.44
					c-0.85-2.03-1.28-4.18-1.28-6.38V68.01c0-2.22,0.43-4.37,1.29-6.39c0.83-2.02,2.09-3.9,3.62-5.44l0.16-0.16l0.09-0.07l0.34-0.34
					l0.09-0.07l0.04-0.04l0.2-0.16l0.04-0.05l0.06-0.04v0l0.13-0.11l0.26,0.19l-0.11-0.3l0.17-0.13l0.06-0.06l0.09-0.07l0.12-0.08
					l0.09-0.08l0.17-0.11l0.14-0.1l0.09-0.06l0.12-0.09l0.09-0.09l0.04,0l0.06-0.04L62.77,54l0.09-0.07l0.17-0.09l0.09-0.09
					l0.04,0.01c0.13-0.08,0.26-0.15,0.39-0.23l0.09-0.07l0.11-0.07l0.12-0.05l0.17-0.11l0.14-0.07l0.13-0.06l0.07-0.05l0.12-0.05
					l0.05-0.03l0.14-0.06l0.16-0.08l0.12-0.05l0.16-0.08l0.3-0.12l0.21,0.25l-0.02-0.32l0.18-0.07l0.21,0.25l-0.02-0.32l0.19-0.07
					l0.21,0.25l-0.02-0.32l0.21,0.27l-0.02-0.32l0.15-0.05l0.25,0.25l-0.12-0.29l0.12-0.05L67.05,52l0.06-0.03l0.12-0.02l0.1-0.04
					l0.11-0.02l0.06-0.03l0.12-0.02l0.1-0.04l0.21-0.04l0.18-0.05l0.38-0.07l0.18-0.05l0.35-0.07h0.12l0.38-0.07l0.12-0.02
					l0.18-0.02l0.12-0.02h0.11l0.18-0.04h0.12l0.38-0.04h0.12l0.09-0.02h0.34l0.2-0.02h20.53v5.85H71.74l-0.13-0.31l0,0.32
					l-0.15,0.01h-0.15l-0.13-0.31l0,0.32l-0.15,0.01L71,57.16l-0.09,0.01l-0.15-0.31l0.04,0.31l-0.17,0.02l-0.05,0.01l-0.08,0
					l-0.04,0.01l-0.11,0.01l-0.05,0.02l-0.08,0l-0.15-0.29l0.04,0.31l-0.17-0.29l0.04,0.31l-0.34,0.07l-0.22,0.05l-0.15-0.28
					l0.04,0.31l-0.17-0.29l0.04,0.31l-0.13,0.04l-0.17-0.28l0.04,0.31l-0.05,0.02h-0.07l-0.19-0.25l0.04,0.31l-0.04,0.03l-0.11,0.03
					l-0.15-0.28l0.04,0.31l-0.17-0.27l0.04,0.31l-0.13,0.06l-0.11,0.04l-0.04,0.03l-0.11,0.03l-0.15-0.28l0.04,0.31l-0.04,0.03
					l-0.05,0.01l-0.11,0.06l-0.24,0.1l-0.14,0.08l-0.04,0.03l-0.13,0.05l-0.14,0.08l-0.11,0.05l-0.15,0.09l-0.14,0.07l-0.02,0.01
					l-0.13,0.06l-0.13,0.09l-0.28-0.18l0.17,0.26L66,58.86l-0.21-0.24l0.12,0.29l-0.11,0.07l-0.03-0.03v0.05l-0.14,0.11l-0.22,0.15
					l-0.11,0.09l-0.28-0.18l0.16,0.27l-0.27-0.18l0.18,0.26l-0.1,0.09l-0.28-0.18l0.17,0.27l-0.03,0.05l-0.11,0.08l-0.11,0.09
					l-0.32-0.13l0.22,0.22l-0.1,0.09l-0.03,0.05l-0.06,0.04l-0.02,0.03l-0.08,0.08c-1.03,1.03-1.83,2.22-2.38,3.53
					C61.28,65.19,61,66.58,61,68.01v176.83c0,1.41,0.28,2.8,0.83,4.15c0.55,1.31,1.38,2.53,2.38,3.53c1.03,1.03,2.22,1.83,3.53,2.38
					c1.3,0.54,2.69,0.81,4.14,0.81h135.78c1.43,0,2.83-0.27,4.15-0.81c1.31-0.56,2.53-1.38,3.53-2.38c1-1,1.82-2.22,2.38-3.54
					c0.54-1.31,0.81-2.71,0.81-4.14v-3.39c0-1.61,1.31-2.92,2.92-2.92c1.62,0,2.94,1.31,2.94,2.92v3.39c0,2.15-0.43,4.3-1.28,6.38
					c-0.83,2.02-2.05,3.85-3.63,5.44c-1.59,1.58-3.42,2.8-5.44,3.63c-2.03,0.85-4.18,1.28-6.38,1.28H71.89z"/>
			</g>
			<g>
				<path d="M221.46,119.6c-1.36,0-2.54-0.96-2.84-2.26h-0.05l-0.04-0.31V68.01c0-1.45-0.27-2.85-0.81-4.15
					c-0.55-1.32-1.35-2.51-2.38-3.53l-0.09-0.1l0.11-0.32l-0.22,0.22l0.13-0.31l-0.23,0.22L214.99,60l-0.03-0.05l0.11-0.32
					l-0.23,0.22l-0.1-0.09l0.13-0.31l-0.23,0.22l-0.1-0.08l0.11-0.31l-0.23,0.22l-0.05-0.03l-0.03-0.05l-0.23-0.17l-0.25-0.17
					l-0.01-0.02l-0.02-0.02h-0.09l-0.04-0.07l-0.23-0.15l0.06-0.33l-0.17,0.26l-0.13-0.08l-0.11-0.07l-0.15-0.07l0.08-0.31
					l-0.17,0.26l0.06-0.33l-0.15,0.28l-0.05-0.01l-0.04-0.03l0.12-0.29l-0.23,0.22l-0.04-0.01l-0.09-0.04l-0.05-0.01l-0.08-0.04
					l-0.07-0.04l-0.14-0.06l-0.26-0.12l-0.04-0.01l-0.05-0.03l-0.09-0.03l-0.09-0.04l-0.01-0.33l-0.1,0.29l-0.27-0.1l-0.16-0.05
					l-0.09-0.04l-0.01-0.33l-0.15,0.28l-0.13-0.04l0.02-0.32l-0.15,0.28l-0.13-0.04h-0.05l-0.1-0.02l0.04-0.31l-0.15,0.28l-0.1-0.03
					h-0.05l-0.08-0.02l-0.03-0.33l-0.08,0.3h-0.04l-0.19-0.04h-0.04l-0.08-0.01l-0.08-0.02h-0.04l-0.07-0.01h-0.04l-0.09-0.02h-0.05
					l-0.12-0.03l-0.11,0l-0.07-0.33l-0.06,0.31l-0.28-0.02l-0.07-0.33l-0.07,0.31h-0.28l-0.07-0.33l-0.07,0.31h-20.35v-5.85h20.69
					l0.12,0.03l0.05-0.01h0.23l0.12,0.03l0.08-0.01l0.12,0.03l0.08-0.01l0.12,0l0.11,0.02l0.21,0.02l0.1,0.02l0.08-0.01l0.12,0.03
					l0.17,0.01l0.52,0.1l0.1,0l0.3,0.06l0.2,0.05l0.1,0.02l0.03,0.32l0.15-0.28l0.13,0.02l0.12,0.05l0.27,0.04l0.12,0.05l0.37,0.11
					l0.04,0l0.16,0.06l0.37,0.11l0.07,0.36l0.06-0.3l0.15,0.03l0.19,0.07l-0.02,0.32l0.21-0.25l0.28,0.11l-0.02,0.32l0.21-0.25
					l0.37,0.15l0.14,0.08l0.14,0.05l0.16,0.09l0.16,0.06l0.12,0.06l0.07,0.03l0.09,0.06l0.09,0.03l0.11,0.08l0.16,0.07l0.09,0.06
					l0.12,0.05l0.14,0.09c0.14,0.08,0.29,0.16,0.43,0.25h0.04l0.11,0.09l0.23,0.14l0.05,0.04l0.09,0.05l0.08,0.06h0.03l0.11,0.09
					l0.13,0.1l0.15,0.1l0.26,0.2l-0.04,0.35l0.16-0.26l0.09,0.06l0.28,0.25l0.05,0.02l0.21,0.16v0.02l0.28,0.25l0.07,0.07l0.15,0.13
					l0.07,0.07l0.15,0.13l0.08,0.08l0.15,0.13l0.08,0.08c1.54,1.54,2.79,3.42,3.63,5.44c0.85,2.06,1.28,4.21,1.28,6.38v49.34h-0.09
					C224.01,118.65,222.83,119.6,221.46,119.6z"/>
			</g>
			<g>
				<path d="M182.3,51.89v-0.46c0-0.42-0.08-0.83-0.24-1.22c-0.15-0.37-0.39-0.73-0.69-1.03c-0.31-0.31-0.66-0.55-1.02-0.69
					c-0.37-0.16-0.77-0.24-1.2-0.24H159.9c-1.43,0-2.97-0.45-4.35-1.27c-1.36-0.81-2.5-1.96-3.19-3.23
					c-1.22-2.25-3.05-4.15-5.28-5.48c-2.2-1.31-4.73-2-7.31-2c-2.59,0-5.11,0.69-7.29,2c-2.23,1.33-4.06,3.23-5.28,5.48
					c-0.72,1.29-1.85,2.44-3.19,3.23c-1.38,0.82-2.92,1.27-4.35,1.27h-19.24c-0.43,0-0.83,0.08-1.19,0.23
					c-0.37,0.14-0.72,0.38-1.03,0.69c-0.3,0.3-0.54,0.65-0.72,1.04c-0.14,0.35-0.21,0.75-0.21,1.21v0.46h-5.87v-0.46
					c0-1.18,0.23-2.34,0.69-3.45c0.45-1.09,1.11-2.07,1.96-2.92c0.83-0.83,1.83-1.5,2.92-1.96c1.12-0.46,2.28-0.69,3.46-0.69h19.24
					c0.4,0,0.87-0.15,1.37-0.42c0.46-0.29,0.84-0.66,1.05-1.03c1.73-3.18,4.3-5.84,7.41-7.69c3.13-1.85,6.69-2.82,10.28-2.82
					c3.61,0,7.17,0.98,10.28,2.82c3.1,1.83,5.67,4.49,7.43,7.7c0.21,0.37,0.58,0.74,1.06,1.04c0.48,0.27,0.96,0.42,1.35,0.42h19.24
					c1.17,0,2.36,0.24,3.44,0.69c1.1,0.46,2.09,1.11,2.94,1.96c0.85,0.85,1.51,1.83,1.96,2.92c0.45,1.09,0.67,2.25,0.67,3.46v0.46
					H182.3z"/>
			</g>
			<g>
				<path d="M100.42,73.26c-1.21,0-2.37-0.23-3.44-0.69c-1.05-0.43-2.05-1.09-2.89-1.92l-0.13-0.13l0-0.02
					c-0.78-0.8-1.41-1.74-1.86-2.8c-0.46-1.12-0.69-2.28-0.69-3.44V56.5h5.87v7.76c0,0.44,0.07,0.85,0.22,1.2
					c0.17,0.4,0.41,0.75,0.71,1.02c0.32,0.32,0.67,0.56,1.03,0.7c0.39,0.16,0.79,0.24,1.2,0.24h78.72c0.41,0,0.81-0.08,1.2-0.24
					c0.36-0.14,0.72-0.38,1.03-0.69c0.3-0.29,0.54-0.64,0.69-1.03c0.16-0.39,0.24-0.79,0.24-1.2V56.5h5.85v7.76
					c0,1.19-0.23,2.35-0.67,3.44c-0.45,1.06-1.07,1.99-1.85,2.79l-0.09,0.11l-0.09,0.09c-0.89,0.84-1.85,1.47-2.86,1.89
					c-1.07,0.46-2.23,0.69-3.44,0.69H100.42z"/>
			</g>
			<g>
				<rect x="182.3" y="51.27" width="5.85" height="5.85"/>
			</g>
			<g>
				<rect x="91.39" y="51.27" width="5.87" height="5.85"/>
			</g>
			<g>
				<path d="M90.39,236.98c-0.68,0-1.33-0.23-1.84-0.66l-8.1-6.6c-1.25-1.02-1.43-2.86-0.42-4.1c0.55-0.69,1.38-1.09,2.27-1.09
					c0.67,0,1.32,0.23,1.83,0.65l5.86,4.77l14.25-17.67c0.54-0.69,1.37-1.09,2.27-1.09c0.67,0,1.33,0.23,1.84,0.65
					c0.6,0.47,0.98,1.17,1.07,1.94c0.09,0.79-0.14,1.55-0.64,2.16L92.7,235.89c-0.49,0.63-1.23,1.01-2.07,1.08
					C90.55,236.98,90.47,236.98,90.39,236.98z"/>
			</g>
			<g>
				<path d="M90.39,194.92c-0.68,0-1.33-0.23-1.84-0.65l-8.1-6.6c-1.25-1.02-1.44-2.87-0.42-4.12c0.55-0.68,1.38-1.07,2.26-1.07
					c0.67,0,1.32,0.23,1.84,0.66c1.96,1.58,3.9,3.17,5.86,4.77c4.48-5.58,8.98-11.16,13.47-16.72l0.77-0.96
					c0.55-0.69,1.38-1.08,2.28-1.08c0.67,0,1.32,0.23,1.83,0.65c0.61,0.49,0.99,1.19,1.07,1.96c0.08,0.78-0.14,1.54-0.64,2.14
					l-16.07,19.94c-0.5,0.62-1.25,1.01-2.07,1.08C90.55,194.92,90.47,194.92,90.39,194.92z"/>
			</g>
			<g>
				<path d="M116.15,184.96c-1.61,0-2.92-1.31-2.92-2.92c0-1.62,1.31-2.94,2.92-2.94h27.67c1.61,0,2.92,1.32,2.92,2.94
					c0,1.61-1.31,2.92-2.92,2.92H116.15z"/>
			</g>
			<g>
				<path d="M90.39,152.85c-0.68,0-1.33-0.23-1.84-0.66l-2.82-2.3c-1.76-1.43-3.52-2.86-5.28-4.3c-1.24-1.01-1.43-2.86-0.42-4.12
					c0.56-0.68,1.38-1.07,2.27-1.07c0.67,0,1.32,0.23,1.84,0.66c1.96,1.6,3.9,3.19,5.86,4.77c4.19-5.2,8.39-10.41,12.59-15.61
					l1.66-2.05c0.54-0.69,1.37-1.09,2.27-1.09c0.67,0,1.33,0.23,1.84,0.65c0.6,0.47,0.98,1.17,1.07,1.94
					c0.09,0.79-0.14,1.55-0.64,2.16L92.7,151.76c-0.49,0.63-1.23,1.01-2.07,1.08C90.55,152.84,90.47,152.85,90.39,152.85z"/>
			</g>
			<g>
				<path d="M90.33,110.78c-0.66,0-1.3-0.24-1.8-0.67l-8.09-6.59c-1.25-1.02-1.43-2.86-0.42-4.1c0.55-0.68,1.38-1.07,2.26-1.07
					c0.67,0,1.32,0.23,1.84,0.66l5.86,4.75l14.25-17.67c0.55-0.69,1.38-1.08,2.28-1.08c0.67,0,1.32,0.23,1.83,0.65
					c0.61,0.49,0.99,1.19,1.07,1.96c0.08,0.78-0.14,1.54-0.64,2.14L92.7,109.68c-0.5,0.64-1.26,1.04-2.08,1.08
					C90.54,110.77,90.44,110.78,90.33,110.78z"/>
			</g>
			<g>
				<path d="M116.15,100.83c-1.61,0-2.92-1.32-2.92-2.94c0-1.61,1.31-2.92,2.92-2.92h83.04c1.61,0,2.92,1.31,2.92,2.92
					c0,1.62-1.31,2.94-2.92,2.94H116.15z"/>
			</g>
			<g>
				<path d="M116.15,142.88c-1.61,0-2.92-1.31-2.92-2.92s1.31-2.92,2.92-2.92h31.23c1.61,0,2.92,1.31,2.92,2.92
					s-1.31,2.92-2.92,2.92H116.15z"/>
			</g>
			<g>
				<path d="M139.77,59.31c-2.31,0-4.48-0.91-6.13-2.56c-1.64-1.64-2.54-3.81-2.54-6.13c0-2.33,0.9-4.51,2.54-6.15
					c1.64-1.64,3.81-2.54,6.13-2.54c2.33,0,4.51,0.9,6.15,2.54c1.64,1.64,2.54,3.82,2.54,6.15c0,2.32-0.9,4.5-2.54,6.13
					C144.27,58.4,142.09,59.31,139.77,59.31z M139.77,47.78c-0.74,0-1.48,0.3-2.01,0.84c-0.52,0.52-0.82,1.25-0.82,2
					c0,0.75,0.29,1.46,0.82,2.01c0.53,0.51,1.26,0.81,2,0.81c0.75,0,1.49-0.3,2.01-0.82c0.54-0.54,0.83-1.25,0.83-2.01
					c0-0.76-0.3-1.49-0.83-2C141.26,48.08,140.53,47.78,139.77,47.78z"/>
			</g>
			<g>
				<g>
					<g>
						<path class="st29" d="M209.27,208.84c-0.45,0-0.9-0.01-1.35-0.02c-5.03-0.16-9.92-1.3-14.56-3.39
							c-4.63-2.11-8.73-5.05-12.18-8.73c-3.47-3.73-6.13-8-7.9-12.72c-1.78-4.72-2.59-9.69-2.44-14.78c0.18-5.11,1.33-10,3.41-14.56
							c2.08-4.6,5.01-8.7,8.73-12.18c3.7-3.46,7.99-6.13,12.74-7.92c4.33-1.62,8.85-2.44,13.43-2.44c0.44,0,0.88,0.01,1.32,0.02
							c5.04,0.16,9.94,1.3,14.56,3.39c4.63,2.11,8.73,5.05,12.18,8.73c3.47,3.72,6.13,8,7.9,12.72c1.78,4.72,2.6,9.69,2.44,14.78
							c-0.18,5.09-1.32,10-3.41,14.58c-2.08,4.59-5.02,8.69-8.73,12.16c-3.7,3.46-7.97,6.12-12.72,7.92
							C218.4,208.02,213.88,208.84,209.27,208.84C209.27,208.84,209.27,208.84,209.27,208.84z M187.53,146.4
							c-3.15,2.84-5.67,6.22-7.5,10.04c-1.86,3.84-2.92,7.96-3.17,12.25c-0.24,4.22,0.37,8.43,1.79,12.5
							c0.33,0.87,1.17,1.45,2.09,1.45c0.25,0,0.49-0.04,0.72-0.12c1.15-0.41,1.75-1.67,1.35-2.81c-1.22-3.46-1.73-7.08-1.52-10.79
							c0.2-3.67,1.11-7.23,2.71-10.57c1.63-3.36,3.84-6.3,6.57-8.74c2.75-2.46,5.91-4.32,9.39-5.54l0.15-0.04
							c0.69-0.28,1.22-0.9,1.37-1.64c0.16-0.78-0.13-1.59-0.76-2.12c-0.4-0.34-0.91-0.52-1.42-0.52c-0.22,0-0.44,0.03-0.65,0.1
							l-0.13,0.06c-4.08,1.43-7.74,3.58-10.89,6.41l-0.09,0.08H187.53z"/>
					</g>
					<g>
						<path class="st21" d="M263.29,261.89c-0.66,0-1.31-0.05-1.95-0.16c-3.05-0.49-5.67-2.08-7.38-4.49
							c-0.14-0.19-0.27-0.39-0.39-0.58l-28.5-46.43l0.34-0.14c1.6-0.66,3.13-1.39,4.54-2.17c1.98-1.1,3.91-2.39,5.74-3.83
							c1.02-0.81,1.93-1.58,2.77-2.37c0.26-0.25,0.52-0.51,0.78-0.76l0.45-0.45l33.51,42.21c0.12,0.16,0.22,0.3,0.34,0.45
							c1.75,2.45,2.41,5.49,1.89,8.56c-0.53,2.98-2.12,5.65-4.46,7.51l-0.12,0.09c-0.18,0.14-0.31,0.24-0.4,0.3
							c-0.21,0.16-0.43,0.31-0.67,0.45C267.83,261.26,265.59,261.89,263.29,261.89L263.29,261.89z"/>
					</g>
					<g>
						<path class="st21" d="M209.28,213.87c-0.5,0-0.99-0.01-1.49-0.03c-5.75-0.19-11.3-1.48-16.49-3.82
							c-5.22-2.38-9.86-5.71-13.77-9.9c-3.93-4.21-6.95-9.05-8.96-14.4c-2-5.3-2.92-10.92-2.74-16.69
							c0.19-5.77,1.48-11.32,3.84-16.49c2.34-5.19,5.67-9.82,9.89-13.77c4.19-3.93,9.03-6.94,14.38-8.96l0.05-0.02h0.06
							c4.74-1.8,9.85-2.73,15.1-2.73c0.5,0,1,0.01,1.5,0.03c5.74,0.19,11.29,1.48,16.47,3.82c5.22,2.38,9.86,5.71,13.77,9.9
							c3.93,4.21,6.95,9.05,8.96,14.4c2.01,5.34,2.93,10.96,2.74,16.69c-0.19,5.77-1.48,11.32-3.84,16.49
							c-2.14,4.73-5.12,9.03-8.88,12.79l-0.2,0.2c-0.26,0.26-0.52,0.52-0.79,0.78c-0.85,0.8-1.77,1.58-2.81,2.4
							c-1.86,1.47-3.82,2.78-5.83,3.89c-1.43,0.79-2.97,1.53-4.6,2.2l-0.29,0.12c-0.29,0.12-0.58,0.24-0.88,0.35l-0.05,0.02h-0.06
							C219.63,212.95,214.52,213.87,209.28,213.87z M209.16,132.72c-4.51,0-8.96,0.81-13.22,2.4c-4.67,1.76-8.89,4.38-12.53,7.79
							c-3.66,3.42-6.55,7.45-8.59,11.98c-2.05,4.48-3.18,9.3-3.36,14.32c-0.16,5.01,0.65,9.9,2.4,14.54
							c1.75,4.64,4.36,8.85,7.78,12.51c3.39,3.62,7.42,6.52,11.98,8.59c4.56,2.06,9.38,3.18,14.32,3.34
							c0.45,0.01,0.89,0.02,1.33,0.02c4.53,0,8.98-0.81,13.21-2.4c4.67-1.77,8.88-4.39,12.51-7.79c3.65-3.42,6.54-7.44,8.59-11.96
							c2.05-4.5,3.18-9.33,3.35-14.34c0.16-5-0.65-9.9-2.4-14.54c-1.75-4.64-4.36-8.85-7.78-12.51c-3.39-3.62-7.42-6.51-11.98-8.59
							c-4.54-2.06-9.36-3.18-14.32-3.34C210.03,132.73,209.6,132.72,209.16,132.72z"/>
					</g>
				</g>
				<g>
					<path class="st3" d="M180.74,183.26c-1.18,0-2.25-0.75-2.67-1.86c-1.45-4.15-2.07-8.44-1.83-12.74
						c0.25-4.37,1.34-8.57,3.23-12.48c1.88-3.93,4.48-7.4,7.73-10.31l0.09-0.08h0.02c3.19-2.84,6.89-5.01,10.99-6.44l0.14-0.06
						c0.31-0.09,0.59-0.14,0.87-0.14c0.66,0,1.31,0.24,1.82,0.67c0.8,0.67,1.16,1.71,0.96,2.71c-0.2,0.95-0.86,1.74-1.78,2.11
						l-0.16,0.05c-3.38,1.19-6.47,3.01-9.16,5.41c-2.67,2.39-4.83,5.26-6.42,8.55c-1.57,3.26-2.46,6.74-2.65,10.33
						c-0.2,3.62,0.3,7.17,1.49,10.55c0.52,1.46-0.26,3.07-1.73,3.6C181.36,183.21,181.05,183.26,180.74,183.26
						C180.74,183.26,180.74,183.26,180.74,183.26z"/>
				</g>
			</g>
			<g>
				<path d="M116.15,227.02c-1.61,0-2.92-1.31-2.92-2.92s1.31-2.92,2.92-2.92h83.04c1.61,0,2.92,1.31,2.92,2.92
					s-1.31,2.92-2.92,2.92H116.15z"/>
			</g>
		</g>
	</g>
</g>
</svg>
