<svg xmlns="http://www.w3.org/2000/svg" viewBox="0 0 400 300" style="enable-background:new 0 0 400 300" xml:space="preserve"><style>.st3{fill:#fff}.st448,.st450{fill:#ef6f00;stroke:#000;stroke-width:5.1024;stroke-linecap:round;stroke-linejoin:round;stroke-miterlimit:10}.st450{fill-rule:evenodd;clip-rule:evenodd;fill:#decd96}</style><g id="レイヤー_1"><path class="st448" d="M257.07 200.24h49.14v47.13h-49.14z"/><path class="st448" d="M342.13 208.31H221.15c-7.98 0-14.44-6.47-14.44-14.44V64.98c0-7.98 6.47-14.44 14.44-14.44h120.97c7.98 0 14.44 6.47 14.44 14.44v128.9c.01 7.97-6.45 14.43-14.43 14.43z"/><path style="fill:#fff;stroke:#000;stroke-width:5.1024;stroke-linecap:round;stroke-linejoin:round;stroke-miterlimit:10" d="M230.41 76.79h102.46v25.41H230.41z"/><path class="st3" d="M248.88 119.52h65.52v13.44h-65.52zM248.88 141.91h65.52v13.44h-65.52z"/><path class="st3" d="M273.52 148.94h15.51v35.04h-15.51z"/><path class="st450" d="M161.62 172.21H50.72l25.78-30.84h110.9zM50.72 172.21h111.25v21.8H50.72z"/><path class="st450" d="m161.97 194.01 25.87-30.84-.44-21.8-25.78 30.84z"/></g></svg>