<?xml version="1.0" encoding="utf-8"?>
<!-- Generator: Adobe Illustrator 27.5.0, SVG Export Plug-In . SVG Version: 6.00 Build 0)  -->
<svg version="1.1" id="レイヤー_1" xmlns="http://www.w3.org/2000/svg" xmlns:xlink="http://www.w3.org/1999/xlink" x="0px"
	 y="0px" viewBox="0 0 469 261" style="enable-background:new 0 0 469 261;" xml:space="preserve">
<style type="text/css">
	.st0{fill:#00805D;}
	.st1{fill:#F78F00;}
	.st2{fill:url(#SVGID_1_);}
</style>
<g>
	<g>
		<g>
			<path class="st0" d="M107.11,162.47c6.29-12.06,13.21-23.57,20.76-34.51c5.94-8.55,48.26-71.67,57.98-84.57
				c7.19-9.52,11.81-15.21,13.87-17.07c2.05-1.85,3.98-2.78,5.79-2.78c1.56,0,2.22,0.68,1.96,2.05c-0.13,0.73-0.65,1.68-1.55,2.86
				c-0.85,1.12-3.48,4.42-7.92,9.89c-14.69,18.37-60.22,85.86-67.59,97.68c-6.66,10.6-12.61,20.98-17.87,31.14
				c-1.9,3.66-3.75,6.37-5.54,8.13c-2.64,2.64-5.06,3.96-7.25,3.96c-2,0-3.01-1.44-3.01-4.32c-0.03-1.17,0.27-3.42,0.89-6.74
				c2.17-11.68,5.72-24.64,10.67-38.91c4.37-12.51,8.31-22.54,11.82-30.12c-5.65,5.18-14.67,16.02-27.07,32.53
				c-9.81,13.09-52,69.85-57.77,81.18c-2.38,4.69-4.02,7.6-4.92,8.72c-1.67,2.15-3.51,3.22-5.51,3.22c-0.83,0-1.47-0.34-1.93-1.03
				c-0.38-0.59-0.52-1.17-0.4-1.76c0.34-1.86,2.84-6.77,7.5-14.73c6.03-10.36,49.7-68.14,62.22-84.25
				c7.45-9.62,16.1-19.86,25.93-30.7c4.67-5.18,8.05-8.52,10.14-10.04c1.92-1.37,3.61-2.05,5.07-2.05c0.63,0,1.16,0.2,1.57,0.59
				c0.58,0.54,0.8,1.2,0.66,1.98c-0.18,0.98-0.63,2.07-1.35,3.29c-3.46,6.01-7.43,14.34-11.9,24.99
				c-7.14,17.15-11.83,31.73-14.06,43.74C108,156.51,107.6,159.05,107.11,162.47z"/>
			<path class="st0" d="M153.65,161.23c-2.14,2.83-4.17,5.23-6.1,7.18c-3.78,3.81-7.19,5.72-10.22,5.72c-2.63,0-4.45-1.25-5.46-3.74
				c-0.63-1.61-0.74-3.52-0.33-5.72c1-5.42,3.83-11.41,8.47-17.95c5.16-7.28,10.79-12.87,16.89-16.78
				c3.99-2.54,7.62-3.81,10.89-3.81c2.05,0,3.64,0.64,4.78,1.91c0.96,1.12,1.31,2.39,1.05,3.81c-0.2,1.07-0.89,2.57-2.08,4.47
				c0.54,1.03,0.74,1.93,0.6,2.71c-0.19,1.02-1.19,2.71-2.99,5.06c-1.86,2.39-3.87,5.57-6.02,9.52c-2.3,4.2-3.68,7.57-4.15,10.11
				c-0.38,2.05-0.08,3.74,0.89,5.06c0.28,0.34,1.17,0.9,2.69,1.68c1.12,0.59,1.53,1.61,1.27,3.08c-0.17,0.93-0.66,1.68-1.45,2.27
				c-0.85,0.63-1.77,0.95-2.74,0.95c-2.64,0-4.69-1.17-6.16-3.52c-1.21-1.91-1.55-4.3-1.01-7.18
				C152.64,165.08,153.04,163.47,153.65,161.23z M167.29,137.12c-0.38-1.07-0.87-1.87-1.46-2.38c-0.59-0.51-1.28-0.77-2.06-0.77
				c-3.71,0-8.35,3.25-13.9,9.74c-6.12,7.18-9.65,13.26-10.57,18.25c-0.23,1.22-0.17,2.15,0.18,2.78c0.35,0.64,0.98,0.95,1.91,0.95
				c2.35,0,5.54-2.49,9.6-7.47c2.27-2.73,5.19-6.77,8.77-12.09c2.35-3.47,4.03-5.76,5.02-6.89
				C165.27,138.66,166.11,137.95,167.29,137.12z"/>
			<path class="st0" d="M201.28,126.13c-4.09,4.93-8.05,10.45-11.87,16.56c-5.48,8.69-8.61,15.19-9.41,19.49
				c-0.23,1.22-0.15,2.15,0.25,2.78c0.39,0.64,1.1,0.95,2.13,0.95c2.44,0,5.82-2.3,10.14-6.89c2.72-2.83,5.2-5.67,7.44-8.5
				c1.22-1.61,2.37-2.42,3.45-2.42c0.63,0,1.13,0.22,1.49,0.66c0.31,0.44,0.42,0.88,0.34,1.32c-0.33,1.81-3.45,5.84-9.35,12.09
				c-7.07,7.52-12.94,11.28-17.63,11.28c-2.49,0-4.35-1.15-5.59-3.45c-0.75-1.47-0.88-3.54-0.38-6.23c1.1-5.91,4.09-12.8,8.97-20.66
				c1.19-1.95,4.37-6.67,9.51-14.14c-1.38,0.34-2.42,0.51-3.1,0.51c-1.03,0-1.88-0.24-2.58-0.73c-0.95-0.68-1.32-1.54-1.13-2.57
				c0.23-1.22,1.12-2.2,2.67-2.93c0.43-0.19,2.29-0.51,5.6-0.95c1.21-0.19,3-0.66,5.38-1.39c2.28-3.08,5.84-7.26,10.68-12.53
				c2.7-2.93,4.53-4.83,5.53-5.71c1.4-1.22,2.54-1.83,3.42-1.83c0.63,0,1.21,0.34,1.72,1.02c0.47,0.64,0.64,1.27,0.52,1.91
				c-0.24,1.27-2.07,3.79-5.51,7.55c-2.26,2.44-3.97,4.42-5.13,5.93c5.69-1.47,9.71-2.2,12.06-2.2c2.68,0,3.82,1.12,3.4,3.37
				c-0.21,1.12-0.83,1.96-1.85,2.49c-0.55,0.29-1.86,0.54-3.95,0.73c-0.82-0.05-4.68,0.88-11.58,2.78
				C205.03,124.98,203.14,125.54,201.28,126.13z"/>
			<path class="st0" d="M229.68,129.43c0.83,0,1.45,0.32,1.88,0.95c0.28,0.54,0.38,1.07,0.28,1.61c-0.17,0.88-1.15,2.35-2.94,4.4
				c-6.54,7.87-11.36,14.34-14.45,19.42c-3.27,5.23-6.29,10.6-9.08,16.12c-1.23,2.44-2.68,3.67-4.35,3.67
				c-0.97,0-1.68-0.39-2.12-1.17c-0.42-0.63-0.56-1.32-0.43-2.05c0.27-1.46,2.75-6.35,7.42-14.65c3.66-6.55,8.95-13.78,15.9-21.69
				c2.24-2.59,3.88-4.32,4.92-5.2C227.76,129.89,228.74,129.43,229.68,129.43z"/>
			<path class="st0" d="M249.86,153.31c-3.93,5.13-7.2,8.94-9.82,11.43c-6.37,6.16-11.29,9.23-14.76,9.23c-2.1,0-3.5-1.15-4.19-3.44
				c-0.5-1.52-0.6-3.1-0.29-4.76c0.6-3.22,2.85-7.89,6.77-13.99c3.48-5.32,6.36-9.53,8.65-12.6c1.68-2.2,2.7-3.64,3.07-4.32
				c0.83-1.32,1.53-2.32,2.1-3c0.82-1.02,1.8-1.54,2.92-1.54c0.58,0,1.05,0.25,1.4,0.73c0.38,0.59,0.5,1.27,0.35,2.05
				c-0.41,2.2-3.3,7.11-8.68,14.73c-5.35,7.52-8.25,12.51-8.71,14.95c-0.29,1.56,0.18,2.34,1.4,2.34c2.1,0,5.58-2.74,10.46-8.21
				c2.16-2.44,4.52-5.54,7.07-9.31c0.18-1.22,0.33-2.15,0.45-2.79c0.68-3.66,1.95-6.84,3.82-9.52c2.4-3.47,5.1-5.2,8.08-5.2
				c1.71,0,2.37,1.03,1.99,3.08c-0.61,3.27-3.21,8.08-7.81,14.43c0.94,0.2,1.7,0.29,2.29,0.29c1.61,0,3.9-1.02,6.87-3.08
				c2.36-1.66,3.86-2.49,4.49-2.49c0.53,0,1.04,0.32,1.51,0.95c0.34,0.54,0.46,1.07,0.36,1.61c-0.33,1.76-1.91,3.74-4.77,5.93
				c-3.3,2.49-6.75,3.74-10.36,3.74C253.12,154.56,251.56,154.14,249.86,153.31z"/>
			<path class="st0" d="M268.98,159.25l-0.24,1.32c-0.2,1.08-0.1,2.01,0.29,2.79c0.88,1.81,2.72,2.71,5.51,2.71
				c6.1,0,14.03-4.69,23.78-14.07c1.72-1.61,3.07-2.42,4.04-2.42c0.53,0,0.97,0.27,1.32,0.81c0.22,0.39,0.3,0.76,0.23,1.1
				c-0.35,1.91-3.3,5.13-8.83,9.67c-4.33,3.57-8.77,6.47-13.35,8.72c-4.57,2.25-8.63,3.37-12.2,3.37c-3.66,0-6.31-1.27-7.94-3.81
				c-1.09-1.76-1.35-4.15-0.79-7.18c1.53-8.25,6.92-16.34,16.16-24.25c7.5-6.45,13.59-9.67,18.28-9.67c1.27,0,2.35,0.39,3.23,1.17
				c1.08,1.02,1.47,2.37,1.16,4.03c-0.48,2.59-2.27,5.77-5.36,9.52C287.88,150.87,279.45,156.27,268.98,159.25z M271.66,153.53
				c3.63-1.17,6.57-2.49,8.8-3.96c3.91-2.64,7.17-5.62,9.79-8.94c0.95-1.17,1.52-2.22,1.68-3.15c0.18-0.98-0.19-1.47-1.12-1.47
				c-1.27,0-3.25,0.95-5.95,2.86C280.03,142.25,275.63,147.13,271.66,153.53z"/>
			<path class="st1" d="M374.92,80.37c-3.73,0.64-8.35,2.32-13.83,5.06c-1.18,0.59-2.1,0.88-2.73,0.88c-0.68,0-1.3-0.34-1.86-1.02
				c-0.55-0.73-0.72-1.61-0.53-2.64c0.22-1.17,1.02-2.2,2.4-3.08c3.38-2.15,7.4-3.96,12.07-5.42c5.66-1.81,10.81-2.71,15.45-2.71
				c5.91,0,10.35,2.03,13.3,6.08c2.7,3.62,3.55,8.08,2.56,13.41c-1.63,8.79-7.18,19.46-16.64,32.02
				c-10.21,13.43-21.86,25.5-34.93,36.19c-11.06,9.04-19.95,13.56-26.7,13.56c-3.96,0-6.82-1.81-8.59-5.42
				c-1.33-2.83-1.65-6.11-0.96-9.82c1.7-9.13,6.84-19.73,15.43-31.8C340.86,109.49,356.05,94.39,374.92,80.37z M378.87,79.57
				c0.65,0.98,0.9,1.83,0.77,2.56c-0.12,0.63-1.77,2.42-4.95,5.35c-12.89,11.53-22.63,21.13-29.23,28.79
				c-6.84,7.91-12.42,15.85-16.73,23.81c-3.07,5.77-5.02,10.87-5.85,15.31c-0.41,2.2-0.31,4.03,0.3,5.5
				c0.79,1.81,2.26,2.71,4.41,2.71c4.54,0,11.33-3.81,20.36-11.43c11.47-9.67,21.22-19.71,29.26-30.11
				c9.08-11.82,14.4-21.91,15.95-30.26c0.73-3.91,0.05-7.11-2.03-9.6c-1.6-1.91-4.09-2.86-7.46-2.86L378.87,79.57z"/>
			<path class="st1" d="M388.33,140.31c0.74-0.58,1.46-1.17,2.16-1.76c12.06-9.96,19.82-14.95,23.29-14.95
				c1.91,0,2.67,1.05,2.27,3.15c-0.27,1.47-1.45,3.2-3.53,5.2c-11.35,10.89-17.8,20.49-19.34,28.79c-0.5,2.69-0.24,5.25,0.77,7.69
				c0.48,1.12,0.65,2,0.54,2.64c-0.11,0.59-0.51,1.15-1.2,1.69c-0.76,0.68-1.58,1.02-2.46,1.02c-2,0-3.45-1.27-4.35-3.81
				c-0.87-2.39-0.99-5.3-0.36-8.72c1.22-6.59,5.07-13.89,11.54-21.91c-7.43,4.25-15.01,11.77-22.73,22.57
				c-1.95,2.59-3.75,3.88-5.41,3.88c-0.83,0-1.46-0.29-1.89-0.88c-0.55-0.68-0.73-1.57-0.53-2.64c0.49-2.64,4.78-9.55,12.86-20.74
				c4.35-6.06,7.7-10.45,10.06-13.19c2.36-2.68,4.19-4.03,5.51-4.03c0.63,0,1.19,0.29,1.67,0.88c0.55,0.68,0.75,1.47,0.58,2.34
				c-0.2,1.07-1.19,2.61-2.98,4.62C392.22,135.15,390.06,137.86,388.33,140.31z"/>
			<path class="st1" d="M417.05,151.37l-0.24,1.32c-0.2,1.08-0.1,2.01,0.29,2.79c0.88,1.81,2.72,2.71,5.51,2.71
				c6.1,0,14.03-4.69,23.78-14.07c1.72-1.61,3.07-2.42,4.04-2.42c0.53,0,0.97,0.27,1.32,0.81c0.22,0.39,0.3,0.76,0.23,1.1
				c-0.35,1.91-3.3,5.13-8.83,9.67c-4.33,3.57-8.77,6.47-13.35,8.72c-4.57,2.25-8.63,3.37-12.2,3.37c-3.66,0-6.31-1.27-7.94-3.81
				c-1.09-1.76-1.35-4.15-0.79-7.18c1.53-8.25,6.92-16.34,16.16-24.25c7.5-6.45,13.59-9.67,18.28-9.67c1.27,0,2.35,0.39,3.23,1.17
				c1.08,1.02,1.47,2.37,1.16,4.03c-0.48,2.59-2.27,5.77-5.36,9.52C435.95,142.99,427.52,148.39,417.05,151.37z M419.73,145.66
				c3.63-1.17,6.57-2.49,8.8-3.96c3.91-2.64,7.17-5.62,9.79-8.94c0.95-1.17,1.52-2.22,1.68-3.15c0.18-0.98-0.19-1.47-1.12-1.47
				c-1.27,0-3.25,0.95-5.95,2.86C428.1,134.37,423.7,139.26,419.73,145.66z"/>
		</g>
	</g>
	<g>
		<g>
			<path class="st1" d="M239.13,58.53c-9.78,3.26-15.04,11.48-14.87,19.43c0.07,4.5,1.92,8.96,5.52,12.17
				c3.6,3.23,8.85,5.12,15.39,4.99c2.86-0.05,5.98-0.48,9.36-1.34c8.67-2.22,20.66-7.92,34.18-12.79
				c27.83-10.02,48.8-13.61,62.13-13.84c2.59-0.05,5.12,0.06,7.58,0.35c1.52,0.18,2.9-0.91,3.08-2.43c0.18-1.52-0.91-2.9-2.43-3.08
				c-2.74-0.32-5.52-0.44-8.33-0.39c-14.47,0.28-38.97,3.85-63.97,14.2c-13.45,5.57-25.83,10.65-33.6,12.61
				c-3.02,0.77-5.72,1.13-8.1,1.17c-5.45,0.09-9.17-1.43-11.58-3.58c-2.4-2.16-3.6-5.04-3.67-8.14
				c-0.08-5.45,3.42-11.46,11.09-14.06c1.45-0.49,2.24-2.06,1.75-3.52C242.16,58.82,240.58,58.04,239.13,58.53L239.13,58.53z"/>
			<path class="st0" d="M135.55,100.34c3.82,0.73,7.75,1.02,11.74,0.94c18.3-0.36,37.88-8.23,55.18-17.65
				c10.99-5.99,19.61-11.15,26.48-14.76c6.87-3.63,12-5.6,15.62-5.63c1.39-0.02,2.56,0.19,3.69,0.65c1.81,0.8,2.27,1.88,2.36,3.22
				c0.04,1.54-0.92,3.01-2.01,3.34c-1.45,0.51-2.2,2.1-1.69,3.55c0.51,1.45,2.1,2.2,3.55,1.69c3.77-1.39,5.77-5.05,5.71-8.68
				c0-3.23-1.99-6.74-5.8-8.25c-1.87-0.77-3.87-1.11-5.91-1.07c-5.38,0.14-10.99,2.56-18.1,6.27c-7.1,3.73-15.67,8.86-26.56,14.8
				c-16.86,9.22-35.86,16.68-52.62,16.97c-3.65,0.07-7.2-0.2-10.6-0.85c-1.51-0.29-2.96,0.7-3.25,2.21
				C133.06,98.6,134.05,100.05,135.55,100.34L135.55,100.34z"/>
		</g>
	</g>
	<linearGradient id="SVGID_1_" gradientUnits="userSpaceOnUse" x1="232.6494" y1="120.7031" x2="241.3341" y2="120.7031">
		<stop  offset="1.300000e-07" style="stop-color:#00885D"/>
		<stop  offset="0.5497" style="stop-color:#007E5D"/>
		<stop  offset="1" style="stop-color:#00725D"/>
	</linearGradient>
	<circle class="st2" cx="236.99" cy="120.7" r="4.34"/>
</g>
<g>
	<path class="st0" d="M183,214c-0.53-0.19-1.04-0.11-1.42,0.21c-0.33,0.28-0.49,0.72-0.41,1.12c0.07,0.37,0.33,0.66,0.72,0.79
		c1.23,0.42,2.53,1.41,3.35,2.21c0.26,0.26,0.56,0.39,0.89,0.39c0.01,0,0.02,0,0.04,0c0.34-0.01,0.68-0.17,0.93-0.45
		c0.41-0.47,0.59-1.26,0-1.91C186.25,215.42,184.43,214.53,183,214z"/>
	<path class="st0" d="M182.38,212.08c0.67-0.76,0.88-1.65,0.56-2.34c-0.32-0.68-1.1-1.05-2.16-1.01c-0.49,0.01-1.14,0.02-1.84,0.04
		c-1.61,0.03-3.62,0.06-4.67,0.14c-0.98,0.08-1.44,0.78-1.4,1.42c0.04,0.6,0.57,1.23,1.55,1.17l1.41-0.07
		c1.33-0.07,2.99-0.15,3.83-0.17c-0.01,0.01-0.02,0.02-0.03,0.03c-1.49,1.69-4.89,4.65-8.13,5.87c-0.77,0.29-0.96,0.81-1,1.1
		c-0.07,0.46,0.13,0.94,0.52,1.24c0.42,0.33,0.98,0.38,1.52,0.15c1.83-0.79,3.72-1.97,5.62-3.51c-0.01,1.1-0.09,2.36-0.16,3.59
		c-0.04,0.68-0.08,1.34-0.1,1.96c-0.02,0.43,0.12,0.81,0.41,1.08c0.25,0.23,0.58,0.36,0.91,0.36c0.05,0,0.1,0,0.15-0.01
		c0.65-0.08,1.35-0.53,1.32-1.54c-0.06-1.91-0.01-4.38,0.04-6.32c0.02-0.6-0.01-1.04-0.08-1.38
		C181.21,213.35,181.77,212.76,182.38,212.08z"/>
	<path class="st0" d="M176.79,206.9c0.99,0.06,2.7,0.6,3.45,1.09c0,0,0,0,0,0c0.23,0.15,0.47,0.22,0.7,0.22
		c0.4,0,0.77-0.21,1.03-0.61c0.4-0.62,0.28-1.36-0.31-1.8c-1.23-0.93-3.54-1.19-4.48-1.26c-0.51-0.03-0.97,0.17-1.23,0.56
		c-0.24,0.36-0.27,0.84-0.09,1.22C176.04,206.67,176.37,206.88,176.79,206.9z"/>
	<path class="st0" d="M208.11,205.71c-0.55-0.04-1.05,0.25-1.39,0.78c-2.58,4.07-6.73,7.91-10.55,9.78
		c-0.51,0.25-0.82,0.68-0.84,1.19c-0.02,0.5,0.24,0.97,0.69,1.23c0.57,0.34,1.33,0.27,2.08-0.19c2.05-1.24,3.79-2.55,5.44-4.1
		c-0.02,1.4-0.05,3.01-0.08,4.43c-0.02,1.09-0.04,2.07-0.05,2.77c-0.01,0.84,0.43,1.22,0.69,1.37c0.21,0.12,0.44,0.18,0.68,0.18
		c0.26,0,0.53-0.07,0.76-0.21c0.48-0.29,0.75-0.8,0.73-1.41c-0.06-2.17-0.02-7.76,0.04-10.03c0.9-1.05,1.82-2.21,2.81-3.53
		c0.33-0.45,0.4-0.97,0.19-1.43C209.1,206.07,208.63,205.74,208.11,205.71z"/>
	<path class="st0" d="M236,211.08c-2.54,0.02-10.26,0.06-13.55,0.11c-1,0-1.53,0.68-1.53,1.35c0,0.35,0.13,0.66,0.37,0.9
		c0.18,0.18,0.49,0.38,1.06,0.37l1.01-0.03c1.36-0.04,3.2-0.1,5.04-0.12c-0.26,3.13-2.24,5.49-5.35,6.33
		c-0.57,0.15-0.98,0.56-1.11,1.09c-0.11,0.47,0.03,0.96,0.37,1.27c0.17,0.15,0.49,0.35,1,0.35c0.24,0,0.53-0.04,0.86-0.16
		c0,0,0,0,0,0c4.12-1.44,6.73-4.75,7.04-8.91c1.7-0.02,3.41,0,4.64,0.05c0.02,0,0.04,0,0.06,0c0.92,0,1.38-0.62,1.43-1.24
		c0.03-0.35-0.08-0.7-0.31-0.94C236.87,211.31,236.55,211.08,236,211.08z"/>
	<path class="st0" d="M224.87,209.4c1.51,0,3.38-0.04,5.37-0.07c1.09-0.02,2.19-0.04,3.27-0.06c0.85,0,1.31-0.68,1.31-1.31
		c0-0.35-0.14-0.69-0.38-0.93c-0.18-0.17-0.48-0.37-1.03-0.36l-1.39,0.03c-2.37,0.06-4.82,0.11-7.12,0.1
		c-0.54-0.01-1.06,0.24-1.32,0.67c-0.23,0.39-0.24,0.88-0.02,1.26C223.8,209.15,224.28,209.4,224.87,209.4z"/>
	<path class="st0" d="M257.14,209.99c-0.5-0.03-0.94,0.22-1.24,0.7c-1.87,2.94-4.85,5.71-7.58,7.05c-0.36,0.18-0.61,0.47-0.71,0.83
		c-0.09,0.35-0.02,0.72,0.18,1.01c0.38,0.53,1.2,0.8,2.17,0.21c1.33-0.81,2.48-1.64,3.58-2.61c-0.02,1-0.04,2.1-0.06,3.04
		c-0.02,0.64-0.03,1.2-0.04,1.63c0,0.54,0.22,0.87,0.41,1.05c0.23,0.22,0.55,0.35,0.88,0.35c0.02,0,0.04,0,0.05,0
		c0.65-0.03,1.28-0.53,1.25-1.45c-0.04-1.57,0-5.53,0.04-7.21c0.65-0.76,1.31-1.59,2-2.52c0.3-0.41,0.36-0.88,0.16-1.31
		C258.05,210.32,257.62,210.02,257.14,209.99z"/>
	<path class="st0" d="M286.67,203.4c-0.73-0.23-1.38,0.19-1.57,0.72c-0.15,0.43-0.01,0.97,0.66,1.24c0.38,0.15,1.42,0.87,1.71,1.17
		c0.2,0.23,0.47,0.35,0.74,0.35c0.07,0,0.14-0.01,0.21-0.02c0.41-0.09,0.78-0.46,0.91-0.9c0.13-0.44,0.01-0.9-0.33-1.23
		C288.43,204.16,287.28,203.6,286.67,203.4z"/>
	<path class="st0" d="M282.82,207.82c-2.63-0.04-6.81-0.03-9.77,0.11c-0.98,0.04-1.4,0.76-1.37,1.41c0.02,0.68,0.55,1.35,1.44,1.33
		l0.66-0.02c2.99-0.1,6.08-0.21,8.07-0.15c0.15,0,0.35,0.03,0.44,0.15c0.08,0.12,0.08,0.35,0,0.64c-0.91,2.99-3.69,7.01-8.49,8.54
		c-0.58,0.18-0.97,0.58-1.07,1.1c-0.1,0.5,0.08,1.01,0.48,1.35c0.28,0.24,0.63,0.36,1.01,0.36c0.25,0,0.51-0.05,0.77-0.15
		c6.82-2.61,9.25-7.6,10.49-11.13c0.31-0.87,0.22-1.72-0.24-2.38C284.73,208.25,283.85,207.84,282.82,207.82z"/>
	<path class="st0" d="M284.75,205.3c-0.73-0.27-1.39,0.14-1.6,0.67c-0.17,0.43-0.04,0.98,0.62,1.25c0.41,0.19,1.42,0.93,1.67,1.23
		c0.21,0.24,0.48,0.37,0.76,0.37c0.06,0,0.12-0.01,0.19-0.02c0.41-0.08,0.79-0.43,0.93-0.87c0.14-0.44,0.04-0.9-0.29-1.26
		C286.51,206.12,285.39,205.54,284.75,205.3z"/>
	<path class="st0" d="M307.27,207.78c-2.53-0.02-5.12,0.02-6.85,0.07c-2.22,0.04-3.29,0.83-3.38,2.47c-0.05,0.7-0.06,2.96,0,3.87
		c0.04,0.55,0.3,0.97,0.75,1.19c0.48,0.23,1.09,0.18,1.55-0.13c0.42-0.29,0.64-0.75,0.61-1.28c-0.07-0.76-0.11-2.27-0.09-2.81
		c0.02-0.44,0.38-0.74,0.91-0.78c1.08-0.04,4.56-0.11,6.07-0.02c0.69,0.04,0.9,0.28,0.87,0.99c-0.19,3.45-2.61,7.65-7.47,8.7
		c-0.7,0.15-1.03,0.51-1.19,0.79c-0.18,0.33-0.22,0.73-0.09,1.09c0,0,0,0,0,0c0.19,0.54,0.76,1,1.51,1c0.17,0,0.35-0.02,0.54-0.08
		c5.57-1.6,9.28-5.96,9.67-11.38c0.11-1.39-0.08-2.27-0.61-2.84C309.54,208.05,308.68,207.79,307.27,207.78z"/>
	<path class="st0" d="M337.04,209.13c-0.27-0.44-0.75-0.71-1.32-0.69c-0.53,0.02-0.99,0.31-1.24,0.8c-2.01,3.9-6.26,8.62-10.84,9.78
		c-0.63,0.16-1.08,0.57-1.22,1.12c-0.14,0.52,0.03,1.1,0.42,1.48c0.29,0.27,0.66,0.41,1.07,0.41c0.2,0,0.41-0.03,0.63-0.1
		c4.71-1.49,9.47-5.76,12.43-11.13C337.42,209.99,337.21,209.4,337.04,209.13z"/>
	<path class="st0" d="M325.62,212.84C325.62,212.84,325.62,212.84,325.62,212.84c0.37,0.33,0.73,0.41,1,0.41
		c0.05,0,0.11,0,0.15-0.01c0.41-0.05,0.81-0.29,1.06-0.65c0.45-0.64,0.44-1.65-0.35-2.21c-1.25-0.89-3.17-1.49-3.94-1.7
		c-0.6-0.17-1.17-0.04-1.56,0.35c-0.37,0.38-0.52,0.93-0.38,1.42c0.12,0.42,0.45,0.73,0.9,0.83
		C323.46,211.51,324.83,212.12,325.62,212.84z"/>
</g>
</svg>
