<svg version="1.1" id="レイヤー_1" xmlns="http://www.w3.org/2000/svg" x="0" y="0" viewBox="0 0 469 261" style="enable-background:new 0 0 469 261" xml:space="preserve"><style>.st0{fill:#00805d}.st1{fill:#f78f00}</style><path class="st0" d="M107.11 162.47c6.29-12.06 13.21-23.57 20.76-34.51 5.94-8.55 48.26-71.67 57.98-84.57 7.19-9.52 11.81-15.21 13.87-17.07 2.05-1.85 3.98-2.78 5.79-2.78 1.56 0 2.22.68 1.96 2.05-.13.73-.65 1.68-1.55 2.86-.85 1.12-3.48 4.42-7.92 9.89-14.69 18.37-60.22 85.86-67.59 97.68-6.66 10.6-12.61 20.98-17.87 31.14-1.9 3.66-3.75 6.37-5.54 8.13-2.64 2.64-5.06 3.96-7.25 3.96-2 0-3.01-1.44-3.01-4.32-.03-1.17.27-3.42.89-6.74 2.17-11.68 5.72-24.64 10.67-38.91 4.37-12.51 8.31-22.54 11.82-30.12-5.65 5.18-14.67 16.02-27.07 32.53-9.81 13.09-52 69.85-57.77 81.18-2.38 4.69-4.02 7.6-4.92 8.72-1.67 2.15-3.51 3.22-5.51 3.22-.83 0-1.47-.34-1.93-1.03-.38-.59-.52-1.17-.4-1.76.34-1.86 2.84-6.77 7.5-14.73 6.03-10.36 49.7-68.14 62.22-84.25 7.45-9.62 16.1-19.86 25.93-30.7 4.67-5.18 8.05-8.52 10.14-10.04 1.92-1.37 3.61-2.05 5.07-2.05.63 0 1.16.2 1.57.59.58.54.8 1.2.66 1.98-.18.98-.63 2.07-1.35 3.29-3.46 6.01-7.43 14.34-11.9 24.99-7.14 17.15-11.83 31.73-14.06 43.74-.3 1.67-.7 4.21-1.19 7.63zM153.65 161.23c-2.14 2.83-4.17 5.23-6.1 7.18-3.78 3.81-7.19 5.72-10.22 5.72-2.63 0-4.45-1.25-5.46-3.74-.63-1.61-.74-3.52-.33-5.72 1-5.42 3.83-11.41 8.47-17.95 5.16-7.28 10.79-12.87 16.89-16.78 3.99-2.54 7.62-3.81 10.89-3.81 2.05 0 3.64.64 4.78 1.91.96 1.12 1.31 2.39 1.05 3.81-.2 1.07-.89 2.57-2.08 4.47.54 1.03.74 1.93.6 2.71-.19 1.02-1.19 2.71-2.99 5.06-1.86 2.39-3.87 5.57-6.02 9.52-2.3 4.2-3.68 7.57-4.15 10.11-.38 2.05-.08 3.74.89 5.06.28.34 1.17.9 2.69 1.68 1.12.59 1.53 1.61 1.27 3.08-.17.93-.66 1.68-1.45 2.27-.85.63-1.77.95-2.74.95-2.64 0-4.69-1.17-6.16-3.52-1.21-1.91-1.55-4.3-1.01-7.18.17-.98.57-2.59 1.18-4.83zm13.64-24.11c-.38-1.07-.87-1.87-1.46-2.38-.59-.51-1.28-.77-2.06-.77-3.71 0-8.35 3.25-13.9 9.74-6.12 7.18-9.65 13.26-10.57 18.25-.23 1.22-.17 2.15.18 2.78.35.64.98.95 1.91.95 2.35 0 5.54-2.49 9.6-7.47 2.27-2.73 5.19-6.77 8.77-12.09 2.35-3.47 4.03-5.76 5.02-6.89.49-.58 1.33-1.29 2.51-2.12zM201.28 126.13c-4.09 4.93-8.05 10.45-11.87 16.56-5.48 8.69-8.61 15.19-9.41 19.49-.23 1.22-.15 2.15.25 2.78.39.64 1.1.95 2.13.95 2.44 0 5.82-2.3 10.14-6.89 2.72-2.83 5.2-5.67 7.44-8.5 1.22-1.61 2.37-2.42 3.45-2.42.63 0 1.13.22 1.49.66.31.44.42.88.34 1.32-.33 1.81-3.45 5.84-9.35 12.09-7.07 7.52-12.94 11.28-17.63 11.28-2.49 0-4.35-1.15-5.59-3.45-.75-1.47-.88-3.54-.38-6.23 1.1-5.91 4.09-12.8 8.97-20.66 1.19-1.95 4.37-6.67 9.51-14.14-1.38.34-2.42.51-3.1.51-1.03 0-1.88-.24-2.58-.73-.95-.68-1.32-1.54-1.13-2.57.23-1.22 1.12-2.2 2.67-2.93.43-.19 2.29-.51 5.6-.95 1.21-.19 3-.66 5.38-1.39 2.28-3.08 5.84-7.26 10.68-12.53 2.7-2.93 4.53-4.83 5.53-5.71 1.4-1.22 2.54-1.83 3.42-1.83.63 0 1.21.34 1.72 1.02.47.64.64 1.27.52 1.91-.24 1.27-2.07 3.79-5.51 7.55-2.26 2.44-3.97 4.42-5.13 5.93 5.69-1.47 9.71-2.2 12.06-2.2 2.68 0 3.82 1.12 3.4 3.37-.21 1.12-.83 1.96-1.85 2.49-.55.29-1.86.54-3.95.73-.82-.05-4.68.88-11.58 2.78-1.89.56-3.78 1.12-5.64 1.71zM229.68 129.43c.83 0 1.45.32 1.88.95.28.54.38 1.07.28 1.61-.17.88-1.15 2.35-2.94 4.4-6.54 7.87-11.36 14.34-14.45 19.42-3.27 5.23-6.29 10.6-9.08 16.12-1.23 2.44-2.68 3.67-4.35 3.67-.97 0-1.68-.39-2.12-1.17-.42-.63-.56-1.32-.43-2.05.27-1.46 2.75-6.35 7.42-14.65 3.66-6.55 8.95-13.78 15.9-21.69 2.24-2.59 3.88-4.32 4.92-5.2 1.05-.95 2.03-1.41 2.97-1.41zM249.86 153.31c-3.93 5.13-7.2 8.94-9.82 11.43-6.37 6.16-11.29 9.23-14.76 9.23-2.1 0-3.5-1.15-4.19-3.44-.5-1.52-.6-3.1-.29-4.76.6-3.22 2.85-7.89 6.77-13.99 3.48-5.32 6.36-9.53 8.65-12.6 1.68-2.2 2.7-3.64 3.07-4.32.83-1.32 1.53-2.32 2.1-3 .82-1.02 1.8-1.54 2.92-1.54.58 0 1.05.25 1.4.73.38.59.5 1.27.35 2.05-.41 2.2-3.3 7.11-8.68 14.73-5.35 7.52-8.25 12.51-8.71 14.95-.29 1.56.18 2.34 1.4 2.34 2.1 0 5.58-2.74 10.46-8.21 2.16-2.44 4.52-5.54 7.07-9.31.18-1.22.33-2.15.45-2.79.68-3.66 1.95-6.84 3.82-9.52 2.4-3.47 5.1-5.2 8.08-5.2 1.71 0 2.37 1.03 1.99 3.08-.61 3.27-3.21 8.08-7.81 14.43.94.2 1.7.29 2.29.29 1.61 0 3.9-1.02 6.87-3.08 2.36-1.66 3.86-2.49 4.49-2.49.53 0 1.04.32 1.51.95.34.54.46 1.07.36 1.61-.33 1.76-1.91 3.74-4.77 5.93-3.3 2.49-6.75 3.74-10.36 3.74-1.4.01-2.96-.41-4.66-1.24z"/><path class="st0" d="m268.98 159.25-.24 1.32c-.2 1.08-.1 2.01.29 2.79.88 1.81 2.72 2.71 5.51 2.71 6.1 0 14.03-4.69 23.78-14.07 1.72-1.61 3.07-2.42 4.04-2.42.53 0 .97.27 1.32.81.22.39.3.76.23 1.1-.35 1.91-3.3 5.13-8.83 9.67-4.33 3.57-8.77 6.47-13.35 8.72-4.57 2.25-8.63 3.37-12.2 3.37-3.66 0-6.31-1.27-7.94-3.81-1.09-1.76-1.35-4.15-.79-7.18 1.53-8.25 6.92-16.34 16.16-24.25 7.5-6.45 13.59-9.67 18.28-9.67 1.27 0 2.35.39 3.23 1.17 1.08 1.02 1.47 2.37 1.16 4.03-.48 2.59-2.27 5.77-5.36 9.52-6.39 7.81-14.82 13.21-25.29 16.19zm2.68-5.72c3.63-1.17 6.57-2.49 8.8-3.96 3.91-2.64 7.17-5.62 9.79-8.94.95-1.17 1.52-2.22 1.68-3.15.18-.98-.19-1.47-1.12-1.47-1.27 0-3.25.95-5.95 2.86-4.83 3.38-9.23 8.26-13.2 14.66z"/><path class="st1" d="M374.92 80.37c-3.73.64-8.35 2.32-13.83 5.06-1.18.59-2.1.88-2.73.88-.68 0-1.3-.34-1.86-1.02-.55-.73-.72-1.61-.53-2.64.22-1.17 1.02-2.2 2.4-3.08 3.38-2.15 7.4-3.96 12.07-5.42 5.66-1.81 10.81-2.71 15.45-2.71 5.91 0 10.35 2.03 13.3 6.08 2.7 3.62 3.55 8.08 2.56 13.41-1.63 8.79-7.18 19.46-16.64 32.02a213.654 213.654 0 0 1-34.93 36.19c-11.06 9.04-19.95 13.56-26.7 13.56-3.96 0-6.82-1.81-8.59-5.42-1.33-2.83-1.65-6.11-.96-9.82 1.7-9.13 6.84-19.73 15.43-31.8 11.5-16.17 26.69-31.27 45.56-45.29zm3.95-.8c.65.98.9 1.83.77 2.56-.12.63-1.77 2.42-4.95 5.35-12.89 11.53-22.63 21.13-29.23 28.79-6.84 7.91-12.42 15.85-16.73 23.81-3.07 5.77-5.02 10.87-5.85 15.31-.41 2.2-.31 4.03.3 5.5.79 1.81 2.26 2.71 4.41 2.71 4.54 0 11.33-3.81 20.36-11.43 11.47-9.67 21.22-19.71 29.26-30.11 9.08-11.82 14.4-21.91 15.95-30.26.73-3.91.05-7.11-2.03-9.6-1.6-1.91-4.09-2.86-7.46-2.86l-4.8.23zM388.33 140.31c.74-.58 1.46-1.17 2.16-1.76 12.06-9.96 19.82-14.95 23.29-14.95 1.91 0 2.67 1.05 2.27 3.15-.27 1.47-1.45 3.2-3.53 5.2-11.35 10.89-17.8 20.49-19.34 28.79-.5 2.69-.24 5.25.77 7.69.48 1.12.65 2 .54 2.64-.11.59-.51 1.15-1.2 1.69-.76.68-1.58 1.02-2.46 1.02-2 0-3.45-1.27-4.35-3.81-.87-2.39-.99-5.3-.36-8.72 1.22-6.59 5.07-13.89 11.54-21.91-7.43 4.25-15.01 11.77-22.73 22.57-1.95 2.59-3.75 3.88-5.41 3.88-.83 0-1.46-.29-1.89-.88-.55-.68-.73-1.57-.53-2.64.49-2.64 4.78-9.55 12.86-20.74 4.35-6.06 7.7-10.45 10.06-13.19 2.36-2.68 4.19-4.03 5.51-4.03.63 0 1.19.29 1.67.88.55.68.75 1.47.58 2.34-.2 1.07-1.19 2.61-2.98 4.62-2.58 3-4.74 5.71-6.47 8.16zM417.05 151.37l-.24 1.32c-.2 1.08-.1 2.01.29 2.79.88 1.81 2.72 2.71 5.51 2.71 6.1 0 14.03-4.69 23.78-14.07 1.72-1.61 3.07-2.42 4.04-2.42.53 0 .97.27 1.32.81.22.39.3.76.23 1.1-.35 1.91-3.3 5.13-8.83 9.67-4.33 3.57-8.77 6.47-13.35 8.72-4.57 2.25-8.63 3.37-12.2 3.37-3.66 0-6.31-1.27-7.94-3.81-1.09-1.76-1.35-4.15-.79-7.18 1.53-8.25 6.92-16.34 16.16-24.25 7.5-6.45 13.59-9.67 18.28-9.67 1.27 0 2.35.39 3.23 1.17 1.08 1.02 1.47 2.37 1.16 4.03-.48 2.59-2.27 5.77-5.36 9.52-6.39 7.81-14.82 13.21-25.29 16.19zm2.68-5.71c3.63-1.17 6.57-2.49 8.8-3.96 3.91-2.64 7.17-5.62 9.79-8.94.95-1.17 1.52-2.22 1.68-3.15.18-.98-.19-1.47-1.12-1.47-1.27 0-3.25.95-5.95 2.86-4.83 3.37-9.23 8.26-13.2 14.66zM239.13 58.53c-9.78 3.26-15.04 11.48-14.87 19.43.07 4.5 1.92 8.96 5.52 12.17 3.6 3.23 8.85 5.12 15.39 4.99 2.86-.05 5.98-.48 9.36-1.34 8.67-2.22 20.66-7.92 34.18-12.79 27.83-10.02 48.8-13.61 62.13-13.84 2.59-.05 5.12.06 7.58.35 1.52.18 2.9-.91 3.08-2.43.18-1.52-.91-2.9-2.43-3.08-2.74-.32-5.52-.44-8.33-.39-14.47.28-38.97 3.85-63.97 14.2-13.45 5.57-25.83 10.65-33.6 12.61-3.02.77-5.72 1.13-8.1 1.17-5.45.09-9.17-1.43-11.58-3.58-2.4-2.16-3.6-5.04-3.67-8.14-.08-5.45 3.42-11.46 11.09-14.06a2.782 2.782 0 0 0 1.75-3.52 2.792 2.792 0 0 0-3.53-1.75z"/><path class="st0" d="M135.55 100.34c3.82.73 7.75 1.02 11.74.94 18.3-.36 37.88-8.23 55.18-17.65 10.99-5.99 19.61-11.15 26.48-14.76 6.87-3.63 12-5.6 15.62-5.63 1.39-.02 2.56.19 3.69.65 1.81.8 2.27 1.88 2.36 3.22.04 1.54-.92 3.01-2.01 3.34-1.45.51-2.2 2.1-1.69 3.55.51 1.45 2.1 2.2 3.55 1.69 3.77-1.39 5.77-5.05 5.71-8.68 0-3.23-1.99-6.74-5.8-8.25-1.87-.77-3.87-1.11-5.91-1.07-5.38.14-10.99 2.56-18.1 6.27-7.1 3.73-15.67 8.86-26.56 14.8-16.86 9.22-35.86 16.68-52.62 16.97-3.65.07-7.2-.2-10.6-.85-1.51-.29-2.96.7-3.25 2.21a2.79 2.79 0 0 0 2.21 3.25z"/><linearGradient id="SVGID_1_" gradientUnits="userSpaceOnUse" x1="232.649" y1="120.703" x2="241.334" y2="120.703"><stop offset="0" style="stop-color:#00885d"/><stop offset=".55" style="stop-color:#007e5d"/><stop offset="1" style="stop-color:#00725d"/></linearGradient><circle cx="236.99" cy="120.7" r="4.34" style="fill:url(#SVGID_1_)"/><path class="st0" d="M183 214c-.53-.19-1.04-.11-1.42.21-.33.28-.49.72-.41 1.12.07.37.33.66.72.79 1.23.42 2.53 1.41 3.35 2.21.26.26.56.39.89.39h.04c.34-.01.68-.17.93-.45.41-.47.59-1.26 0-1.91-.85-.94-2.67-1.83-4.1-2.36z"/><path class="st0" d="M182.38 212.08c.67-.76.88-1.65.56-2.34-.32-.68-1.1-1.05-2.16-1.01-.49.01-1.14.02-1.84.04-1.61.03-3.62.06-4.67.14-.98.08-1.44.78-1.4 1.42.04.6.57 1.23 1.55 1.17l1.41-.07c1.33-.07 2.99-.15 3.83-.17l-.03.03c-1.49 1.69-4.89 4.65-8.13 5.87-.77.29-.96.81-1 1.1-.07.46.13.94.52 1.24.42.33.98.38 1.52.15 1.83-.79 3.72-1.97 5.62-3.51-.01 1.1-.09 2.36-.16 3.59-.04.68-.08 1.34-.1 1.96-.02.43.12.81.41 1.08.25.23.58.36.91.36.05 0 .1 0 .15-.01.65-.08 1.35-.53 1.32-1.54-.06-1.91-.01-4.38.04-6.32.02-.6-.01-1.04-.08-1.38.56-.53 1.12-1.12 1.73-1.8zM176.79 206.9c.99.06 2.7.6 3.45 1.09.23.15.47.22.7.22.4 0 .77-.21 1.03-.61.4-.62.28-1.36-.31-1.8-1.23-.93-3.54-1.19-4.48-1.26-.51-.03-.97.17-1.23.56-.24.36-.27.84-.09 1.22.18.35.51.56.93.58zM208.11 205.71c-.55-.04-1.05.25-1.39.78-2.58 4.07-6.73 7.91-10.55 9.78-.51.25-.82.68-.84 1.19-.02.5.24.97.69 1.23.57.34 1.33.27 2.08-.19 2.05-1.24 3.79-2.55 5.44-4.1-.02 1.4-.05 3.01-.08 4.43-.02 1.09-.04 2.07-.05 2.77-.01.84.43 1.22.69 1.37.21.12.44.18.68.18.26 0 .53-.07.76-.21.48-.29.75-.8.73-1.41-.06-2.17-.02-7.76.04-10.03.9-1.05 1.82-2.21 2.81-3.53.33-.45.4-.97.19-1.43-.21-.47-.68-.8-1.2-.83zM236 211.08c-2.54.02-10.26.06-13.55.11-1 0-1.53.68-1.53 1.35 0 .35.13.66.37.9.18.18.49.38 1.06.37l1.01-.03c1.36-.04 3.2-.1 5.04-.12-.26 3.13-2.24 5.49-5.35 6.33-.57.15-.98.56-1.11 1.09-.11.47.03.96.37 1.27.17.15.49.35 1 .35.24 0 .53-.04.86-.16 4.12-1.44 6.73-4.75 7.04-8.91 1.7-.02 3.41 0 4.64.05h.06c.92 0 1.38-.62 1.43-1.24.03-.35-.08-.7-.31-.94-.16-.19-.48-.42-1.03-.42zM224.87 209.4c1.51 0 3.38-.04 5.37-.07l3.27-.06c.85 0 1.31-.68 1.31-1.31 0-.35-.14-.69-.38-.93-.18-.17-.48-.37-1.03-.36l-1.39.03c-2.37.06-4.82.11-7.12.1-.54-.01-1.06.24-1.32.67-.23.39-.24.88-.02 1.26.24.42.72.67 1.31.67zM257.14 209.99c-.5-.03-.94.22-1.24.7-1.87 2.94-4.85 5.71-7.58 7.05-.36.18-.61.47-.71.83-.09.35-.02.72.18 1.01.38.53 1.2.8 2.17.21 1.33-.81 2.48-1.64 3.58-2.61-.02 1-.04 2.1-.06 3.04-.02.64-.03 1.2-.04 1.63 0 .54.22.87.41 1.05.23.22.55.35.88.35h.05c.65-.03 1.28-.53 1.25-1.45-.04-1.57 0-5.53.04-7.21.65-.76 1.31-1.59 2-2.52.3-.41.36-.88.16-1.31-.18-.44-.61-.74-1.09-.77zM286.67 203.4c-.73-.23-1.38.19-1.57.72-.15.43-.01.97.66 1.24.38.15 1.42.87 1.71 1.17a.983.983 0 0 0 .95.33c.41-.09.78-.46.91-.9s.01-.9-.33-1.23c-.57-.57-1.72-1.13-2.33-1.33zM282.82 207.82c-2.63-.04-6.81-.03-9.77.11-.98.04-1.4.76-1.37 1.41.02.68.55 1.35 1.44 1.33l.66-.02c2.99-.1 6.08-.21 8.07-.15.15 0 .35.03.44.15.08.12.08.35 0 .64-.91 2.99-3.69 7.01-8.49 8.54-.58.18-.97.58-1.07 1.1-.1.5.08 1.01.48 1.35.28.24.63.36 1.01.36.25 0 .51-.05.77-.15 6.82-2.61 9.25-7.6 10.49-11.13.31-.87.22-1.72-.24-2.38-.51-.73-1.39-1.14-2.42-1.16zM284.75 205.3a1.24 1.24 0 0 0-1.6.67c-.17.43-.04.98.62 1.25.41.19 1.42.93 1.67 1.23.21.24.48.37.76.37.06 0 .12-.01.19-.02.41-.08.79-.43.93-.87s.04-.9-.29-1.26c-.52-.55-1.64-1.13-2.28-1.37zM307.27 207.78c-2.53-.02-5.12.02-6.85.07-2.22.04-3.29.83-3.38 2.47-.05.7-.06 2.96 0 3.87.04.55.3.97.75 1.19.48.23 1.09.18 1.55-.13.42-.29.64-.75.61-1.28-.07-.76-.11-2.27-.09-2.81.02-.44.38-.74.91-.78 1.08-.04 4.56-.11 6.07-.02.69.04.9.28.87.99-.19 3.45-2.61 7.65-7.47 8.7-.7.15-1.03.51-1.19.79-.18.33-.22.73-.09 1.09.19.54.76 1 1.51 1 .17 0 .35-.02.54-.08 5.57-1.6 9.28-5.96 9.67-11.38.11-1.39-.08-2.27-.61-2.84-.53-.58-1.39-.84-2.8-.85zM337.04 209.13c-.27-.44-.75-.71-1.32-.69-.53.02-.99.31-1.24.8-2.01 3.9-6.26 8.62-10.84 9.78-.63.16-1.08.57-1.22 1.12-.14.52.03 1.1.42 1.48.29.27.66.41 1.07.41.2 0 .41-.03.63-.1 4.71-1.49 9.47-5.76 12.43-11.13.45-.81.24-1.4.07-1.67zM325.62 212.84c.37.33.73.41 1 .41.05 0 .11 0 .15-.01.41-.05.81-.29 1.06-.65.45-.64.44-1.65-.35-2.21-1.25-.89-3.17-1.49-3.94-1.7-.6-.17-1.17-.04-1.56.35-.37.38-.52.93-.38 1.42.12.42.45.73.9.83.96.23 2.33.84 3.12 1.56z"/></svg>